<svg width="40" height="41" viewBox="0 0 40 41" fill="none" xmlns="http://www.w3.org/2000/svg">
<circle cx="20" cy="20.5" r="20" fill="#4E6297"/>
<path d="M29 14.3186C29 12.8212 27.6788 11.5 26.1813 11.5H14.8186C13.3212 11.5 12 12.8212 12 14.3186V25.6813C12 27.1787 13.3212 28.5 14.8186 28.5H20.544V22.0699H18.4301V19.2513H20.544V18.1062C20.544 16.1684 21.9534 14.4948 23.715 14.4948H26.0052V17.3135H23.715C23.4508 17.3135 23.1865 17.5777 23.1865 18.1062V19.2513H26.0052V22.0699H23.1865V28.5H26.1813C27.6788 28.5 29 27.1787 29 25.6813V14.3186Z" fill="white"/>
</svg>
