<svg width="40" height="41" viewBox="0 0 40 41" fill="none" xmlns="http://www.w3.org/2000/svg">
<circle cx="20" cy="20.5" r="20" fill="url(#paint0_linear)"/>
<path d="M26.5808 12.5H14.4192C13.0462 12.5 12 13.5462 12 14.9192V27.0808C12 28.4538 13.0462 29.5 14.4192 29.5H26.5808C27.9538 29.5 29 28.4538 29 27.0808V14.9192C29 13.5462 27.9538 12.5 26.5808 12.5ZM20.5 26.1C23.3115 26.1 25.6 23.8769 25.6 21.1962C25.6 20.7385 25.5346 20.2154 25.4038 19.8231H26.8423V26.7538C26.8423 27.0808 26.5808 27.4077 26.1885 27.4077H14.8115C14.4846 27.4077 14.1577 27.1462 14.1577 26.7538V19.7577H15.6615C15.5308 20.2154 15.4654 20.6731 15.4654 21.1308C15.4 23.8769 17.6885 26.1 20.5 26.1ZM20.5 24.1385C18.6692 24.1385 17.2308 22.7 17.2308 20.9346C17.2308 19.1692 18.6692 17.7308 20.5 17.7308C22.3308 17.7308 23.7692 19.1692 23.7692 20.9346C23.7692 22.7654 22.3308 24.1385 20.5 24.1385ZM26.7769 17.1423C26.7769 17.5346 26.45 17.8615 26.0577 17.8615H24.2269C23.8346 17.8615 23.5077 17.5346 23.5077 17.1423V15.3769C23.5077 14.9846 23.8346 14.6577 24.2269 14.6577H26.0577C26.45 14.6577 26.7769 14.9846 26.7769 15.3769V17.1423Z" fill="white"/>
<defs>
<linearGradient id="paint0_linear" x1="8.5" y1="36" x2="35" y2="8.5" gradientUnits="userSpaceOnUse">
<stop stop-color="#EEA054"/>
<stop offset="0.502762" stop-color="#D64763"/>
<stop offset="1" stop-color="#B62A99"/>
</linearGradient>
</defs>
</svg>
