<svg width="40" height="41" viewBox="0 0 40 41" fill="none" xmlns="http://www.w3.org/2000/svg">
<circle cx="20" cy="20.5" r="20" fill="#7294C7"/>
<path d="M29.8065 25.6153C29.8065 25.5322 29.7235 25.5322 29.7235 25.4492C29.3914 24.785 28.6442 23.9548 27.6479 23.0416C27.1498 22.6264 26.9007 22.2943 26.7346 22.1283C26.4856 21.7962 26.4856 21.5471 26.5686 21.215C26.6516 20.966 26.9837 20.5509 27.5649 19.8036C27.897 19.3885 28.063 19.1395 28.3121 18.8904C29.5574 17.2299 30.1386 16.1506 29.9725 15.6525L29.8895 15.5695C29.8065 15.4865 29.7235 15.4034 29.5574 15.4034C29.3914 15.3204 29.1423 15.3204 28.8932 15.4034H25.7384C25.6554 15.4034 25.6553 15.4034 25.4893 15.4034C25.4063 15.4034 25.3233 15.4034 25.3233 15.4034H25.2402H25.1572L25.0742 15.4865C24.9912 15.5695 24.9912 15.5695 24.9912 15.6525C24.6591 16.5658 24.244 17.313 23.8288 18.1432C23.5798 18.5583 23.3307 18.9734 23.0816 19.3055C22.8326 19.6376 22.6665 19.8867 22.5005 20.0527C22.3344 20.2188 22.1684 20.3018 22.0854 20.4678C22.0023 20.5509 21.8363 20.6339 21.8363 20.5509C21.7533 20.5509 21.6702 20.5509 21.6702 20.4678C21.5872 20.3848 21.5042 20.3018 21.4212 20.2188C21.3382 20.1357 21.3382 19.9697 21.2551 19.8036C21.2551 19.6376 21.2551 19.4716 21.2551 19.3885C21.2551 19.3055 21.2551 19.0564 21.2551 18.8904C21.2551 18.6413 21.2551 18.4753 21.2551 18.3923C21.2551 18.1432 21.2551 17.8111 21.2551 17.479C21.2551 17.1469 21.2551 16.8978 21.2551 16.7318C21.2551 16.5658 21.2551 16.3167 21.2551 16.1506C21.2551 15.9016 21.2551 15.7355 21.2551 15.6525C21.2551 15.5695 21.1721 15.4034 21.1721 15.3204C21.0891 15.2374 21.0061 15.1544 20.923 15.0713C20.84 14.9883 20.674 14.9883 20.591 14.9053C20.1758 14.8223 19.6777 14.7393 19.0966 14.7393C17.7682 14.7393 16.8549 14.8223 16.5228 14.9883C16.3568 15.0714 16.1907 15.1544 16.1077 15.3204C15.9417 15.4865 15.9417 15.5695 16.0247 15.5695C16.4398 15.6525 16.7719 15.8185 16.938 16.0676L17.021 16.2337C17.104 16.3167 17.104 16.4827 17.187 16.7318C17.27 16.9809 17.27 17.2299 17.27 17.562C17.27 18.0602 17.27 18.5583 17.27 18.8904C17.27 19.3055 17.187 19.5546 17.187 19.8036C17.187 20.0527 17.104 20.2188 17.021 20.3018C16.938 20.4678 16.9379 20.5509 16.8549 20.5509C16.8549 20.5509 16.8549 20.6339 16.7719 20.6339C16.6889 20.6339 16.6059 20.7169 16.4398 20.7169C16.3568 20.7169 16.1907 20.6339 16.1077 20.5509C15.9417 20.4678 15.7756 20.3018 15.6926 20.1357C15.5266 19.9697 15.3605 19.7206 15.1945 19.3885C15.0284 19.0564 14.7793 18.7244 14.6133 18.2262L14.4473 17.8941C14.3642 17.7281 14.1982 17.396 14.0321 16.9809C13.8661 16.5658 13.7001 16.2337 13.534 15.8186C13.451 15.6525 13.368 15.5695 13.2849 15.4865H13.2019C13.2019 15.4865 13.1189 15.4034 13.0359 15.4034C12.9528 15.4034 12.8698 15.3204 12.7868 15.3204H9.79798C9.46588 15.3204 9.29984 15.4034 9.21682 15.4865L9.13379 15.5695C9.13379 15.5695 9.13379 15.6525 9.13379 15.7355C9.13379 15.8186 9.13379 15.9016 9.21682 16.0676C9.63193 17.0639 10.1301 18.0602 10.6282 19.0564C11.1263 19.9697 11.6245 20.7999 11.9566 21.3811C12.3717 21.9623 12.7038 22.5434 13.1189 23.0416C13.534 23.5397 13.7831 23.8718 13.8661 24.0378C14.0321 24.2039 14.1152 24.2869 14.1982 24.3699L14.4473 24.619C14.6133 24.785 14.8624 25.0341 15.1945 25.2832C15.5266 25.5322 15.9417 25.7813 16.3568 26.0304C16.7719 26.2794 17.27 26.4455 17.7682 26.6115C18.3493 26.7776 18.8475 26.8606 19.3456 26.7776H20.591C20.84 26.7776 21.0061 26.6946 21.1721 26.5285L21.2551 26.4455C21.2551 26.3625 21.3382 26.3625 21.3382 26.2794C21.3382 26.1964 21.3382 26.1134 21.3382 25.9474C21.3382 25.6153 21.3382 25.3662 21.4212 25.1171C21.5042 24.8681 21.5042 24.702 21.5872 24.536C21.6703 24.3699 21.7533 24.2869 21.8363 24.2039C21.9193 24.1208 22.0024 24.0378 22.0024 24.0378H22.0854C22.2514 23.9548 22.5005 24.0378 22.6665 24.2039C22.9156 24.3699 23.1647 24.619 23.3307 24.8681C23.4967 25.1171 23.7458 25.3662 24.0779 25.6983C24.41 26.0304 24.6591 26.2794 24.8251 26.3625L25.0742 26.5285C25.2402 26.6115 25.4063 26.6946 25.6554 26.7776C25.9044 26.8606 26.0705 26.8606 26.2365 26.8606L29.0593 26.7776C29.3084 26.7776 29.5574 26.6946 29.7235 26.6115C29.8895 26.5285 29.9725 26.4455 29.9725 26.2794C29.9725 26.1964 29.9725 26.0304 29.9725 25.9474C29.8065 25.7813 29.8065 25.6983 29.8065 25.6153Z" fill="white"/>
</svg>
