<svg width="51" height="50" viewBox="0 0 51 50" fill="none" xmlns="http://www.w3.org/2000/svg">
<g clip-path="url(#clip0_2239:718)">
<path d="M49.7285 10.0887H45.6574C45.7757 9.92273 45.8829 9.74839 45.9767 9.56567C46.5154 8.51357 46.5882 7.27455 46.1766 6.166L44.9429 2.85025C44.5317 1.74284 43.6677 0.852484 42.5732 0.407688C41.4776 -0.0374885 40.2367 -0.00201168 39.1682 0.505345L29.4048 5.14213C28.9223 4.79728 28.3321 4.59357 27.6951 4.59357H23.3051C22.6681 4.59357 22.0775 4.79766 21.595 5.14251L11.832 0.504964C10.7635 -0.00201163 9.52256 -0.0374885 8.42697 0.407688C7.33253 0.852484 6.4685 1.74284 6.05727 2.84987L4.8236 6.16638C4.41199 7.27455 4.48485 8.51357 5.02387 9.56567C5.11733 9.74839 5.2249 9.92311 5.34316 10.0887H1.27172C0.845613 10.0887 0.5 10.4339 0.5 10.8604V16.4158C0.5 16.8419 0.845613 17.1875 1.27172 17.1875C1.69782 17.1875 2.04343 16.8419 2.04343 16.4158V11.6317H7.40349C7.48932 11.6619 7.57629 11.6897 7.66441 11.7141L14.1429 13.4975C12.7033 15.7035 11.4333 18.024 10.3462 20.4284H2.04343V19.5022C2.04343 19.0761 1.69782 18.7309 1.27172 18.7309C0.845613 18.7309 0.5 19.0761 0.5 19.5022V21.2002C0.5 21.6263 0.845613 21.9719 1.27172 21.9719H4.02365V49.2917C4.02365 49.7182 4.36926 50.0634 4.79537 50.0634H46.2048C46.6309 50.0634 46.9766 49.7182 46.9766 49.2917V44.811C46.9766 44.3848 46.6309 44.0392 46.2048 44.0392C45.7784 44.0392 45.4331 44.3848 45.4331 44.811V48.5204H30.1296V22.4464C32.3155 26.5865 33.7952 31.0883 34.4761 35.7396C34.5211 36.0474 34.747 36.298 35.0487 36.3751C35.112 36.3915 35.1761 36.3991 35.2398 36.3991C35.4782 36.3991 35.7079 36.2885 35.8559 36.092C36.9652 34.6203 37.9967 33.0448 38.9279 31.3999C40.4873 32.462 42.0014 33.646 43.438 34.9278C43.6803 35.1437 44.032 35.1853 44.3177 35.0312C44.6034 34.8774 44.7625 34.5612 44.7152 34.24C44.0991 30.0373 42.9505 25.9045 41.3224 21.9719H45.4327V41.7241C45.4327 42.1506 45.7784 42.4958 46.2045 42.4958C46.6309 42.4958 46.9762 42.1506 46.9762 41.7241V21.9719H49.7285C50.1546 21.9719 50.4998 21.6263 50.4998 21.2002V10.8604C50.5002 10.4339 50.155 10.0887 49.7285 10.0887ZM39.8301 1.89924C40.5186 1.5727 41.2861 1.55058 41.9923 1.83744C42.6972 2.12393 43.2313 2.67439 43.4964 3.38812L44.7297 6.70349C44.9952 7.41761 44.9498 8.18436 44.6027 8.86224C44.2559 9.53973 43.6604 10.0242 42.9265 10.226L30.6427 13.6077V9.89908C33.4038 8.2084 40.2871 4.72137 42.0003 7.13951C42.2463 7.48703 42.7277 7.56981 43.0756 7.32338C43.4235 7.07695 43.5059 6.59515 43.2595 6.24763C41.9373 4.38109 39.1511 4.2903 34.9774 5.97831C33.2581 6.67336 31.6708 7.52175 30.6427 8.11036V7.54082C30.6427 7.12769 30.5569 6.73401 30.4028 6.37657L39.8301 1.89924ZM23.3051 6.13662H27.6951C28.4695 6.13662 29.0993 6.76682 29.0993 7.54082V13.9194C29.0993 14.6938 28.4695 15.3236 27.6951 15.3236H23.3051C22.5307 15.3236 21.9009 14.6938 21.9009 13.9194V7.54082C21.9009 6.76643 22.5307 6.13662 23.3051 6.13662ZM22.0081 20.4281C22.7463 19.2016 23.5496 18.013 24.4141 16.867H26.5854C27.4502 18.013 28.2536 19.2016 28.9913 20.4281H22.0081ZM6.39755 8.86224C6.05041 8.18436 6.00501 7.41761 6.27013 6.70387L7.50419 3.38774C7.76894 2.67439 8.303 2.12393 9.00795 1.83744C9.71368 1.55058 10.4816 1.5727 11.1698 1.89924L20.5974 6.37733C20.4433 6.73439 20.3575 7.12769 20.3575 7.5412V8.15461C19.3329 7.56485 17.7097 6.69128 15.9465 5.97831C11.7732 4.2903 8.98659 4.38109 7.66441 6.24763C7.41798 6.59515 7.50038 7.07695 7.84828 7.32338C8.19618 7.56981 8.6776 7.48741 8.92365 7.13951C10.6529 4.69848 17.6494 8.27439 20.3575 9.946V13.6077L8.07411 10.2264C7.33978 10.0242 6.7443 9.53973 6.39755 8.86224ZM20.7039 15.3038C21.088 16.0225 21.7609 16.5645 22.567 16.7732C18.9579 21.8086 16.4733 27.5944 15.308 33.6758C14.4882 32.478 13.7218 31.2226 13.0203 29.9259C12.9177 29.736 12.7407 29.5979 12.5312 29.5448C12.3222 29.4918 12.1005 29.5288 11.9201 29.6467C10.6349 30.4848 9.37646 31.4041 8.16109 32.3914C9.4127 25.8217 11.9987 19.487 15.707 13.9282L20.7039 15.3038ZM5.56708 21.9719H9.67782C8.0497 25.9045 6.90109 30.0369 6.28463 34.24C6.23771 34.5612 6.3964 34.8774 6.68212 35.0312C6.96823 35.1849 7.31956 35.1437 7.5618 34.9278C8.99842 33.646 10.5125 32.462 12.0723 31.3999C13.0035 33.0448 14.0346 34.6199 15.1443 36.092C15.2923 36.2885 15.522 36.3995 15.7604 36.3995C15.8241 36.3995 15.8882 36.3915 15.9515 36.3751C16.2532 36.298 16.4787 36.0474 16.5237 35.7396C17.205 31.0883 18.6847 26.5862 20.8702 22.4461V48.5204H5.56708V21.9719ZM22.4136 48.5204V21.9719H28.5866V48.5204H22.4136ZM39.0801 29.6467C38.8997 29.5288 38.6776 29.4922 38.469 29.5452C38.2599 29.5983 38.0826 29.7363 37.9799 29.9259C37.2784 31.2226 36.512 32.4784 35.6923 33.6758C34.5269 27.594 32.0423 21.8086 28.4329 16.7736C29.2389 16.5653 29.9122 16.0228 30.2963 15.3038L35.2944 13.9278C39.0019 19.4877 41.5879 25.8225 42.8395 32.3914C41.6237 31.4041 40.3653 30.4848 39.0801 29.6467ZM48.9568 20.4284H40.6544C39.5672 18.024 38.2973 15.7035 36.858 13.4975L43.3358 11.7141C43.4239 11.6897 43.5109 11.6619 43.5967 11.6317H48.9568V20.4284Z" fill="#FF5858"/>
</g>
<defs>
<clipPath id="clip0_2239:718">
<rect width="50" height="50" fill="white" transform="translate(0.5)"/>
</clipPath>
</defs>
</svg>
