<svg width="50" height="50" viewBox="0 0 50 50" fill="none" xmlns="http://www.w3.org/2000/svg">
<g clip-path="url(#clip0)">
<path d="M42.0728 8.45755C37.2719 3.42533 29.8939 2.65287 24.4361 5.6848C23.9645 5.94671 23.7947 6.54144 24.0566 7.01292C24.3185 7.4846 24.9133 7.65423 25.3847 7.39241C30.3767 4.61888 36.6578 5.61155 40.6553 9.80168C44.7799 14.1778 45.2444 20.7008 42.0535 25.5368C37.6581 32.2128 28.1651 33.2188 22.4734 27.5261C18.6382 23.6922 17.527 17.5093 20.2974 12.4779C20.5574 12.0053 20.385 11.4113 19.9125 11.1514C19.4399 10.8916 18.8461 11.0638 18.5859 11.5363C18.5261 11.6452 18.4196 11.8482 18.317 12.0563H18.3171C15.4765 17.8467 16.7688 24.5856 21.0923 28.9074C27.6497 35.4662 38.603 34.3303 43.6845 26.6118C47.3287 21.0885 46.8817 13.5596 42.0728 8.45755Z" fill="white"/>
<path d="M44.5739 5.42643C37.3385 -1.80803 25.5651 -1.80832 18.3293 5.42653C11.8227 11.9341 11.1222 22.1369 16.421 29.4359L13.3773 32.4788C12.3102 31.9681 10.9608 32.1329 10.0419 33.052L1.43231 41.6625C-0.476574 43.5701 -0.478136 46.6594 1.43182 48.568C3.33992 50.4774 6.42908 50.4782 8.33757 48.5682L16.9484 39.9585C17.8669 39.0397 18.0324 37.6903 17.5214 36.6231L20.5647 33.5792C27.8653 38.8791 38.0673 38.1768 44.5739 31.671C51.8087 24.4354 51.8087 12.6622 44.5739 5.42643ZM15.567 38.5772L6.95603 47.1872C5.8116 48.3325 3.95906 48.3336 2.81307 47.1867C1.66756 46.0421 1.66688 44.1895 2.81326 43.0439L11.423 34.4332C11.8036 34.0525 12.4232 34.0523 12.8038 34.4332L15.567 37.1964C15.9478 37.577 15.9478 38.1966 15.567 38.5772ZM16.2577 35.1244L14.876 33.7428L17.6574 30.9621C17.8755 31.2042 18.0997 31.4415 18.3293 31.671C18.5588 31.9006 18.796 32.1248 19.0383 32.3431L16.2577 35.1244ZM43.1926 30.2898C36.7202 36.7611 26.2361 36.8162 19.7104 30.2898C13.1925 23.7726 13.2313 13.2879 19.7104 6.80777C26.1839 0.335131 36.718 0.334057 43.1925 6.80777C49.6656 13.2818 49.6656 23.8158 43.1926 30.2898Z" fill="white"/>
<path d="M22.4968 8.21345C22.49 8.20466 22.4822 8.19685 22.4734 8.18806C22.0915 7.8071 21.4732 7.8071 21.0914 8.18806C20.7104 8.57 20.7104 9.18826 21.0914 9.57009C21.1002 9.57888 21.108 9.5867 21.1168 9.59451C21.5007 9.95105 22.1004 9.94226 22.4734 9.57009C22.8455 9.19695 22.8543 8.59724 22.4968 8.21345Z" fill="white"/>
</g>
<defs>
<clipPath id="clip0">
<rect width="50" height="50" fill="white"/>
</clipPath>
</defs>
</svg>
