<svg width="51" height="50" viewBox="0 0 51 50" fill="none" xmlns="http://www.w3.org/2000/svg">
<g clip-path="url(#clip0)">
<path d="M39.812 25.4447C40.2164 25.4447 40.5444 25.117 40.5444 24.7123V23.0677C40.5444 22.663 40.2164 22.3353 39.812 22.3353C39.4073 22.3353 39.0796 22.663 39.0796 23.0677V24.7123C39.0796 25.117 39.4073 25.4447 39.812 25.4447Z" fill="#FF5858"/>
<path d="M47.9743 25.5692H45.9643C45.4497 23.5543 44.509 21.6378 43.2235 19.9944C41.9284 18.3392 40.277 16.951 38.4277 15.9596V10.6446C38.4277 10.2006 38.2362 9.7779 37.902 9.48493C37.569 9.19273 37.1265 9.05807 36.6874 9.11567C33.8058 9.49676 31.4288 11.456 30.4904 14.172H29.7176C29.7294 14.0061 29.7355 13.8394 29.7355 13.6712C29.7355 9.96673 26.7227 6.95312 23.019 6.95312C19.3145 6.95312 16.3009 9.96673 16.3009 13.6712C16.3009 14.1842 16.3604 14.6901 16.4741 15.1803C13.7981 16.2034 11.4738 17.9425 9.72137 20.2404C9.47608 20.562 9.53788 21.0217 9.85984 21.267C9.99221 21.3681 10.1482 21.4169 10.3031 21.4169C10.524 21.4169 10.7418 21.3177 10.8864 21.1289C12.4645 19.0594 14.5538 17.4908 16.9594 16.5631C17.2867 17.2467 17.7276 17.8742 18.2651 18.4151C18.1884 18.4346 18.1122 18.4552 18.0359 18.4762C17.646 18.5841 17.4175 18.9873 17.5251 19.3776C17.6151 19.7018 17.9096 19.9147 18.2308 19.9147C18.2953 19.9147 18.3613 19.9059 18.4265 19.888C18.9693 19.7377 19.5263 19.6305 20.0817 19.5691C20.9175 19.4771 20.4322 19.505 28.926 19.5042C29.3308 19.5042 29.6584 19.1765 29.6584 18.7718C29.6584 18.3674 29.3308 18.0394 28.926 18.0394H28.1276C28.7296 17.3386 29.1782 16.5219 29.4464 15.6369H31.0321C31.3644 15.6369 31.6551 15.4133 31.7401 15.0921C32.3818 12.6717 34.399 10.896 36.8785 10.5683C36.8865 10.5668 36.9109 10.5641 36.9361 10.5862C36.954 10.6019 36.9628 10.6213 36.9628 10.645V16.4055C36.9628 16.6836 37.12 16.9377 37.3691 17.0613C41.0808 18.9068 43.809 22.4183 44.6673 26.4546C44.7391 26.7926 45.0377 27.0344 45.3837 27.0344H47.9743C48.3481 27.0344 48.6522 27.3384 48.6522 27.7119V33.1329C48.6522 33.506 48.3481 33.8097 47.9743 33.8097H45.1667C44.6059 33.8097 44.1001 34.1438 43.8777 34.6626C43.6599 35.1738 43.4081 35.6781 43.1289 36.1607C42.9259 36.5105 43.0453 36.9587 43.3955 37.1613C43.5111 37.2284 43.6374 37.2601 43.7617 37.2601C44.0146 37.2601 44.2607 37.1288 44.3961 36.8946C44.699 36.372 44.9725 35.8265 45.209 35.2745H47.9743C49.1557 35.2745 50.117 34.314 50.117 33.1329V27.7119C50.117 26.5305 49.1557 25.5692 47.9743 25.5692ZM20.1736 18.0878C18.6828 17.1242 17.7654 15.4526 17.7654 13.6712C17.7654 10.7747 20.1221 8.41835 23.0186 8.41835C25.9147 8.41835 28.2707 10.7747 28.2707 13.6712C28.2707 14.0236 28.2363 14.3696 28.1696 14.7057C28.1608 14.7378 28.1539 14.7706 28.1494 14.8041C27.8629 16.1187 27.0816 17.2749 25.9357 18.0394C21.3932 18.0546 21.1048 18.0043 20.1736 18.0878Z" fill="#FF5858"/>
<path d="M42.4193 38.4894C42.121 38.2167 41.6575 38.2373 41.3847 38.536C40.7217 39.2608 39.9794 39.9161 39.1783 40.4834C38.991 40.6157 38.8766 40.8282 38.8693 41.0575C38.8178 42.6673 38.6557 44.4602 38.3875 46.3858C38.2166 47.6134 37.1561 48.535 35.9175 48.535H35.9042C34.6907 48.5285 33.644 47.6035 33.4467 46.3732C33.3159 45.4295 33.2102 44.5147 33.132 43.6537C33.0901 43.1987 33.0554 42.7581 33.0283 42.3438C32.9997 41.8959 32.9787 41.4576 32.9653 41.0411C32.9527 40.6367 32.6106 40.3167 32.2104 40.3323C31.806 40.3449 31.4887 40.6833 31.5013 41.0872C31.515 41.5194 31.5367 41.9738 31.5665 42.4376C31.5779 42.6158 31.5909 42.7985 31.6054 42.9847C31.5005 42.9869 31.396 42.9885 31.2926 42.9885H21.7749C21.2855 42.9885 20.7774 42.9599 20.2639 42.9034C20.0683 42.8817 19.8722 42.94 19.72 43.0648C19.5678 43.1891 19.472 43.3699 19.4545 43.566C19.3728 44.4758 19.2634 45.4245 19.1295 46.3858C18.9589 47.6111 17.8973 48.535 16.6598 48.535C15.4227 48.535 14.3607 47.6111 14.1902 46.3858C14.1872 46.3656 14.1845 46.3454 14.1818 46.3252C14.1807 46.3179 14.1795 46.3103 14.1788 46.303C14.1776 46.2962 14.1769 46.2893 14.1757 46.2824C14.0307 45.2262 13.8637 43.804 13.7683 42.2988C13.5799 39.2592 13.7897 37.4305 13.9712 36.4936C14.0479 36.0965 13.7885 35.7123 13.3914 35.6353C12.9939 35.5586 12.6098 35.818 12.5331 36.2151C12.3614 37.1013 12.2707 38.0862 12.2386 39.1124C9.60075 36.5546 8.10921 33.0741 8.09929 29.3498C8.09891 29.2895 8.09929 29.2297 8.10005 29.1694C8.10005 29.169 8.10005 29.1686 8.10005 29.1682C8.10005 29.1614 8.10005 29.1545 8.10005 29.1476C8.12332 27.2319 8.5479 25.3787 9.36424 23.6362C9.5359 23.2696 9.37797 22.8336 9.01176 22.6619C8.64517 22.4906 8.20954 22.6486 8.03787 23.0148C7.2345 24.7298 6.77292 26.5418 6.66115 28.4129C4.54973 28.4465 3.06543 28.8951 2.02059 29.8057C0.97193 30.722 0.553077 32.0293 0.928061 33.2183C1.48768 34.9921 3.54761 35.5872 4.79806 34.3112C5.24552 33.8546 5.45915 33.2572 5.38438 32.6716C5.33288 32.2703 4.96667 31.9873 4.56498 32.038C4.16368 32.0891 3.87987 32.4561 3.93136 32.8574C3.95654 33.0535 3.81425 33.2225 3.75207 33.2858C3.58766 33.4537 3.35458 33.5486 3.15889 33.5277C2.7717 33.4861 2.46042 33.2057 2.32538 32.7777C2.12511 32.1429 2.37154 31.4445 2.9838 30.9096C3.73872 30.2512 4.93959 29.9125 6.64475 29.8789C6.80497 34.2616 8.82217 38.2987 12.242 41.0716C12.2981 42.8771 12.4889 44.792 12.7391 46.5876C13.0099 48.5331 14.6956 49.9999 16.6598 49.9999C18.624 49.9999 20.3093 48.5331 20.5802 46.5876C20.682 45.856 20.7702 45.1308 20.843 44.4236C21.1581 44.4434 21.4694 44.4533 21.7749 44.4533H31.2922C31.4391 44.4533 31.5875 44.451 31.7366 44.4468C31.8068 45.1243 31.8907 45.8186 31.9872 46.5178C31.9903 46.5407 31.9937 46.564 31.9975 46.5869V46.5876C31.9987 46.5949 31.9998 46.6021 32.001 46.6094C32.3123 48.5385 33.9709 49.9896 35.8962 49.9999C35.9034 49.9999 35.9103 50.0002 35.9175 49.9999C37.8832 49.9999 39.5666 48.5365 39.8383 46.588C40.0938 44.7524 40.2556 43.0308 40.32 41.4641C41.094 40.8877 41.8143 40.2366 42.4654 39.5243C42.7386 39.2257 42.718 38.7626 42.4193 38.4894Z" fill="#FF5858"/>
<path d="M23.5245 12.9382H22.5124C22.2908 12.9382 22.1104 12.7578 22.1104 12.5362C22.1104 12.3149 22.2908 12.1345 22.5124 12.1345H24.4491C24.8539 12.1345 25.1816 11.8068 25.1816 11.4021C25.1816 10.9977 24.8539 10.6696 24.4491 10.6696H23.8598V10.3073C23.8598 9.90251 23.5321 9.57483 23.1273 9.57483C22.723 9.57483 22.3949 9.90251 22.3949 10.3073V10.6735C21.4203 10.7341 20.6455 11.5466 20.6455 12.5366C20.6455 13.5658 21.4828 14.4031 22.5124 14.4031H23.5245C23.7457 14.4031 23.9261 14.5835 23.9261 14.8048C23.9261 15.0264 23.7457 15.2065 23.5245 15.2065H21.5874C21.183 15.2065 20.8549 15.5345 20.8549 15.9389C20.8549 16.3436 21.183 16.6713 21.5874 16.6713H22.3949V17.0341C22.3949 17.4384 22.723 17.7665 23.1273 17.7665C23.5321 17.7665 23.8598 17.4384 23.8598 17.0341V16.6412C24.7295 16.4829 25.391 15.7195 25.391 14.8048C25.391 13.7756 24.5537 12.9382 23.5245 12.9382Z" fill="#FF5858"/>
<path d="M9.80275 13.435C13.5068 13.435 16.5204 10.4218 16.5204 6.7173C16.5204 3.01323 13.5068 0 9.80275 0C8.45692 0 7.15802 0.396729 6.04642 1.14784C5.71111 1.37405 5.62299 1.82915 5.84958 2.16446C6.07579 2.49977 6.53127 2.58789 6.86658 2.36168C7.7348 1.77498 8.75027 1.46484 9.80275 1.46484C12.6992 1.46484 15.0556 3.82118 15.0556 6.7173C15.0556 9.6138 12.6992 11.9701 9.80275 11.9701C6.90663 11.9701 4.55029 9.6138 4.55029 6.7173C4.55029 5.8773 4.74255 5.07507 5.12135 4.33273C5.30522 3.97263 5.16255 3.53127 4.80206 3.3474C4.44196 3.16353 4.00098 3.3062 3.81673 3.66669C3.33836 4.60358 3.08545 5.65872 3.08545 6.7173C3.08545 10.4218 6.09868 13.435 9.80275 13.435Z" fill="#FF5858"/>
<path d="M9.91164 2.62183C9.50728 2.62183 9.17921 2.94951 9.17921 3.35425V3.72046C8.20456 3.78111 7.43018 4.59364 7.43018 5.58356C7.43018 6.61276 8.26712 7.45009 9.29671 7.45009H10.3087C10.53 7.45009 10.7104 7.63014 10.7104 7.85178C10.7104 8.07341 10.53 8.25346 10.3087 8.25346H8.37202C7.96729 8.25346 7.6396 8.58115 7.6396 8.98589C7.6396 9.39062 7.96729 9.71831 8.37202 9.71831H9.1796V10.0807C9.1796 10.4854 9.50728 10.8131 9.91202 10.8131C10.3164 10.8131 10.6444 10.4854 10.6444 10.0807V9.68817C11.5138 9.52986 12.1753 8.76654 12.1753 7.85178C12.1753 6.82257 11.338 5.98524 10.3087 5.98524H9.29671C9.07507 5.98524 8.89502 5.80481 8.89502 5.58356C8.89502 5.36192 9.07507 5.18187 9.29671 5.18187H11.2334C11.6382 5.18187 11.9659 4.85381 11.9659 4.44945C11.9659 4.04471 11.6382 3.71703 11.2334 3.71703H10.6444V3.35425C10.6441 2.94951 10.3164 2.62183 9.91164 2.62183Z" fill="#FF5858"/>
</g>
<defs>
<clipPath id="clip0">
<rect width="50" height="50" fill="white" transform="translate(0.5)"/>
</clipPath>
</defs>
</svg>
