<svg width="71" height="70" viewBox="0 0 71 70" fill="none" xmlns="http://www.w3.org/2000/svg">
<path d="M63.6641 0H7.33594C3.5666 0 0.5 3.0666 0.5 6.83594V63.1641C0.5 66.9334 3.5666 70 7.33594 70H63.6641C67.4334 70 70.5 66.9334 70.5 63.1641V6.83594C70.5 3.0666 67.4334 0 63.6641 0ZM67.7656 63.1641C67.7656 65.4257 65.9257 67.2656 63.6641 67.2656H7.33594C5.07434 67.2656 3.23438 65.4257 3.23438 63.1641V12.5712C3.27949 12.5757 3.32529 12.5781 3.37164 12.5781H67.7656V63.1641ZM67.7656 9.84375H3.37164C3.32529 9.84375 3.27949 9.84621 3.23438 9.85072V6.83594C3.23438 4.57434 5.07434 2.73438 7.33594 2.73438H63.6641C65.9257 2.73438 67.7656 4.57434 67.7656 6.83594V9.84375Z" fill="#FF5858"/>
</svg>
