<svg width="18" height="18" viewBox="0 0 18 16" fill="none" xmlns="http://www.w3.org/2000/svg">
<path d="M7.23131 3.21551C7.68145 3.02674 7.87022 2.48948 7.66693 2.05386L6.95541 0.558223C6.75212 0.137268 6.25842 -0.0516459 5.8228 0.137268C4.58854 0.660013 3.52853 1.34249 2.68633 2.17017C1.65536 3.14291 0.958366 4.261 0.580828 5.49526C0.20329 6.74419 0 8.44296 0 10.6065V15.0644C0 15.5436 0.392059 15.9356 0.871242 15.9356H6.57788C7.05706 15.9356 7.44912 15.5436 7.44912 15.0644V9.35777C7.44912 8.87844 7.05706 8.48652 6.57788 8.48652H3.84798C3.87703 7.01979 4.22552 5.84376 4.86443 4.95785C5.38718 4.24663 6.1713 3.6658 7.23131 3.21551Z" fill="#FF5858"/>
<path d="M17.4829 3.21557C17.933 3.0268 18.1217 2.48954 17.9185 2.05392L17.207 0.572952C17.0037 0.151852 16.51 -0.0369171 16.0744 0.151852C14.8547 0.674597 13.809 1.35707 12.9524 2.17023C11.9213 3.15764 11.21 4.27573 10.8323 5.50999C10.4547 6.72958 10.2661 8.42865 10.2661 10.6068V15.0646C10.2661 15.5438 10.6582 15.9358 11.1374 15.9358H16.844C17.3232 15.9358 17.7152 15.5438 17.7152 15.0646V9.35797C17.7152 8.87864 17.3232 8.48673 16.844 8.48673H14.0996C14.1286 7.02 14.4773 5.84396 15.116 4.95806C15.6388 4.24669 16.4229 3.66586 17.4829 3.21557Z" fill="#FF5858"/>
</svg>
