<svg width="50" height="50" viewBox="0 0 50 50" fill="none" xmlns="http://www.w3.org/2000/svg">
<path d="M40.512 25.7324H42.6895C43.0303 27.4185 44.5232 28.6919 46.3082 28.6919C48.3438 28.6919 50 27.0357 50 25C50 22.9643 48.3438 21.3081 46.3081 21.3081C44.5231 21.3081 43.0302 22.5815 42.6895 24.2676H40.5119C40.3378 20.5368 38.8417 17.1458 36.4816 14.5541L40.4039 10.6319C41.176 11.1941 42.1253 11.5271 43.1514 11.5271C45.7311 11.5271 47.8297 9.42832 47.8297 6.84863C47.8297 4.26895 45.7311 2.17031 43.1514 2.17031C40.5717 2.17031 38.473 4.26904 38.473 6.84863C38.473 7.87471 38.8059 8.82402 39.3682 9.59609L35.4459 13.5183C32.8542 11.1583 29.4632 9.66211 25.7324 9.48809V7.31055C27.4185 6.96982 28.6919 5.47686 28.6919 3.69189C28.6919 1.65615 27.0357 0 25 0C22.9643 0 21.3081 1.65615 21.3081 3.69189C21.3081 5.47686 22.5815 6.96982 24.2676 7.31055V9.48799C20.5368 9.66211 17.1458 11.1582 14.5541 13.5182L10.6321 9.59629C11.1944 8.82412 11.5273 7.87471 11.5273 6.84863C11.5273 5.29082 10.7558 3.84014 9.46338 2.96807C9.12783 2.74189 8.67266 2.83018 8.44658 3.16553C8.22031 3.50088 8.30869 3.95605 8.64395 4.18232C9.53223 4.78164 10.0624 5.77842 10.0624 6.84863C10.0624 8.6207 8.62061 10.0625 6.84854 10.0625C5.07646 10.0625 3.63477 8.6207 3.63477 6.84863C3.63477 5.41758 4.59521 4.14561 5.97041 3.75547C6.35957 3.64502 6.58555 3.24004 6.4751 2.85088C6.36465 2.46172 5.95947 2.23604 5.57061 2.34619C3.56826 2.91436 2.16992 4.76582 2.16992 6.84863C2.16992 9.42852 4.26875 11.5273 6.84863 11.5273C7.8748 11.5273 8.82422 11.1944 9.59629 10.6321L13.5183 14.554C11.1582 17.1457 9.66211 20.5367 9.48799 24.2675H7.31055C6.96982 22.5814 5.47686 21.308 3.69189 21.308C1.65615 21.3081 0 22.9643 0 25C0 27.0357 1.65615 28.6919 3.69189 28.6919C5.47686 28.6919 6.96982 27.4185 7.31055 25.7324H9.48809C9.66221 29.4632 11.1583 32.8542 13.5184 35.4459L9.59609 39.3681C8.82402 38.8059 7.87471 38.4729 6.84863 38.4729C4.26895 38.4729 2.17031 40.5717 2.17031 43.1514C2.17031 45.7311 4.26895 47.8297 6.84863 47.8297C9.42832 47.8297 11.527 45.731 11.527 43.1514C11.527 42.1253 11.1941 41.176 10.6318 40.4039L14.5541 36.4817C17.1458 38.8417 20.5368 40.3379 24.2676 40.5119V42.6894C22.5815 43.0301 21.3081 44.523 21.3081 46.308C21.3081 48.3438 22.9643 50 25 50C27.0357 50 28.6919 48.3438 28.6919 46.3081C28.6919 44.5231 27.4185 43.0302 25.7324 42.6895V40.512C29.4632 40.3379 32.8542 38.8418 35.4459 36.4818L39.3679 40.4037C38.8056 41.1759 38.4727 42.1253 38.4727 43.1514C38.4727 45.7312 40.5715 47.8301 43.1514 47.8301C45.7313 47.8301 47.8301 45.7313 47.8301 43.1514C47.8301 42.6449 47.7494 42.1462 47.5903 41.6687C47.4623 41.2851 47.0474 41.0776 46.664 41.2055C46.2802 41.3334 46.0728 41.7481 46.2007 42.1319C46.3099 42.4596 46.3653 42.8026 46.3653 43.1513C46.3653 44.9233 44.9235 46.3651 43.1515 46.3651C41.3794 46.3651 39.9376 44.9234 39.9376 43.1513C39.9376 41.3791 41.3794 39.9374 43.1515 39.9374C43.557 39.9374 43.9525 40.012 44.327 40.1592C44.703 40.3071 45.1285 40.1219 45.2766 39.7454C45.4245 39.3689 45.2393 38.9438 44.8628 38.7958C44.317 38.5813 43.7413 38.4726 43.1516 38.4726C42.1254 38.4726 41.176 38.8055 40.4039 39.3678L36.4819 35.4459C38.8417 32.8542 40.3379 29.4632 40.512 25.7324ZM46.3081 22.7729C47.5361 22.7729 48.5352 23.772 48.5352 25C48.5352 26.228 47.5361 27.2271 46.3081 27.2271C45.0801 27.2271 44.0811 26.228 44.0811 25C44.0811 23.772 45.0802 22.7729 46.3081 22.7729ZM43.1514 3.63516C44.9233 3.63516 46.3648 5.07676 46.3648 6.84863C46.3648 8.62061 44.9232 10.0622 43.1514 10.0622C41.3795 10.0622 39.9379 8.62061 39.9379 6.84863C39.9379 5.07666 41.3795 3.63516 43.1514 3.63516ZM22.7729 3.69189C22.7729 2.46387 23.7721 1.46484 25 1.46484C26.2279 1.46484 27.2271 2.46387 27.2271 3.69189C27.2271 4.91992 26.2279 5.91895 25 5.91895C23.7721 5.91895 22.7729 4.91982 22.7729 3.69189ZM3.69189 27.2271C2.46387 27.2271 1.46484 26.228 1.46484 25C1.46484 23.772 2.46387 22.7729 3.69189 22.7729C4.91992 22.7729 5.91885 23.772 5.91885 25C5.91885 26.228 4.91982 27.2271 3.69189 27.2271ZM25 10.9352C32.7554 10.9352 39.0648 17.2446 39.0648 25C39.0648 32.7554 32.7554 39.0648 25 39.0648C17.2446 39.0648 10.9352 32.7555 10.9352 25C10.9352 17.2445 17.2446 10.9352 25 10.9352ZM6.84863 46.3648C5.07666 46.3648 3.63516 44.9232 3.63516 43.1514C3.63516 41.3794 5.07676 39.9378 6.84863 39.9378C8.62051 39.9378 10.0621 41.3794 10.0621 43.1514C10.0621 44.9233 8.62051 46.3648 6.84863 46.3648ZM27.2271 46.3081C27.2271 47.5361 26.2279 48.5352 25 48.5352C23.7721 48.5352 22.7729 47.5361 22.7729 46.3081C22.7729 45.0801 23.7721 44.0811 25 44.0811C26.2279 44.0811 27.2271 45.0802 27.2271 46.3081Z" fill="#FF5858"/>
<path d="M16.7137 34.0186H20.8499C20.8522 34.0186 20.8543 34.0189 20.8565 34.0189C20.8588 34.0189 20.8609 34.0186 20.8632 34.0186H23.2908C23.6954 34.0186 24.0232 33.6907 24.0232 33.2862C24.0232 32.8817 23.6954 32.5538 23.2908 32.5538H21.589V31.3136C21.589 30.9091 21.2611 30.5811 20.8565 30.5811C20.452 30.5811 20.1241 30.9091 20.1241 31.3136V32.5538H17.4461V28.9464C17.4461 27.1743 18.8874 25.7325 20.6589 25.7325H29.3405C31.1121 25.7325 32.5533 27.1743 32.5533 28.9464V32.5538H29.8753V31.3136C29.8753 30.9091 29.5475 30.5811 29.1429 30.5811C28.7383 30.5811 28.4105 30.9091 28.4105 31.3136V32.5538H26.7088C26.3042 32.5538 25.9764 32.8817 25.9764 33.2862C25.9764 33.6907 26.3042 34.0186 26.7088 34.0186H29.1364C29.1387 34.0186 29.1408 34.0189 29.1431 34.0189C29.1453 34.0189 29.1475 34.0186 29.1497 34.0186H33.2859C33.6905 34.0186 34.0184 33.6907 34.0184 33.2862V28.9464C34.0184 26.3665 31.92 24.2677 29.3407 24.2677H28.797C29.9433 23.2304 30.6648 21.7317 30.6648 20.0677C30.6648 16.944 28.1235 14.4028 24.9999 14.4028C21.8763 14.4028 19.3351 16.944 19.3351 20.0677C19.3351 21.7317 20.0565 23.2304 21.2028 24.2677H20.6591C18.0798 24.2677 15.9814 26.3665 15.9814 28.9464V33.2862C15.9813 33.6907 16.3092 34.0186 16.7137 34.0186ZM20.7998 20.0677C20.7998 17.7519 22.6839 15.8677 24.9998 15.8677C27.3157 15.8677 29.1998 17.7518 29.1998 20.0677C29.1998 22.3836 27.3157 24.2677 24.9998 24.2677C22.6839 24.2677 20.7998 22.3836 20.7998 20.0677Z" fill="#FF5858"/>
</svg>
