<svg width="50" height="50" viewBox="0 0 50 50" fill="none" xmlns="http://www.w3.org/2000/svg">
<path d="M40.893 27.3099L35.2387 22.4808V1.72871C35.2387 0.791699 34.4763 0.0292969 33.5393 0.0292969H22.4981C22.0959 0.0292969 21.7698 0.355371 21.7698 0.757617C21.7698 1.15986 22.0959 1.48594 22.4981 1.48594H33.5393C33.6732 1.48594 33.782 1.59482 33.782 1.72871V29.5727C33.782 29.9749 34.1081 30.301 34.5104 30.301C34.9126 30.301 35.2387 29.9749 35.2387 29.5727V24.3964L39.9469 28.4175C39.9654 28.4333 39.9754 28.4559 39.9777 28.4798L30.0959 36.9237L26.7131 34.0331C25.6494 33.1243 24.1054 33.1243 23.0417 34.0331L19.6589 36.9237L15.9728 33.774V1.72871C15.9728 1.59482 16.0816 1.48594 16.2155 1.48594H19.1178C19.52 1.48594 19.8461 1.15986 19.8461 0.757617C19.8461 0.355371 19.52 0.0292969 19.1178 0.0292969H16.2154C15.2784 0.0292969 14.516 0.791699 14.516 1.72871V22.4808L8.86172 27.31C8.51641 27.605 8.31836 28.0346 8.31836 28.4887C8.31836 28.4887 8.31973 48.1853 8.32217 48.2098C8.36172 49.2032 9.18008 49.9999 10.1831 49.9999H39.5716C40.5746 49.9999 41.393 49.2032 41.4326 48.2098C41.4352 48.1853 41.4364 28.4887 41.4364 28.4887C41.4364 28.0345 41.2384 27.6049 40.893 27.3099ZM39.9797 30.3942V45.3692L31.2171 37.8817L39.9797 30.3942ZM14.516 24.3963V32.5293L9.77686 28.4798C9.7792 28.4559 9.78926 28.4333 9.80772 28.4175L14.516 24.3963ZM39.5716 48.5433H10.1831C9.95811 48.5433 9.775 48.3602 9.775 48.1352V47.2853L12.6783 44.8044C12.9842 44.5431 13.0202 44.0833 12.7589 43.7775C12.4977 43.4717 12.0378 43.4357 11.732 43.697L9.775 45.3692V30.3942L18.5376 37.8817L14.1756 41.609C13.8698 41.8703 13.8337 42.3301 14.095 42.6358C14.3564 42.9417 14.8161 42.9777 15.1219 42.7164L23.9879 35.1405C24.5033 34.7002 25.2515 34.7002 25.7668 35.1405L39.9797 47.2853V48.1352C39.9797 48.3602 39.7967 48.5433 39.5716 48.5433Z" fill="#FF5858"/>
<path d="M31.3656 6.62383C31.3656 6.22158 31.0396 5.89551 30.6373 5.89551H19.118C18.7157 5.89551 18.3896 6.22158 18.3896 6.62383V14.0709C18.3896 14.4731 18.7157 14.7992 19.118 14.7992H30.6373C31.0396 14.7992 31.3656 14.4731 31.3656 14.0709V6.62383ZM19.8463 7.96191L23.5361 10.3474L19.8463 12.7328V7.96191ZM21.5861 7.35215H28.1692L24.8776 9.48008L21.5861 7.35215ZM24.8776 11.2146L28.1692 13.3425H21.5861L24.8776 11.2146ZM26.2191 10.3474L29.909 7.96191V12.7327L26.2191 10.3474Z" fill="#FF5858"/>
<path d="M19.118 18.5321H25.9173C26.3195 18.5321 26.6456 18.206 26.6456 17.8038C26.6456 17.4015 26.3195 17.0754 25.9173 17.0754H19.118C18.7157 17.0754 18.3896 17.4015 18.3896 17.8038C18.3896 18.206 18.7157 18.5321 19.118 18.5321Z" fill="#FF5858"/>
<path d="M19.118 21.2877H25.9173C26.3195 21.2877 26.6456 20.9616 26.6456 20.5594C26.6456 20.1571 26.3195 19.8311 25.9173 19.8311H19.118C18.7157 19.8311 18.3896 20.1571 18.3896 20.5594C18.3896 20.9616 18.7157 21.2877 19.118 21.2877Z" fill="#FF5858"/>
<path d="M31.3116 23.4285C31.3116 23.0263 30.9855 22.7002 30.5833 22.7002H19.118C18.7157 22.7002 18.3896 23.0263 18.3896 23.4285C18.3896 23.8308 18.7157 24.1568 19.118 24.1568H30.5833C30.9855 24.1568 31.3116 23.8307 31.3116 23.4285Z" fill="#FF5858"/>
<path d="M19.118 25.4556C18.7157 25.4556 18.3896 25.7816 18.3896 26.1839C18.3896 26.5861 18.7157 26.9122 19.118 26.9122H22.5177C22.9199 26.9122 23.246 26.5861 23.246 26.1839C23.246 25.7816 22.9199 25.4556 22.5177 25.4556H19.118Z" fill="#FF5858"/>
<path d="M8.02005 7.58155C8.01878 7.58155 8.01761 7.58155 8.01634 7.58155C7.61585 7.58155 7.29007 7.90528 7.28811 8.30625L7.28802 8.33448C6.89553 8.09424 6.43977 7.96094 5.94182 7.96094C4.28186 7.96094 2.98157 9.43077 2.98157 11.307C2.98157 13.2147 4.28411 14.7666 5.88509 14.7666C6.52444 14.7666 7.10794 14.5213 7.57815 14.1024C7.66214 14.2401 7.75989 14.3692 7.87405 14.484C8.22835 14.84 8.68587 15.036 9.16253 15.036C10.5034 15.036 11.3512 14.1058 11.6973 13.2353C12.2203 11.9202 12.3139 10.8101 12.0005 9.63594C11.9985 9.62833 11.9963 9.62081 11.9941 9.61329C11.5212 8.04668 10.4633 6.76387 9.01536 6.00127C7.5676 5.23877 5.91077 5.09239 4.35032 5.58916C2.87151 6.05996 1.64134 7.07471 0.886356 8.44649C0.131083 9.81876 -0.0674525 11.401 0.327176 12.9018C1.00823 15.4914 3.35032 17.3518 6.02249 17.4257C6.02932 17.4259 6.03616 17.426 6.043 17.426C6.43587 17.426 6.75979 17.113 6.77063 16.7178C6.78176 16.3157 6.46477 15.9807 6.06272 15.9695C4.03274 15.9134 2.25354 14.4995 1.73587 12.5313C1.11243 10.1608 2.45491 7.72129 4.79221 6.97725C5.97796 6.59991 7.23675 6.71104 8.33655 7.29024C9.43235 7.86729 10.2707 8.82598 10.5952 10.0202C10.8215 10.853 10.7113 11.9878 10.3438 12.697C9.86106 13.6284 8.73186 13.9259 8.72151 12.9924L8.74466 8.31358C8.74671 7.91123 8.42219 7.5836 8.02005 7.58155ZM5.88509 13.31C5.18636 13.31 4.43821 12.5052 4.43821 11.307C4.43821 10.1243 5.20266 9.41758 5.94173 9.41758C6.71389 9.41758 7.25579 10.1635 7.27356 11.2372C7.32093 12.2293 6.65843 13.3258 5.88509 13.31Z" fill="#FF5858"/>
<path d="M38.7265 8.22522C39.0772 8.41262 39.5736 8.52112 40.1346 8.22522L44.9804 5.42747C45.4213 5.17297 45.6844 4.71711 45.6844 4.20803C45.6844 3.69895 45.4212 3.24309 44.9804 2.9886L40.1346 0.190942C39.6937 -0.0636475 39.1673 -0.0636475 38.7265 0.190942C38.2856 0.445435 38.0225 0.901294 38.0225 1.41038V7.00579C38.0225 7.51487 38.2856 7.97073 38.7265 8.22522ZM39.4791 1.49456L44.1791 4.20813L39.4791 6.9217V1.49456Z" fill="#FF5858"/>
<path d="M49.1624 17.2843C49.0833 17.2087 48.9694 17.0998 48.9192 17.0345C48.9287 16.9491 48.9753 16.7882 49.0076 16.6767C49.1208 16.2858 49.2757 15.7506 48.9932 15.2623C48.7081 14.7696 48.163 14.6362 47.765 14.5389C47.6549 14.5119 47.496 14.473 47.4185 14.44C47.3854 14.3624 47.3465 14.2035 47.3195 14.0934C47.2222 13.6954 47.0889 13.1503 46.5961 12.8652C46.108 12.5828 45.5727 12.7376 45.1817 12.8508C45.0701 12.883 44.9092 12.9296 44.8238 12.9392C44.7585 12.889 44.6497 12.7751 44.574 12.696C44.2882 12.3972 43.8968 11.9878 43.319 11.9878C42.7413 11.9878 42.3499 12.3972 42.0641 12.696C41.9885 12.7751 41.8796 12.889 41.8143 12.9392C41.7289 12.9297 41.568 12.8831 41.4564 12.8508C41.0656 12.7376 40.5302 12.5827 40.0422 12.8651C39.5494 13.1502 39.4161 13.6953 39.3187 14.0933C39.2917 14.2034 39.2528 14.3624 39.2197 14.4399C39.1422 14.4729 38.9833 14.5119 38.8731 14.5388C38.4752 14.6361 37.9302 14.7694 37.645 15.2621C37.3625 15.7504 37.5175 16.2857 37.6306 16.6766C37.6629 16.7881 37.7095 16.9491 37.7189 17.0344C37.6688 17.0997 37.5549 17.2086 37.4758 17.2843C37.177 17.57 36.7676 17.9615 36.7676 18.5393C36.7676 19.117 37.177 19.5084 37.4758 19.7942C37.5549 19.8698 37.6687 19.9787 37.7189 20.044C37.7095 20.1294 37.6629 20.2903 37.6306 20.4019C37.5174 20.7927 37.3625 21.3279 37.6449 21.8162C37.93 22.3089 38.4751 22.4423 38.873 22.5396C38.9832 22.5666 39.1421 22.6055 39.2196 22.6385C39.2526 22.7161 39.2916 22.875 39.3186 22.9852C39.4159 23.3831 39.5492 23.9282 40.042 24.2133C40.5302 24.4958 41.0655 24.3409 41.4563 24.2277C41.5679 24.1955 41.7289 24.1489 41.8142 24.1394C41.8795 24.1895 41.9884 24.3034 42.064 24.3825C42.3498 24.6813 42.7412 25.0907 43.3189 25.0907C43.8966 25.0907 44.2881 24.6814 44.5739 24.3825C44.6495 24.3034 44.7584 24.1895 44.8237 24.1394C44.9091 24.1488 45.07 24.1954 45.1814 24.2277C45.5723 24.3409 46.1074 24.4958 46.5958 24.2133C47.0885 23.9282 47.2219 23.3832 47.3192 22.9853C47.3462 22.8751 47.3851 22.7161 47.4182 22.6386C47.4957 22.6055 47.6546 22.5666 47.7648 22.5396C48.1628 22.4423 48.7079 22.309 48.9929 21.8163C49.2754 21.328 49.1204 20.7927 49.0073 20.4019C48.975 20.2903 48.9284 20.1294 48.9189 20.044C48.9691 19.9787 49.083 19.8698 49.1621 19.7942C49.4609 19.5084 49.8703 19.117 49.8703 18.5393C49.8703 17.9615 49.4612 17.57 49.1624 17.2843ZM48.1557 18.7414C47.9011 18.9849 47.6125 19.2608 47.5054 19.6617C47.3957 20.072 47.5136 20.4794 47.6084 20.8068C47.6298 20.8808 47.6576 20.9769 47.6764 21.057C47.5959 21.0814 47.4958 21.106 47.4189 21.1247C47.0899 21.2052 46.6804 21.3054 46.3828 21.6029C46.0853 21.9005 45.9851 22.3101 45.9046 22.6391C45.8858 22.7158 45.8613 22.816 45.8369 22.8964C45.7567 22.8776 45.6606 22.8498 45.5868 22.8284C45.2594 22.7336 44.8518 22.6157 44.4417 22.7254C44.0408 22.8325 43.7648 23.1211 43.5214 23.3757C43.4624 23.4374 43.3842 23.5191 43.3192 23.5787C43.2542 23.5192 43.1761 23.4374 43.117 23.3757C42.8735 23.1211 42.5976 22.8324 42.1967 22.7254C42.0794 22.694 41.9623 22.6812 41.8472 22.6812C41.56 22.6812 41.2853 22.7607 41.0515 22.8283C40.9776 22.8497 40.8814 22.8775 40.8013 22.8963C40.7768 22.8158 40.7523 22.7157 40.7336 22.639C40.6531 22.3099 40.5529 21.9004 40.2554 21.6028C39.9579 21.3053 39.5483 21.2052 39.2193 21.1246C39.1426 21.1059 39.0424 21.0813 38.9619 21.0569C38.9807 20.9768 39.0085 20.8807 39.0299 20.8068C39.1247 20.4794 39.2427 20.072 39.133 19.6616C39.0259 19.2607 38.7373 18.9848 38.4827 18.7413C38.421 18.6822 38.3393 18.6041 38.2797 18.5392C38.3392 18.4742 38.4209 18.396 38.4827 18.337C38.7373 18.0936 39.0259 17.8176 39.133 17.4167C39.2427 17.0064 39.1248 16.599 39.03 16.2716C39.0086 16.1977 38.9808 16.1016 38.962 16.0214C39.0425 15.997 39.1427 15.9725 39.2194 15.9537C39.5485 15.8732 39.958 15.773 40.2556 15.4755C40.5531 15.1779 40.6533 14.7685 40.7338 14.4394C40.7525 14.3626 40.7771 14.2625 40.8015 14.182C40.8816 14.2008 40.9777 14.2286 41.0516 14.25C41.379 14.3448 41.7866 14.4627 42.1967 14.353C42.5976 14.2459 42.8735 13.9573 43.117 13.7027C43.176 13.641 43.2542 13.5593 43.3191 13.4997C43.3841 13.5592 43.4623 13.6409 43.5213 13.7027C43.7647 13.9573 44.0407 14.2459 44.4416 14.353C44.8518 14.4629 45.2593 14.3448 45.5867 14.25C45.6606 14.2286 45.7567 14.2008 45.8369 14.182C45.8614 14.2625 45.8858 14.3626 45.9046 14.4394C45.9851 14.7685 46.0853 15.1779 46.3828 15.4755C46.6803 15.773 47.0898 15.8731 47.4188 15.9537C47.4956 15.9725 47.5958 15.997 47.6763 16.0214C47.6575 16.1016 47.6297 16.1977 47.6083 16.2715C47.5135 16.5989 47.3956 17.0063 47.5053 17.4166C47.6124 17.8175 47.901 18.0934 48.1556 18.3369C48.2173 18.396 48.299 18.4741 48.3586 18.5391C48.2991 18.6042 48.2174 18.6824 48.1557 18.7414Z" fill="#FF5858"/>
<path d="M43.3188 15.6697C41.7365 15.6697 40.4492 16.957 40.4492 18.5392C40.4492 20.1214 41.7365 21.4087 43.3188 21.4087C44.901 21.4087 46.1883 20.1214 46.1883 18.5392C46.1883 16.957 44.9011 15.6697 43.3188 15.6697ZM43.3188 19.9521C42.5396 19.9521 41.9059 19.3183 41.9059 18.5392C41.9059 17.7601 42.5396 17.1263 43.3188 17.1263C44.0979 17.1263 44.7316 17.7601 44.7316 18.5392C44.7316 19.3183 44.0979 19.9521 43.3188 19.9521Z" fill="#FF5858"/>
</svg>
