<svg width="51" height="50" viewBox="0 0 51 50" fill="none" xmlns="http://www.w3.org/2000/svg">
<g clip-path="url(#clip0)">
<path d="M33.1265 31.5219C32.5978 31.5219 32.1691 31.9505 32.1691 32.4793V39.0855C32.1691 41.7251 30.0216 43.8726 27.382 43.8726H17.045C16.5164 43.8726 16.088 44.3008 16.0876 44.8293L16.0863 46.7328L13.8011 44.4478C13.6532 44.1082 13.3147 43.8726 12.9231 43.8726H6.7019C4.06231 43.8726 1.91483 41.7251 1.91483 39.0855V24.3413C1.91483 21.7017 4.06231 19.5542 6.7019 19.5542H16.3718C16.9005 19.5542 17.3292 19.1256 17.3292 18.5968C17.3292 18.068 16.9005 17.6394 16.3718 17.6394H6.7019C3.00647 17.6394 0 20.6459 0 24.3413V39.0855C0 42.7809 3.00647 45.7874 6.7019 45.7874H12.4328L16.365 49.7196C16.5481 49.9027 16.7929 50 17.0422 50C17.1654 50 17.2898 49.9762 17.408 49.9272C17.7658 49.7792 17.9991 49.4303 17.9994 49.0433L18.0017 45.7874H27.382C31.0775 45.7874 34.0839 42.7809 34.0839 39.0855V32.4793C34.0839 31.9505 33.6552 31.5219 33.1265 31.5219Z" fill="#FF5858"/>
<path d="M37.0648 0H34.6417C26.9686 0 20.7261 6.24253 20.7261 13.9156C20.7261 21.5887 26.9686 27.8312 34.6416 27.8312H37.0647C38.2624 27.8312 39.4477 27.679 40.5966 27.3784L44.1761 30.9559C44.3593 31.1388 44.604 31.2361 44.8531 31.2361C44.9765 31.2361 45.101 31.2123 45.2194 31.1632C45.5771 31.015 45.8103 30.6659 45.8103 30.2787V24.7395C47.3258 23.5122 48.5847 21.9618 49.4682 20.2299C50.4717 18.2628 50.9804 16.1384 50.9804 13.9156C50.9804 6.24253 44.7378 0 37.0648 0ZM44.2768 23.5079C44.0368 23.6887 43.8955 23.9719 43.8955 24.2727V27.9683L41.5526 25.6266C41.3703 25.4445 41.1258 25.3464 40.8757 25.3464C40.7819 25.3464 40.6871 25.3603 40.5946 25.3887C39.455 25.7389 38.2674 25.9164 37.0648 25.9164H34.6417C28.0243 25.9164 22.6409 20.5329 22.6409 13.9156C22.6409 7.29837 28.0244 1.91483 34.6417 1.91483H37.0648C43.6821 1.91483 49.0655 7.29837 49.0655 13.9156C49.0655 17.7195 47.3202 21.2158 44.2768 23.5079Z" fill="#FF5858"/>
<path d="M39.1843 10.4759C39.0462 8.47159 37.4305 6.85586 35.426 6.71771C34.2898 6.63968 33.2054 7.02293 32.3754 7.79776C31.5568 8.56188 31.0874 9.64203 31.0874 10.7613C31.0874 11.2901 31.5161 11.7188 32.0448 11.7188C32.5735 11.7188 33.0022 11.2901 33.0022 10.7613C33.0022 10.1621 33.2437 9.6067 33.682 9.1976C34.1199 8.78888 34.6923 8.58658 35.2945 8.62813C36.3503 8.70089 37.2013 9.55194 37.2741 10.6077C37.3476 11.674 36.6481 12.6162 35.6108 12.8483C34.7704 13.0364 34.1835 13.7667 34.1835 14.6242V16.9244C34.1835 17.4532 34.6122 17.8818 35.1409 17.8818C35.6697 17.8818 36.0983 17.4532 36.0982 16.9244V14.7007C38.0274 14.2347 39.3217 12.4694 39.1843 10.4759Z" fill="#FF5858"/>
<path d="M35.8179 20.0349C35.6398 19.8568 35.3928 19.7544 35.141 19.7544C34.8892 19.7544 34.6422 19.8568 34.4641 20.0349C34.286 20.213 34.1836 20.46 34.1836 20.7118C34.1836 20.9646 34.2861 21.2116 34.4641 21.3897C34.6422 21.5677 34.8892 21.6692 35.141 21.6692C35.3928 21.6692 35.6398 21.5677 35.8179 21.3897C35.996 21.2106 36.0984 20.9646 36.0984 20.7118C36.0984 20.46 35.9959 20.213 35.8179 20.0349Z" fill="#FF5858"/>
<path d="M26.3288 30.6602H6.12734C5.59865 30.6602 5.16992 31.0888 5.16992 31.6176C5.16992 32.1464 5.59865 32.575 6.12734 32.575H26.3288C26.8576 32.575 27.2862 32.1464 27.2862 31.6176C27.2862 31.0888 26.8575 30.6602 26.3288 30.6602Z" fill="#FF5858"/>
<path d="M27.0058 36.3023C26.8278 36.1242 26.5808 36.0217 26.329 36.0217C26.0772 36.0217 25.8302 36.1242 25.6521 36.3023C25.4739 36.4803 25.3716 36.7273 25.3716 36.9791C25.3716 37.2309 25.474 37.478 25.6521 37.656C25.8302 37.8341 26.0772 37.9366 26.329 37.9366C26.5808 37.9366 26.8278 37.8341 27.0058 37.656C27.184 37.478 27.2864 37.2319 27.2864 36.9791C27.2864 36.7273 27.1839 36.4803 27.0058 36.3023Z" fill="#FF5858"/>
<path d="M22.563 36.0217H6.12734C5.59865 36.0217 5.16992 36.4504 5.16992 36.9791C5.16992 37.5079 5.59865 37.9366 6.12734 37.9366H22.563C23.0918 37.9366 23.5204 37.5079 23.5204 36.9791C23.5204 36.4504 23.0917 36.0217 22.563 36.0217Z" fill="#FF5858"/>
<path d="M20.1056 25.2988H6.12734C5.59865 25.2988 5.16992 25.7275 5.16992 26.2562C5.16992 26.785 5.59865 27.2137 6.12734 27.2137H20.1056C20.6344 27.2137 21.063 26.785 21.063 26.2562C21.063 25.7275 20.6343 25.2988 20.1056 25.2988Z" fill="#FF5858"/>
</g>
<defs>
<clipPath id="clip0">
<rect width="50.9804" height="50" fill="white"/>
</clipPath>
</defs>
</svg>
