<svg width="50" height="46" viewBox="0 0 50 46" fill="none" xmlns="http://www.w3.org/2000/svg">
<path d="M47.3966 40.7173H46.1095C45.2165 38.5957 45.2161 36.5254 46.1085 34.4144H47.3966C48.8321 34.4144 50 33.2465 50 31.8109C50 30.3753 48.8321 29.2074 47.3966 29.2074H42.2171C42.8764 28.4542 43.2771 27.4696 43.2771 26.3923V18.2351C43.2771 15.8751 41.3573 13.9552 38.9975 13.9552H36.8913C37.07 13.599 37.1712 13.1973 37.1712 12.7723C37.1712 11.3107 35.9835 10.1215 34.5235 10.1215H33.799C33.1524 8.52319 33.1521 6.96206 33.798 5.37397H34.5235C35.9835 5.37397 37.1712 4.18481 37.1712 2.72319C37.1712 1.26323 35.9835 0.0754395 34.5235 0.0754395H9.81621C5.58496 0.0754395 2.14258 3.51655 2.14258 7.74624C2.14258 9.79175 2.94199 11.7176 4.39336 13.1691C4.68193 13.4577 4.98994 13.7193 5.31318 13.9551H4.746C3.31045 13.9551 2.14258 15.123 2.14258 16.5586C2.14258 17.9943 3.31045 19.1622 4.746 19.1622H6.03408C6.92647 21.273 6.92617 23.3433 6.03311 25.465H4.746C3.31045 25.465 2.14258 26.6329 2.14258 28.0685C2.14258 28.6177 2.31396 29.1274 2.60537 29.5478C1.07529 30.2006 0 31.7206 0 33.4873V41.6446C0 44.0045 1.91855 45.9244 4.27676 45.9244H47.3965C48.832 45.9244 49.9999 44.7565 49.9999 43.3209C50 41.8853 48.8321 40.7173 47.3966 40.7173ZM47.3966 30.6722C48.0244 30.6722 48.5352 31.1831 48.5352 31.8109C48.5352 32.4387 48.0244 32.9496 47.3966 32.9496H34.1781C33.7735 32.9496 33.4457 33.2775 33.4457 33.682C33.4457 34.0865 33.7735 34.4144 34.1781 34.4144H44.5373C44.2511 35.2183 44.0761 36.0253 44.01 36.8334C44.01 36.8334 43.7174 38.2832 44.5389 40.7173H5.41895C5.3041 40.7173 5.20703 40.6203 5.20703 40.5053V34.6264C5.20703 34.5116 5.3041 34.4145 5.41895 34.4145H12.6749L12.6754 36.82C12.6292 37.5401 12.9809 37.8239 13.1968 37.9293C13.4156 38.0364 13.8652 38.14 14.4185 37.6343C14.4223 37.6308 14.4261 37.6273 14.4298 37.6238L16.4771 35.6711L18.5243 37.6238C18.528 37.6274 18.5318 37.6309 18.5356 37.6343C18.8595 37.9303 19.1478 38.0177 19.3754 38.0177C19.538 38.0177 19.6696 37.9731 19.761 37.9281C19.9772 37.8216 20.3284 37.5365 20.2787 36.818L20.2797 34.4145H30.5719C30.9765 34.4145 31.3043 34.0866 31.3043 33.6821C31.3043 33.2776 30.9765 32.9497 30.5719 32.9497H20.2802L20.2812 30.6723H47.3966V30.6722ZM8.13301 21.5814C8.06699 20.7733 7.88857 19.9664 7.60254 19.1624H37.8584C37.9733 19.1624 38.0704 19.2594 38.0704 19.3743V25.2532C38.0704 25.368 37.9733 25.4651 37.8584 25.4651H20.2833L20.2843 23.046H25.4102C25.8147 23.046 26.1426 22.7181 26.1426 22.3136C26.1426 21.9091 25.8147 21.5812 25.4102 21.5812H8.13301V21.5814ZM12.673 25.4652H7.60088C7.88672 24.6601 8.06543 23.8532 8.13223 23.0461H12.6726L12.673 25.4652ZM18.8194 23.0462L18.8142 35.8759L16.9824 34.1289C16.6995 33.8589 16.2544 33.8589 15.9714 34.1289L14.1399 35.8757L14.1373 23.0461H18.8194V23.0462ZM3.60742 7.74634C3.60742 4.32437 6.39268 1.54038 9.81621 1.54038H34.5235C35.1758 1.54038 35.7063 2.07104 35.7063 2.72329C35.7063 3.3772 35.1757 3.90923 34.5235 3.90923H21.0218C20.6173 3.90923 20.2894 4.23716 20.2894 4.64165C20.2894 5.04614 20.6173 5.37407 21.0218 5.37407H32.2373C31.7203 6.94966 31.721 8.53921 32.2393 10.1216H9.81621C9.18633 10.1216 8.58994 9.87349 8.13975 9.42554C7.68916 8.97261 7.44102 8.37632 7.44102 7.74634C7.44102 6.43823 8.50654 5.37407 9.81621 5.37407H17.4155C17.82 5.37407 18.1479 5.04614 18.1479 4.64165C18.1479 4.23716 17.82 3.90923 17.4155 3.90923H9.81621C7.69883 3.90923 5.97617 5.63052 5.97617 7.74634C5.97617 8.76616 6.37578 9.72944 7.10391 10.4613C7.8332 11.1869 8.79639 11.5865 9.81621 11.5865H34.5235C35.1758 11.5865 35.7063 12.1185 35.7063 12.7724C35.7063 13.4247 35.1757 13.9553 34.5235 13.9553H9.81621C8.16201 13.9553 6.604 13.3084 5.4292 12.1334C4.25439 10.9586 3.60742 9.40063 3.60742 7.74634ZM4.746 17.6975C4.11816 17.6975 3.60742 17.1868 3.60742 16.5588C3.60742 15.931 4.11816 15.4202 4.746 15.4202H38.9975C40.5496 15.4202 41.8123 16.683 41.8123 18.2352V26.3924C41.8123 27.9447 40.5495 29.2075 38.9975 29.2075H20.2817L20.2827 26.9301H37.8583C38.7829 26.9301 39.5352 26.1779 39.5352 25.2534V19.3745C39.5352 18.4499 38.7829 17.6977 37.8583 17.6977H4.746V17.6975ZM4.746 26.93H12.6733L12.6738 29.2074H4.74609C4.11826 29.2074 3.60752 28.6965 3.60752 28.0687C3.60742 27.4409 4.11816 26.93 4.746 26.93ZM47.3966 44.4595H4.27676C2.72627 44.4595 1.46484 43.1967 1.46484 41.6446V33.4873C1.46484 31.935 2.72627 30.6722 4.27676 30.6722H12.674L12.6745 32.9496H5.41895C4.49434 32.9496 3.74219 33.7018 3.74219 34.6263V40.5052C3.74219 41.4298 4.49443 42.1821 5.41895 42.1821H47.3966C48.0244 42.1821 48.5352 42.6929 48.5352 43.3208C48.5352 43.9486 48.0244 44.4595 47.3966 44.4595Z" fill="#FF5858"/>
</svg>
