<svg width="80" height="80" viewBox="0 0 80 80" fill="none" xmlns="http://www.w3.org/2000/svg">
<path d="M51.5387 65.2333C47.868 65.3578 43.9862 65.4207 40 65.4207C28.4772 65.4207 18.2819 64.9037 12.7264 64.0376C6.79077 63.1123 4.43237 60.3468 3.71277 53.4706C2.92603 45.9474 2.92603 34.1609 3.71277 26.6377C4.43237 19.7615 6.79077 16.9966 12.7264 16.0713C13.6902 15.9206 14.8224 15.7777 16.0925 15.6459C16.9513 15.5568 17.5751 14.789 17.486 13.9302C17.3969 13.0721 16.6278 12.4477 15.7703 12.5374C14.447 12.6747 13.2611 12.8249 12.2449 12.9829C8.54248 13.5603 5.94727 14.8036 4.07837 16.8953C2.15515 19.0462 1.05164 22.0387 0.604248 26.313C-0.201416 34.0187 -0.201416 46.0902 0.604248 53.7959C1.05164 58.0702 2.15515 61.0622 4.07837 63.2137C5.94727 65.3053 8.54248 66.5486 12.2449 67.1254C17.9498 68.0153 28.3258 68.5463 40 68.5463C44.021 68.5463 47.9388 68.4828 51.6443 68.3571C52.5067 68.3278 53.1824 67.6051 53.1531 66.7427C53.1238 65.8803 52.4048 65.2046 51.5387 65.2333Z" fill="white"/>
<path d="M79.3954 26.3129C78.9481 22.0392 77.8445 19.0466 75.9219 16.8951C74.0524 14.8035 71.4572 13.5602 67.7548 12.9834C62.0493 12.0935 51.6733 11.5625 39.9997 11.5625C35.9787 11.5625 32.0615 11.6266 28.356 11.7517C27.493 11.781 26.8173 12.5037 26.8466 13.3661C26.8759 14.2291 27.5955 14.906 28.4616 14.8755C32.1317 14.751 36.0141 14.6881 40.0003 14.6881C51.5219 14.6881 61.7178 15.2051 67.2739 16.0712C73.2089 16.9971 75.5679 19.762 76.2869 26.6382C77.0743 34.1614 77.0743 45.9479 76.2869 53.4711C75.5679 60.3473 73.2089 63.1122 67.2739 64.0381C66.3101 64.1882 65.1773 64.3311 63.9072 64.4629C63.049 64.552 62.4252 65.3198 62.5143 66.1786C62.598 66.9824 63.2761 67.58 64.0665 67.58C64.1208 67.58 64.1751 67.5769 64.23 67.5714C65.5527 67.4341 66.7386 67.2845 67.7548 67.1259C71.4572 66.5485 74.0524 65.3058 75.9219 63.2141C77.8445 61.0626 78.9481 58.0701 79.3954 53.7964C80.2011 46.0907 80.2011 34.0186 79.3954 26.3129Z" fill="white"/>
<path d="M52.8779 38.7251L33.5383 26.7762C33.0562 26.4784 32.4507 26.4649 31.9557 26.7408C31.4613 27.0167 31.1543 27.5391 31.1543 28.1056V52.0026C31.1543 52.569 31.4613 53.0915 31.9557 53.3674C32.1931 53.4992 32.455 53.5651 32.7168 53.5651C33.0024 53.5651 33.2869 53.487 33.5383 53.332L52.8779 41.3837C53.3387 41.0987 53.6195 40.5958 53.6195 40.0544C53.6195 39.5124 53.3387 39.0095 52.8779 38.7251ZM34.2799 49.2005V30.9083L49.0834 40.0544L34.2799 49.2005Z" fill="white"/>
<path d="M22.1633 15.1622C22.1981 15.1622 22.2335 15.1609 22.2689 15.1591C23.1301 15.1017 23.7814 14.3571 23.724 13.4959C23.6666 12.6347 22.9208 11.9822 22.0608 12.0402H22.0596C21.1983 12.0976 20.5477 12.8422 20.6051 13.7034C20.66 14.5292 21.3473 15.1622 22.1633 15.1622Z" fill="white"/>
<path d="M57.7326 64.9507C56.8714 65.0075 56.2196 65.7521 56.277 66.6133C56.3319 67.4391 57.0191 68.0721 57.8346 68.0721C57.87 68.0721 57.9048 68.0708 57.9402 68.069H57.9414C58.8026 68.0116 59.4532 67.267 59.3959 66.4058C59.3385 65.5446 58.5951 64.894 57.7326 64.9507Z" fill="white"/>
</svg>
