<svg width="51" height="50" fill="none" xmlns="http://www.w3.org/2000/svg"><g clip-path="url(#clip0_2239:718)"><path d="M49.728 10.089h-4.07a4.24 4.24 0 00.52-3.923L44.942 2.85a4.234 4.234 0 00-2.37-2.442 4.238 4.238 0 00-3.405.097l-9.763 4.637a2.931 2.931 0 00-1.71-.548h-4.39c-.637 0-1.227.204-1.71.549L11.832.505A4.24 4.24 0 008.427.408a4.235 4.235 0 00-2.37 2.442L4.824 6.166a4.237 4.237 0 00.52 3.923H1.271a.772.772 0 00-.772.771v5.556a.772.772 0 001.543 0v-4.784h5.36c.086.03.173.058.261.082l6.479 1.784a51.544 51.544 0 00-3.797 6.93H2.043v-.926a.771.771 0 00-1.543 0V21.2c0 .426.346.772.772.772h2.752v27.32a.77.77 0 00.771.771h41.41a.772.772 0 00.772-.771V44.81a.772.772 0 00-1.544 0v3.71H30.13V22.445a41.321 41.321 0 014.346 13.294.771.771 0 001.38.352 43.034 43.034 0 003.072-4.692 43.989 43.989 0 014.51 3.528.772.772 0 001.277-.688 51.759 51.759 0 00-3.393-12.268h4.11v19.752a.772.772 0 101.544 0V21.972h2.752a.771.771 0 00.772-.772V10.86a.77.77 0 00-.772-.771zm-9.898-8.19a2.657 2.657 0 012.162-.062 2.652 2.652 0 011.504 1.551l1.234 3.315a2.66 2.66 0 01-.127 2.16 2.653 2.653 0 01-1.677 1.363l-12.283 3.382V9.899C33.403 8.21 40.287 4.721 42 7.14a.771.771 0 101.26-.891c-1.323-1.867-4.109-1.958-8.283-.27-1.719.695-3.306 1.544-4.334 2.132v-.57c0-.412-.086-.806-.24-1.163L39.83 1.9zM23.305 6.137h4.39c.774 0 1.404.63 1.404 1.404v6.378c0 .775-.63 1.405-1.404 1.405h-4.39c-.774 0-1.404-.63-1.404-1.405V7.541c0-.775.63-1.404 1.404-1.404zm-1.297 14.291a41.15 41.15 0 012.406-3.561h2.171a40.968 40.968 0 012.406 3.561h-6.983zM6.398 8.862a2.656 2.656 0 01-.128-2.158l1.234-3.316a2.65 2.65 0 011.504-1.55 2.656 2.656 0 012.162.061l9.427 4.478a2.93 2.93 0 00-.24 1.164v.614c-1.024-.59-2.647-1.464-4.41-2.177-4.174-1.688-6.96-1.597-8.283.27a.772.772 0 101.26.892c1.729-2.442 8.725 1.134 11.434 2.806v3.662L8.074 10.226a2.654 2.654 0 01-1.676-1.364zm14.306 6.442a2.96 2.96 0 001.863 1.47 42.931 42.931 0 00-7.259 16.902 42.204 42.204 0 01-2.288-3.75.77.77 0 00-1.1-.28 44.694 44.694 0 00-3.759 2.745 50.416 50.416 0 017.546-18.463l4.997 1.376zM5.567 21.972h4.11A51.77 51.77 0 006.286 34.24a.772.772 0 001.277.688 43.952 43.952 0 014.51-3.528 43.014 43.014 0 003.072 4.692.772.772 0 001.38-.352 41.343 41.343 0 014.346-13.294V48.52H5.567V21.972zM22.414 48.52V21.972h6.173V48.52h-6.173zM39.08 29.647a.771.771 0 00-1.1.279 42.17 42.17 0 01-2.288 3.75 42.922 42.922 0 00-7.26-16.902 2.96 2.96 0 001.864-1.47l4.998-1.376A50.444 50.444 0 0142.84 32.39a44.77 44.77 0 00-3.76-2.744zm9.877-9.219h-8.303a51.587 51.587 0 00-3.796-6.93l6.478-1.784a4.01 4.01 0 00.26-.082h5.36v8.796z" fill="#FF5858"/></g><defs><clipPath id="clip0_2239:718"><path fill="#fff" transform="translate(.5)" d="M0 0h50v50H0z"/></clipPath></defs></svg>