<svg width="51" height="50" fill="none" xmlns="http://www.w3.org/2000/svg"><g clip-path="url(#clip0_2239:711)" fill="#FF5858"><path d="M39.812 25.445a.732.732 0 00.732-.733v-1.644a.732.732 0 10-1.464 0v1.644c0 .405.327.733.732.733z"/><path d="M47.974 25.57h-2.01a15.193 15.193 0 00-2.74-5.576 15.303 15.303 0 00-4.796-4.034v-5.315a1.542 1.542 0 00-1.74-1.53 7.59 7.59 0 00-6.198 5.057h-.772a6.725 6.725 0 00-6.699-7.219 6.726 6.726 0 00-6.718 6.718c0 .513.06 1.02.173 1.51a15.374 15.374 0 00-6.753 5.06.732.732 0 101.165.888 13.912 13.912 0 016.073-4.566 6.786 6.786 0 001.306 1.852l-.23.061a.733.733 0 00.392 1.412c.542-.15 1.1-.258 1.655-.319.835-.092.35-.064 8.844-.065a.732.732 0 100-1.465h-.798a6.639 6.639 0 001.318-2.402h1.586a.732.732 0 00.708-.545 6.132 6.132 0 015.139-4.524.068.068 0 01.057.018.075.075 0 01.027.059v5.76a.73.73 0 00.406.656c3.712 1.846 6.44 5.357 7.298 9.394.072.338.37.58.717.58h2.59c.374 0 .678.303.678.677v5.42a.678.678 0 01-.678.678h-2.807c-.561 0-1.067.334-1.29.853a13.85 13.85 0 01-.748 1.498.732.732 0 101.267.734 15.32 15.32 0 00.813-1.62h2.765a2.145 2.145 0 002.143-2.142v-5.421a2.145 2.145 0 00-2.143-2.143zm-27.8-7.482a5.28 5.28 0 01-2.409-4.417 5.259 5.259 0 015.254-5.253 5.258 5.258 0 015.13 6.386 5.214 5.214 0 01-2.213 3.235c-4.543.016-4.831-.035-5.762.049zM42.42 38.49a.732.732 0 00-1.035.046 13.821 13.821 0 01-2.207 1.947.731.731 0 00-.309.575 50.841 50.841 0 01-.481 5.328 2.501 2.501 0 01-2.47 2.149h-.014c-1.213-.006-2.26-.931-2.457-2.162a58.42 58.42 0 01-.419-4.03 41.48 41.48 0 01-.063-1.302.733.733 0 00-1.464.046 41.843 41.843 0 00.104 1.898c-.105.002-.209.004-.312.004h-9.518c-.49 0-.998-.03-1.511-.086a.73.73 0 00-.81.663 58.43 58.43 0 01-.325 2.82 2.504 2.504 0 01-2.47 2.149 2.504 2.504 0 01-2.477-2.21l-.003-.022-.003-.02a55.883 55.883 0 01-.408-3.984c-.188-3.04.022-4.868.203-5.805a.733.733 0 00-1.438-.279c-.172.886-.262 1.871-.294 2.897A13.577 13.577 0 018.1 29.17v-.021a13.282 13.282 0 011.264-5.512.733.733 0 00-1.326-.621 14.73 14.73 0 00-1.377 5.398c-2.111.034-3.596.482-4.64 1.393-1.05.916-1.468 2.223-1.093 3.412.56 1.774 2.62 2.37 3.87 1.093.448-.456.661-1.054.586-1.64a.733.733 0 00-1.453.186c.026.197-.117.365-.179.429-.164.168-.397.263-.593.242-.387-.042-.699-.322-.834-.75-.2-.635.047-1.333.659-1.868.755-.659 1.956-.997 3.66-1.031a15.04 15.04 0 005.598 11.193c.056 1.805.247 3.72.497 5.516A3.975 3.975 0 0016.66 50a3.975 3.975 0 003.921-3.412c.102-.732.19-1.457.263-2.164.315.02.626.03.932.03h9.517c.147 0 .295-.003.445-.007a61.72 61.72 0 00.26 2.14l.004.022c.311 1.93 1.97 3.38 3.895 3.39h.021a3.972 3.972 0 003.921-3.411c.256-1.836.418-3.557.482-5.124a15.253 15.253 0 002.145-1.94.732.732 0 00-.046-1.035z"/><path d="M23.524 12.938h-1.012a.403.403 0 010-.804h1.937a.732.732 0 100-1.464h-.59v-.363a.732.732 0 10-1.464 0v.367a1.87 1.87 0 00-1.75 1.863c0 1.029.838 1.866 1.867 1.866h1.012a.402.402 0 010 .803h-1.937a.733.733 0 000 1.465h.808v.363a.733.733 0 001.465 0v-.393a1.87 1.87 0 001.531-1.836c0-1.03-.837-1.867-1.866-1.867zm-13.721.497a6.725 6.725 0 006.717-6.718A6.725 6.725 0 009.803 0a6.684 6.684 0 00-3.757 1.148.732.732 0 10.82 1.214 5.224 5.224 0 012.937-.897 5.259 5.259 0 015.253 5.252 5.259 5.259 0 01-5.253 5.253A5.259 5.259 0 015.12 4.333a.732.732 0 10-1.304-.666 6.739 6.739 0 00-.732 3.05 6.725 6.725 0 006.718 6.718z"/><path d="M9.912 2.622a.732.732 0 00-.733.732v.366A1.869 1.869 0 007.43 5.584c0 1.029.837 1.866 1.867 1.866h1.012a.402.402 0 010 .803H8.372a.732.732 0 100 1.465h.808v.363a.732.732 0 101.464 0v-.393a1.87 1.87 0 001.531-1.836c0-1.03-.837-1.867-1.866-1.867H9.297a.402.402 0 010-.803h1.936a.732.732 0 100-1.465h-.589v-.363a.733.733 0 00-.732-.732z"/></g><defs><clipPath id="clip0_2239:711"><path fill="#fff" transform="translate(.5)" d="M0 0h50v50H0z"/></clipPath></defs></svg>