<svg width="61" height="80" viewBox="0 0 61 80" fill="none" xmlns="http://www.w3.org/2000/svg">
<path d="M47.0714 18.6797C48.5392 18.6796 50.0075 18.1208 51.1248 17.0035C52.2076 15.9208 52.8039 14.4813 52.8039 12.95C52.8039 11.4188 52.2075 9.97939 51.1248 8.89658C48.8898 6.66143 45.2531 6.66143 43.0179 8.89658C41.9351 9.97924 41.3389 11.4188 41.3389 12.9499C41.3389 14.4811 41.9351 15.9206 43.0179 17.0033C44.1356 18.1211 45.6032 18.6799 47.0714 18.6797ZM44.6751 10.5539C45.3357 9.8933 46.2036 9.56299 47.0712 9.56299C47.9389 9.56299 48.8067 9.8933 49.4673 10.5539C50.1073 11.1939 50.46 12.0449 50.46 12.95C50.46 13.855 50.1075 14.7061 49.4673 15.3461C48.8273 15.9861 47.9764 16.3386 47.0712 16.3386C46.1661 16.3386 45.3151 15.9861 44.6751 15.3461C44.0351 14.7061 43.6825 13.8552 43.6825 12.95C43.6826 12.0449 44.0351 11.1939 44.6751 10.5539Z" fill="#FF5858"/>
<path d="M35.0863 15.7455L37.597 16.1962C37.7323 16.5927 37.8925 16.9795 38.0761 17.355L36.6198 19.4484C36.2959 19.9142 36.3522 20.5452 36.7533 20.9463L39.0755 23.2683C39.4766 23.6694 40.1077 23.7258 40.5733 23.4017L42.6667 21.9456C43.042 22.1294 43.4289 22.2894 43.8255 22.4248L44.2762 24.9355C44.3766 25.4939 44.8623 25.9003 45.4297 25.9003H48.7137C49.2811 25.9003 49.7669 25.4939 49.8672 24.9355L50.318 22.4248C50.7144 22.2894 51.1014 22.1294 51.4767 21.9456L53.5702 23.4017C54.0359 23.7258 54.6667 23.6695 55.068 23.2683L57.3902 20.9463C57.7913 20.5452 57.8475 19.9142 57.5236 19.4484L56.0673 17.355C56.2511 16.9797 56.4111 16.5927 56.5464 16.1962L59.0572 15.7455C59.6156 15.6452 60.022 15.1594 60.022 14.592V11.3081C60.022 10.7408 59.6156 10.255 59.0572 10.1547L56.5464 9.70391C56.4111 9.3075 56.2509 8.92062 56.0673 8.54516L57.5234 6.45187C57.8475 5.98625 57.7913 5.35516 57.39 4.95406L55.0678 2.63188C54.6666 2.23078 54.0358 2.17438 53.57 2.49844L51.4766 3.95453C51.1011 3.77078 50.7142 3.61078 50.3178 3.47547L49.867 0.964687C49.7669 0.406406 49.2809 0 48.7136 0H45.4295C44.8622 0 44.3764 0.406406 44.2761 0.964844L43.8253 3.47563C43.4289 3.61094 43.042 3.77109 42.6666 3.95469L40.5731 2.49859C40.1075 2.17453 39.4764 2.23078 39.0753 2.63203L36.7531 4.95422C36.352 5.35531 36.2958 5.98625 36.6197 6.45203L38.0758 8.54531C37.892 8.92062 37.732 9.30766 37.5967 9.70406L35.0859 10.1548C34.5275 10.2552 34.1211 10.7409 34.1211 11.3083V14.5922C34.1214 15.1594 34.5278 15.6452 35.0863 15.7455ZM36.4652 12.2883L38.7191 11.8836C39.1698 11.8027 39.532 11.4667 39.6467 11.0233C39.8253 10.3322 40.0983 9.67203 40.4583 9.06094C40.6906 8.66641 40.672 8.17266 40.4106 7.79688L39.1037 5.91813L40.0397 4.98219L41.9184 6.28906C42.2942 6.55047 42.7878 6.56906 43.1825 6.33672C43.7936 5.97672 44.4539 5.70359 45.1448 5.52516C45.5881 5.41062 45.9242 5.04828 46.0052 4.5975L46.4098 2.34375H47.7334L48.1381 4.59766C48.2191 5.04844 48.555 5.41078 48.9984 5.52531C49.6894 5.70375 50.3495 5.97687 50.9608 6.33687C51.3552 6.56922 51.8489 6.55078 52.2248 6.28922L54.1036 4.98234L55.0395 5.91828L53.7327 7.79688C53.4713 8.17266 53.4527 8.66641 53.685 9.06094C54.045 9.67203 54.3181 10.3322 54.4966 11.0233C54.6111 11.4666 54.9734 11.8027 55.4242 11.8836L57.6781 12.2883V13.6117L55.4242 14.0164C54.9734 14.0973 54.6113 14.4333 54.4966 14.8767C54.318 15.5678 54.045 16.228 53.685 16.8391C53.4527 17.2334 53.4713 17.7272 53.7327 18.1031L55.0395 19.9819L54.1036 20.9177L52.2248 19.6108C51.8489 19.3492 51.3552 19.3306 50.9608 19.5631C50.3498 19.9231 49.6897 20.1961 48.9984 20.3747C48.5552 20.4892 48.2191 20.8516 48.1381 21.3023L47.7334 23.5562H46.4098L46.0052 21.3023C45.9242 20.8516 45.5883 20.4894 45.1448 20.3747C44.4536 20.1961 43.7934 19.9231 43.1825 19.5631C42.788 19.3306 42.2942 19.3491 41.9184 19.6108L40.0397 20.9177L39.1037 19.9819L40.4106 18.1031C40.672 17.7272 40.6906 17.2336 40.4583 16.8391C40.0983 16.228 39.8252 15.5678 39.6467 14.8767C39.5322 14.4334 39.1698 14.0973 38.7191 14.0164L36.4652 13.6117V12.2883Z" fill="#FF5858"/>
<path d="M30.4878 74.9153C31.1292 74.8961 31.6236 74.3365 31.6236 73.6948V73.2676C32.6887 72.8594 33.4968 71.9153 33.6956 70.7329C33.9471 69.2364 33.1378 67.885 31.6812 67.3701C31.1829 67.194 30.5967 66.9736 30.1756 66.7409C29.8398 66.5554 29.8167 66.0665 30.1512 65.8789L30.1593 65.8744C30.7984 65.6817 31.2045 65.994 31.2487 66.0303C31.2334 66.0176 32.1482 66.7073 32.7918 65.9373C33.5861 64.9869 32.815 64.2872 32.815 64.2872C32.5748 64.0658 32.1595 63.8008 31.6236 63.6336V63.3436C31.6236 62.7019 31.1292 62.1423 30.4878 62.1231C29.8242 62.1031 29.2798 62.6353 29.2798 63.2945V63.7014C28.3826 64.0509 27.7228 64.8547 27.5357 65.8467C27.3489 66.8389 27.6806 67.8064 28.4015 68.3719C29.0647 68.892 29.9943 69.26 30.9001 69.5801C31.2839 69.7158 31.4467 69.9729 31.3842 70.3447C31.3346 70.6394 31.0809 71.1392 30.4437 71.1434C29.7489 71.1478 29.59 71.1254 29.1056 70.812C28.572 70.4667 27.84 70.5764 27.4742 71.0961C27.0906 71.6409 27.2372 72.3906 27.7903 72.7523C28.3503 73.1186 28.7989 73.3081 29.2796 73.4023V73.744C29.2798 74.4033 29.824 74.9353 30.4878 74.9153Z" fill="#FF5858"/>
<path d="M56.5733 27.6672H30.1829C30.3074 27.3625 30.421 27.0534 30.5219 26.7403L34.149 26.0892C34.7074 25.9889 35.1138 25.5031 35.1138 24.9358V20.5037C35.1138 19.9364 34.7074 19.4506 34.149 19.3503L30.5219 18.6992C30.3052 18.0268 30.0337 17.3723 29.7101 16.7422L31.8151 13.7159C32.1391 13.2501 32.0829 12.6192 31.6816 12.2181L28.5477 9.08419C28.1465 8.6831 27.5157 8.62685 27.0499 8.95075L24.0237 11.0558C23.3933 10.732 22.739 10.4604 22.0665 10.2439L21.4154 6.617C21.3151 6.05857 20.8293 5.65216 20.2619 5.65216H15.8299C15.2626 5.65216 14.7768 6.05857 14.6765 6.617L14.0254 10.2439C13.3529 10.4606 12.6983 10.7322 12.0682 11.0558L9.04193 8.95075C8.57631 8.62685 7.94522 8.68294 7.54412 9.08419L4.41022 12.2181C4.00912 12.6192 3.95287 13.2501 4.27678 13.7159L6.38178 16.7422C6.05818 17.3723 5.78662 18.0268 5.5699 18.6992L1.94287 19.3503C1.38443 19.4506 0.978027 19.9364 0.978027 20.5037V24.9358C0.978027 25.5031 1.38443 25.9889 1.94287 26.0892L5.5699 26.7403C5.67084 27.0534 5.78459 27.3625 5.90896 27.6672H4.42646C-0.0936916 27.6672 -0.100879 34.6934 4.42646 34.6934H5.07756C5.07756 34.6934 24.1576 52.9481 25.0318 53.7956C24.9546 55.3404 25.0054 56.8951 25.0054 58.4417C21.4416 60.3925 19.0191 64.1781 19.0191 68.5193C19.019 74.8498 24.1693 80 30.4999 80C32.8924 80 35.1874 79.2684 37.1371 77.8843C37.6649 77.5098 37.789 76.7781 37.4143 76.2504C37.0397 75.7226 36.308 75.5986 35.7804 75.9733C34.2294 77.0742 32.4035 77.6562 30.4999 77.6562C25.4616 77.6562 21.3627 73.5575 21.3627 68.5192C21.3627 63.4809 25.4616 59.3822 30.4999 59.3822C35.5382 59.3822 39.6371 63.4809 39.6371 68.5192C39.6371 69.6381 39.4352 70.734 39.0371 71.7767C38.8062 72.3814 39.1091 73.0587 39.7138 73.2895C40.3182 73.5204 40.9958 73.2175 41.2266 72.6128C41.7272 71.3022 41.981 69.9248 41.981 68.5192C41.981 64.1843 39.5654 60.4037 36.0102 58.4504C36.0433 56.9115 36.0466 55.2815 36.0469 53.7823L55.9138 34.6934H56.5737C61.0935 34.6934 61.1007 27.6672 56.5733 27.6672ZM7.62678 25.4218C7.51225 24.9786 7.1499 24.6426 6.69928 24.5618L3.32193 23.9556V21.484L6.69928 20.8776C7.1499 20.7967 7.51225 20.4609 7.62678 20.0176C7.876 19.0539 8.26006 18.1276 8.76865 17.265C9.00115 16.8706 8.98271 16.3767 8.72115 16.0008L6.76068 13.1823L8.50834 11.4347L11.3269 13.3951C11.703 13.6565 12.1968 13.6751 12.5912 13.4426C13.4538 12.9342 14.3801 12.55 15.344 12.3008C15.7872 12.1862 16.1232 11.8239 16.204 11.3733L16.8102 7.99591H19.2818L19.8882 11.3733C19.9691 11.8239 20.3049 12.1862 20.7482 12.3008C21.7119 12.55 22.6382 12.934 23.501 13.4426C23.8955 13.6751 24.3893 13.6565 24.7652 13.3951L27.5837 11.4347L29.3313 13.1823L27.3708 16.0008C27.1094 16.3767 27.0908 16.8704 27.3233 17.265C27.8319 18.1276 28.216 19.0537 28.4652 20.0175C28.5797 20.4608 28.9421 20.7967 29.3927 20.8776L32.7702 21.484V23.9556L29.3927 24.5618C28.9421 24.6428 28.5797 24.9787 28.4652 25.422C28.2643 26.1995 27.9738 26.952 27.6026 27.6672H23.4447C24.6413 26.3626 25.373 24.6251 25.373 22.7197C25.373 18.6798 22.0862 15.3929 18.0462 15.3929C14.0062 15.3929 10.7193 18.6797 10.7193 22.7197C10.7193 24.6251 11.451 26.3626 12.6476 27.6672H8.48975C8.11834 26.952 7.82787 26.1995 7.62678 25.4218ZM17.4605 27.6672C14.9879 27.3762 13.0629 25.2692 13.0629 22.7197C13.0629 19.9722 15.2983 17.7367 18.046 17.7367C20.7937 17.7367 23.0291 19.972 23.0291 22.7197C23.0291 25.2692 21.1041 27.3762 18.6315 27.6672H17.4605ZM56.5733 32.3497H19.5558C18.9087 32.3497 18.384 32.8743 18.384 33.5215C18.384 34.1687 18.9087 34.6934 19.5558 34.6934C19.5558 34.6934 41.6754 34.7648 52.4643 34.7098C48.8868 38.0772 36.6922 49.9265 34.0657 52.4336C33.8341 52.6548 33.703 52.9609 33.703 53.2812C33.703 54.6737 33.7027 56.1003 33.6829 57.4909C31.6283 56.897 29.4051 56.8939 27.349 57.4818V54.3562C27.349 53.5503 27.4512 52.8779 26.7708 52.2175C25.8552 51.3284 8.52037 34.745 8.52037 34.745C10.0635 34.7537 13.3113 34.6936 13.3113 34.6936C13.9585 34.6936 14.4832 34.1689 14.4832 33.5217C14.4832 32.8745 13.9585 32.3498 13.3113 32.3498H4.42646C2.9149 32.3498 2.9149 30.0111 4.42646 30.0111H56.5733C58.0849 30.0109 58.0849 32.3497 56.5733 32.3497Z" fill="#FF5858"/>
</svg>
