<svg width="81" height="80" viewBox="0 0 81 80" fill="none" xmlns="http://www.w3.org/2000/svg">
<g clip-path="url(#clip0_3099:554)">
<path d="M47.0564 79.9988C56.7286 79.6631 65.6575 75.0506 71.5535 67.3437C72.3103 66.3544 72.1302 64.8999 71.0731 64.1504L48.2826 48.0011C46.8013 46.9513 44.748 48.0121 44.748 49.8279V77.76C44.748 78.9746 45.7478 80.0439 47.0564 79.9988ZM47.0918 57.6898L51.5748 53.2068L53.8032 54.7858L47.0924 61.4966V57.6898H47.0918ZM47.0918 64.812L55.7435 56.1603L57.9713 57.7393L47.0918 68.6188V64.812ZM62.14 60.6927L47.0918 75.741V71.9336L59.9116 59.1144L62.14 60.6927ZM66.3081 63.6468L53.166 76.7889C51.6743 77.1594 50.146 77.4176 48.5927 77.5549L64.0797 62.0679L66.3081 63.6468ZM58.2368 75.0329L68.2478 65.0214L69.6296 66.0004C66.5773 69.9628 62.6576 73.0365 58.2368 75.0329ZM49.6351 51.8323L47.0918 54.375V50.0305L49.6351 51.8323Z" fill="#FF5858"/>
<path d="M75.3676 33.1586C75.4451 33.8013 76.0292 34.2596 76.6713 34.1815C77.314 34.104 77.7717 33.5205 77.6942 32.8778C75.4316 14.1345 59.4679 0 40.5623 0C19.8878 0 3.15625 16.7297 3.15625 37.406C3.15625 57.6709 19.2555 74.1962 39.4325 74.7949C39.4551 74.7955 39.4777 74.7962 39.5002 74.7962C40.0831 74.7962 40.6325 74.5734 41.0536 74.1644C41.4863 73.7445 41.7341 73.158 41.7341 72.5555V58.6969C41.7341 58.0493 41.2092 57.525 40.5623 57.525C39.9147 57.525 39.3904 58.0493 39.3904 58.6969V72.4487C20.3773 71.8262 5.5 56.4551 5.5 37.406C5.5 18.4644 20.5964 2.98279 39.3904 2.36328V53.2275C39.3904 53.8751 39.9147 54.3994 40.5623 54.3994C41.2092 54.3994 41.7341 53.8751 41.7341 53.2275V39.6729L68.5664 58.6865C69.5753 59.4013 71.0115 59.1742 71.7232 58.1049C75.5916 52.2925 77.7449 45.5206 77.9506 38.5217C77.9695 37.8748 77.4598 37.3346 76.8135 37.3157C76.1628 37.2949 75.6264 37.8058 75.6074 38.4528C75.4164 44.9756 73.4205 51.2866 69.8347 56.712L41.7341 36.7999V2.36328C58.9399 2.93152 73.2936 15.9796 75.3676 33.1586Z" fill="#FF5858"/>
</g>
<defs>
<clipPath id="clip0_3099:554">
<rect width="80" height="80" fill="white" transform="translate(0.5)"/>
</clipPath>
</defs>
</svg>
