<svg width="81" height="80" viewBox="0 0 81 80" fill="none" xmlns="http://www.w3.org/2000/svg">
<path d="M46.75 67.5H44.25V55.25C44.25 54.9185 44.1183 54.6005 43.8839 54.3661C43.6495 54.1317 43.3315 54 43 54C42.6685 54 42.3505 54.1317 42.1161 54.3661C41.8817 54.6005 41.75 54.9185 41.75 55.25V67.5H9.25V42.5H19.65C19.9815 42.5 20.2995 42.3683 20.5339 42.1339C20.7683 41.8995 20.9 41.5815 20.9 41.25C20.9 40.9185 20.7683 40.6005 20.5339 40.3661C20.2995 40.1317 19.9815 40 19.65 40H8C7.66848 40 7.35054 40.1317 7.11612 40.3661C6.8817 40.6005 6.75 40.9185 6.75 41.25V67.5H4.25C3.91848 67.5 3.60054 67.6317 3.36612 67.8661C3.1317 68.1005 3 68.4185 3 68.75V71.25C3 72.9076 3.65848 74.4973 4.83058 75.6694C6.00269 76.8415 7.5924 77.5 9.25 77.5H41.75C43.4076 77.5 44.9973 76.8415 46.1694 75.6694C47.3415 74.4973 48 72.9076 48 71.25V68.75C48 68.4185 47.8683 68.1005 47.6339 67.8661C47.3995 67.6317 47.0815 67.5 46.75 67.5ZM45.5 71.25C45.5 72.2446 45.1049 73.1984 44.4016 73.9016C43.6984 74.6049 42.7446 75 41.75 75H39.25V73.75C39.25 73.4185 39.1183 73.1005 38.8839 72.8661C38.6495 72.6317 38.3315 72.5 38 72.5C37.6685 72.5 37.3505 72.6317 37.1161 72.8661C36.8817 73.1005 36.75 73.4185 36.75 73.75V75H14.25V73.75C14.25 73.4185 14.1183 73.1005 13.8839 72.8661C13.6495 72.6317 13.3315 72.5 13 72.5C12.6685 72.5 12.3505 72.6317 12.1161 72.8661C11.8817 73.1005 11.75 73.4185 11.75 73.75V75H9.25C8.25544 75 7.30161 74.6049 6.59835 73.9016C5.89509 73.1984 5.5 72.2446 5.5 71.25V70H45.5V71.25Z" fill="#FF5858"/>
<path d="M68 10H70.5C70.8315 10 71.1495 9.8683 71.3839 9.63388C71.6183 9.39946 71.75 9.08152 71.75 8.75C71.75 8.41848 71.6183 8.10054 71.3839 7.86612C71.1495 7.6317 70.8315 7.5 70.5 7.5H68C67.0054 7.5 66.0516 7.89509 65.3484 8.59835C64.6451 9.30161 64.25 10.2554 64.25 11.25V12.5H63C62.6685 12.5 62.3505 12.6317 62.1161 12.8661C61.8817 13.1005 61.75 13.4185 61.75 13.75C61.75 14.0815 61.8817 14.3995 62.1161 14.6339C62.3505 14.8683 62.6685 15 63 15H64.25V18.75C64.25 19.0815 64.3817 19.3995 64.6161 19.6339C64.8505 19.8683 65.1685 20 65.5 20C65.8315 20 66.1495 19.8683 66.3839 19.6339C66.6183 19.3995 66.75 19.0815 66.75 18.75V15H68C68.3315 15 68.6495 14.8683 68.8839 14.6339C69.1183 14.3995 69.25 14.0815 69.25 13.75C69.25 13.4185 69.1183 13.1005 68.8839 12.8661C68.6495 12.6317 68.3315 12.5 68 12.5H66.75V11.25C66.75 10.9185 66.8817 10.6005 67.1161 10.3661C67.3505 10.1317 67.6685 10 68 10Z" fill="#FF5858"/>
<path d="M74.25 2.5H59.25C58.2554 2.5 57.3016 2.89509 56.5984 3.59835C55.8951 4.30161 55.5 5.25544 55.5 6.25V8.75C55.5 9.08152 55.6317 9.39946 55.8661 9.63388C56.1005 9.8683 56.4185 10 56.75 10C57.0815 10 57.3995 9.8683 57.6339 9.63388C57.8683 9.39946 58 9.08152 58 8.75V6.25C58 5.91848 58.1317 5.60054 58.3661 5.36612C58.6005 5.1317 58.9185 5 59.25 5H74.25C74.5815 5 74.8995 5.1317 75.1339 5.36612C75.3683 5.60054 75.5 5.91848 75.5 6.25V21.25C75.5 21.5815 75.3683 21.8995 75.1339 22.1339C74.8995 22.3683 74.5815 22.5 74.25 22.5H59.25C58.9185 22.5 58.6005 22.3683 58.3661 22.1339C58.1317 21.8995 58 21.5815 58 21.25V13.75C58 13.4185 57.8683 13.1005 57.6339 12.8661C57.3995 12.6317 57.0815 12.5 56.75 12.5C56.4185 12.5 56.1005 12.6317 55.8661 12.8661C55.6317 13.1005 55.5 13.4185 55.5 13.75V21.25C55.5 22.2446 55.8951 23.1984 56.5984 23.9017C57.3016 24.6049 58.2554 25 59.25 25H74.25C75.2446 25 76.1984 24.6049 76.9016 23.9017C77.6049 23.1984 78 22.2446 78 21.25V6.25C78 5.25544 77.6049 4.30161 76.9016 3.59835C76.1984 2.89509 75.2446 2.5 74.25 2.5V2.5Z" fill="#FF5858"/>
<path d="M61.75 52.5C61.75 53.4889 62.0432 54.4556 62.5927 55.2779C63.1421 56.1001 63.923 56.741 64.8366 57.1194C65.7502 57.4978 66.7556 57.5969 67.7255 57.4039C68.6954 57.211 69.5863 56.7348 70.2855 56.0355C70.9848 55.3363 71.461 54.4454 71.6539 53.4755C71.8469 52.5056 71.7478 51.5002 71.3694 50.5866C70.991 49.673 70.3501 48.8921 69.5279 48.3427C68.7056 47.7932 67.7389 47.5 66.75 47.5C65.4239 47.5 64.1522 48.0268 63.2145 48.9645C62.2768 49.9022 61.75 51.1739 61.75 52.5ZM69.25 52.5C69.25 52.9945 69.1034 53.4778 68.8287 53.8889C68.554 54.3001 68.1635 54.6205 67.7067 54.8097C67.2499 54.9989 66.7472 55.0484 66.2623 54.952C65.7773 54.8555 65.3319 54.6174 64.9822 54.2678C64.6326 53.9181 64.3945 53.4727 64.298 52.9877C64.2016 52.5028 64.2511 52.0001 64.4403 51.5433C64.6295 51.0865 64.95 50.696 65.3611 50.4213C65.7722 50.1466 66.2556 50 66.75 50C67.413 50 68.0489 50.2634 68.5178 50.7322C68.9866 51.2011 69.25 51.837 69.25 52.5Z" fill="#FF5858"/>
<path d="M74.25 41.25H59.25C58.2554 41.25 57.3016 41.6451 56.5984 42.3484C55.8951 43.0516 55.5 44.0054 55.5 45V60C55.5 60.9946 55.8951 61.9484 56.5984 62.6516C57.3016 63.3549 58.2554 63.75 59.25 63.75H74.25C75.2446 63.75 76.1984 63.3549 76.9016 62.6516C77.6049 61.9484 78 60.9946 78 60V57.5C78 57.1685 77.8683 56.8505 77.6339 56.6161C77.3995 56.3817 77.0815 56.25 76.75 56.25C76.4185 56.25 76.1005 56.3817 75.8661 56.6161C75.6317 56.8505 75.5 57.1685 75.5 57.5V60C75.5 60.3315 75.3683 60.6495 75.1339 60.8839C74.8995 61.1183 74.5815 61.25 74.25 61.25H59.25C58.9185 61.25 58.6005 61.1183 58.3661 60.8839C58.1317 60.6495 58 60.3315 58 60V45C58 44.6685 58.1317 44.3505 58.3661 44.1161C58.6005 43.8817 58.9185 43.75 59.25 43.75H74.25C74.5815 43.75 74.8995 43.8817 75.1339 44.1161C75.3683 44.3505 75.5 44.6685 75.5 45V52.5C75.5 52.8315 75.6317 53.1495 75.8661 53.3839C76.1005 53.6183 76.4185 53.75 76.75 53.75C77.0815 53.75 77.3995 53.6183 77.6339 53.3839C77.8683 53.1495 78 52.8315 78 52.5V45C78 44.0054 77.6049 43.0516 76.9016 42.3484C76.1984 41.6451 75.2446 41.25 74.25 41.25V41.25Z" fill="#FF5858"/>
<path d="M31.0875 17.3125C31.2864 17.4358 31.516 17.5008 31.75 17.5C31.9457 17.4988 32.1384 17.4517 32.3125 17.3625L39.8125 13.6125C40.0173 13.5076 40.1891 13.3482 40.3091 13.1519C40.4291 12.9557 40.4926 12.7301 40.4926 12.5C40.4926 12.2699 40.4291 12.0443 40.3091 11.8481C40.1891 11.6518 40.0173 11.4924 39.8125 11.3875L32.3125 7.6375C32.1222 7.54161 31.9106 7.49596 31.6977 7.50488C31.4848 7.5138 31.2777 7.57699 31.0961 7.68846C30.9145 7.79992 30.7644 7.95596 30.6601 8.14175C30.5558 8.32754 30.5006 8.53692 30.5 8.75V16.25C30.4996 16.4624 30.5533 16.6715 30.6561 16.8574C30.7589 17.0433 30.9074 17.1999 31.0875 17.3125V17.3125ZM33 10.775L36.45 12.5L33 14.225V10.775Z" fill="#FF5858"/>
<path d="M34.25 23.75C36.475 23.75 38.6501 23.0902 40.5002 21.854C42.3502 20.6178 43.7922 18.8608 44.6436 16.8052C45.4951 14.7495 45.7179 12.4875 45.2838 10.3052C44.8498 8.12292 43.7783 6.11836 42.205 4.54502C40.6316 2.97168 38.6271 1.90022 36.4448 1.46614C34.2625 1.03206 32.0005 1.25484 29.9448 2.10633C27.8891 2.95782 26.1321 4.39976 24.896 6.24981C23.6598 8.09986 23 10.2749 23 12.5C23 15.4837 24.1853 18.3451 26.295 20.4549C28.4048 22.5647 31.2663 23.75 34.25 23.75V23.75ZM34.25 3.74997C35.9806 3.74997 37.6723 4.26315 39.1112 5.22462C40.5502 6.18608 41.6717 7.55264 42.3339 9.15149C42.9962 10.7503 43.1695 12.5097 42.8319 14.207C42.4943 15.9043 41.6609 17.4634 40.4372 18.6872C39.2135 19.9109 37.6544 20.7442 35.957 21.0818C34.2597 21.4195 32.5004 21.2462 30.9015 20.5839C29.3027 19.9217 27.9361 18.8001 26.9746 17.3612C26.0132 15.9223 25.5 14.2306 25.5 12.5C25.5 10.1793 26.4219 7.95373 28.0628 6.31279C29.7038 4.67185 31.9294 3.74997 34.25 3.74997V3.74997Z" fill="#FF5858"/>
<path d="M46.75 28.75C46.9441 28.75 47.1354 28.7048 47.309 28.618C47.4826 28.5313 47.6336 28.4053 47.75 28.25L51.5 23.25C51.6989 22.9848 51.7843 22.6514 51.7374 22.3232C51.6905 21.995 51.5152 21.6989 51.25 21.5C50.9848 21.3011 50.6514 21.2157 50.3232 21.2626C49.995 21.3095 49.6989 21.4848 49.5 21.75L45.75 26.75C45.5511 27.0152 45.4657 27.3486 45.5126 27.6768C45.5595 28.005 45.7348 28.3011 46 28.5C46.2164 28.6623 46.4795 28.75 46.75 28.75Z" fill="#FF5858"/>
<path d="M49.5 33.25C49.6164 33.4053 49.7674 33.5313 49.941 33.618C50.1146 33.7048 50.3059 33.75 50.5 33.75C50.7705 33.75 51.0336 33.6623 51.25 33.5L56.25 29.75C56.5152 29.5511 56.6905 29.255 56.7374 28.9268C56.7843 28.5986 56.6989 28.2652 56.5 28C56.3011 27.7348 56.005 27.5595 55.6768 27.5126C55.3486 27.4657 55.0152 27.5511 54.75 27.75L49.75 31.5C49.4848 31.6989 49.3095 31.995 49.2626 32.3232C49.2157 32.6514 49.3011 32.9848 49.5 33.25V33.25Z" fill="#FF5858"/>
<path d="M61.7504 36.0001C61.7207 35.8343 61.6578 35.6763 61.5655 35.5355C61.4732 35.3947 61.3534 35.274 61.2134 35.1806C61.0733 35.0872 60.9158 35.0231 60.7503 34.992C60.5848 34.961 60.4148 34.9638 60.2504 35.0001L54.0004 36.2501C53.8362 36.2665 53.6769 36.3151 53.5315 36.3931C53.3862 36.471 53.2576 36.5769 53.1531 36.7046C52.9421 36.9624 52.8422 37.2935 52.8754 37.6251C52.9085 37.9566 53.072 38.2614 53.3299 38.4723C53.5877 38.6833 53.9189 38.7832 54.2504 38.7501H54.5004L60.7504 37.5001C60.9161 37.4704 61.0741 37.4075 61.2149 37.3152C61.3557 37.2229 61.4765 37.1031 61.5699 36.9631C61.6633 36.823 61.7274 36.6655 61.7584 36.5C61.7894 36.3345 61.7867 36.1645 61.7504 36.0001Z" fill="#FF5858"/>
<path d="M4.25 36.25H19.25C19.5815 36.25 19.8995 36.1183 20.1339 35.8839C20.3683 35.6495 20.5 35.3315 20.5 35V15C20.5 14.6685 20.3683 14.3505 20.1339 14.1161C19.8995 13.8817 19.5815 13.75 19.25 13.75H4.25C3.91848 13.75 3.60054 13.8817 3.36612 14.1161C3.1317 14.3505 3 14.6685 3 15V35C3 35.3315 3.1317 35.6495 3.36612 35.8839C3.60054 36.1183 3.91848 36.25 4.25 36.25ZM5.5 16.25H18V33.75H5.5V16.25Z" fill="#FF5858"/>
<path d="M14.25 18.75H11.75C11.4185 18.75 11.1005 18.8817 10.8661 19.1161C10.6317 19.3505 10.5 19.6685 10.5 20C10.5 20.3315 10.6317 20.6495 10.8661 20.8839C11.1005 21.1183 11.4185 21.25 11.75 21.25H14.25C14.5815 21.25 14.8995 21.1183 15.1339 20.8839C15.3683 20.6495 15.5 20.3315 15.5 20C15.5 19.6685 15.3683 19.3505 15.1339 19.1161C14.8995 18.8817 14.5815 18.75 14.25 18.75Z" fill="#FF5858"/>
<path d="M14.25 23.75H9.25C8.91848 23.75 8.60054 23.8817 8.36612 24.1161C8.1317 24.3505 8 24.6685 8 25C8 25.3315 8.1317 25.6495 8.36612 25.8839C8.60054 26.1183 8.91848 26.25 9.25 26.25H14.25C14.5815 26.25 14.8995 26.1183 15.1339 25.8839C15.3683 25.6495 15.5 25.3315 15.5 25C15.5 24.6685 15.3683 24.3505 15.1339 24.1161C14.8995 23.8817 14.5815 23.75 14.25 23.75Z" fill="#FF5858"/>
<path d="M14.25 28.75H9.25C8.91848 28.75 8.60054 28.8817 8.36612 29.1161C8.1317 29.3505 8 29.6685 8 30C8 30.3315 8.1317 30.6495 8.36612 30.8839C8.60054 31.1183 8.91848 31.25 9.25 31.25H14.25C14.5815 31.25 14.8995 31.1183 15.1339 30.8839C15.3683 30.6495 15.5 30.3315 15.5 30C15.5 29.6685 15.3683 29.3505 15.1339 29.1161C14.8995 28.8817 14.5815 28.75 14.25 28.75Z" fill="#FF5858"/>
<path d="M45.6505 35.875C45.5684 35.7322 45.459 35.6069 45.3286 35.5064C45.1981 35.4059 45.0491 35.332 44.8901 35.2891C44.731 35.2461 44.5651 35.2349 44.4018 35.2561C44.2384 35.2773 44.0808 35.3304 43.938 35.4125C43.7952 35.4946 43.67 35.604 43.5694 35.7344C43.4689 35.8649 43.3951 36.0139 43.3521 36.1729C43.3092 36.332 43.298 36.4979 43.3191 36.6612C43.3403 36.8246 43.3934 36.9822 43.4755 37.125L48.988 46.6625L28.988 54.1625C28.988 54.1625 28.988 54.1625 28.9005 54.1625H28.8005L25.5505 56.0375L23.388 57.2875C23.1033 57.4521 22.789 57.5589 22.4629 57.6018C22.1369 57.6447 21.8056 57.6228 21.488 57.5375C20.85 57.3651 20.3062 56.9472 19.9755 56.375L17.4755 52.05C17.1814 51.4841 17.1147 50.8273 17.2889 50.2138C17.4632 49.6004 17.8653 49.0767 18.413 48.75L22.738 46.25L25.863 51.6625C25.9732 51.8532 26.1317 52.0115 26.3227 52.1213C26.5137 52.231 26.7303 52.2884 26.9505 52.2875C27.1704 52.2884 27.3865 52.2312 27.5773 52.1219C27.768 52.0125 27.9265 51.8548 28.0368 51.6646C28.1471 51.4745 28.2053 51.2586 28.2055 51.0387C28.2057 50.8189 28.1479 50.6029 28.038 50.4125L24.813 44.8375L40.5005 31.9L41.013 32.7875C41.0951 32.9303 41.2045 33.0555 41.335 33.1561C41.4655 33.2566 41.6145 33.3305 41.7735 33.3734C41.9325 33.4164 42.0984 33.4276 42.2618 33.4064C42.4251 33.3852 42.5827 33.3321 42.7255 33.25C42.8683 33.1679 42.9936 33.0585 43.0941 32.928C43.1946 32.7975 43.2685 32.6485 43.3114 32.4895C43.3544 32.3305 43.3656 32.1646 43.3444 32.0012C43.3232 31.8379 43.2701 31.6803 43.188 31.5375L41.938 29.375C41.8464 29.2184 41.7218 29.0836 41.5729 28.98C41.4239 28.8764 41.2542 28.8064 41.0755 28.775C40.8959 28.7411 40.711 28.7471 40.5339 28.7924C40.3568 28.8378 40.1918 28.9214 40.0505 29.0375L22.5505 43.4625L17.2255 46.5375C16.2699 47.0941 15.5258 47.9518 15.1096 48.9764C14.6935 50.001 14.6287 51.1347 14.9255 52.2L13.6755 52.9125C13.0315 53.2823 12.5117 53.8351 12.1822 54.5007C11.8527 55.1663 11.7283 55.9148 11.8247 56.6512C11.9211 57.3876 12.234 58.0788 12.7237 58.6372C13.2135 59.1955 13.858 59.5959 14.5755 59.7875C14.8936 59.8718 15.2214 59.9138 15.5505 59.9125C16.2081 59.9098 16.8539 59.7376 17.4255 59.4125L18.6755 58.7C19.276 59.3203 20.0311 59.7691 20.863 60C21.2902 60.1195 21.732 60.1784 22.1755 60.175C23.0541 60.177 23.9173 59.944 24.6755 59.5L25.763 58.875L28.263 63.2125C28.7599 64.0715 29.5769 64.6985 30.5352 64.9562C31.4935 65.214 32.5148 65.0814 33.3755 64.5875C33.8025 64.3415 34.1768 64.0137 34.4771 63.6229C34.7773 63.2321 34.9976 62.786 35.1253 62.31C35.253 61.834 35.2856 61.3375 35.2213 60.8489C35.157 60.3603 34.997 59.8892 34.7505 59.4625L32.4755 55.5L51.2255 48.4625C51.3956 48.3986 51.5496 48.2984 51.677 48.1688C51.8044 48.0393 51.902 47.8836 51.963 47.7125C52.0239 47.5434 52.0475 47.3632 52.0324 47.1842C52.0173 47.0052 51.9638 46.8315 51.8755 46.675L45.6505 35.875ZM16.1255 57.2375C15.9832 57.3198 15.826 57.3732 15.663 57.3946C15.5 57.4161 15.3343 57.4052 15.1755 57.3625C14.8553 57.2793 14.5811 57.0725 14.413 56.7875C14.3307 56.6451 14.2773 56.488 14.2559 56.3249C14.2344 56.1619 14.2454 55.9963 14.288 55.8375C14.3307 55.6779 14.4046 55.5283 14.5054 55.3974C14.6063 55.2665 14.7321 55.157 14.8755 55.075L15.963 54.45L17.213 56.6125L16.1255 57.2375ZM32.5755 60.7375C32.6578 60.8798 32.7112 61.037 32.7327 61.2C32.7541 61.3631 32.7432 61.5287 32.7005 61.6875C32.6114 62.0052 32.4002 62.2748 32.113 62.4375C31.8275 62.6015 31.4888 62.6462 31.1705 62.562C30.8522 62.4777 30.58 62.2713 30.413 61.9875L27.913 57.65L29.988 56.4625H30.088L32.5755 60.7375Z" fill="#FF5858"/>
</svg>
