<svg width="81" height="80" viewBox="0 0 81 80" fill="none" xmlns="http://www.w3.org/2000/svg">
<path d="M22.2738 14.9267C22.2738 18.6166 25.2756 21.6186 28.9656 21.6186C30.4344 21.6186 31.7516 21.1369 32.7747 20.2258C32.975 20.0472 33.1655 19.8508 33.3409 19.6417C33.757 19.1459 33.6922 18.4067 33.1964 17.9908C32.7005 17.5747 31.9614 17.6395 31.5455 18.1353C31.4427 18.2578 31.3317 18.3723 31.2158 18.4756C30.6203 19.0059 29.8633 19.2748 28.9656 19.2748C26.5681 19.2748 24.6175 17.3244 24.6175 14.9267C24.6175 12.5291 26.568 10.5786 28.9656 10.5786C29.8372 10.5786 30.6775 10.8352 31.3959 11.3205C31.9323 11.6828 32.6608 11.5417 33.023 11.0053C33.3853 10.4691 33.2442 9.74063 32.7078 9.37828C31.6005 8.63016 30.3064 8.23484 28.9655 8.23484C25.2756 8.23484 22.2738 11.2369 22.2738 14.9267ZM43.0858 12.2759C43.0858 10.0477 41.2002 8.23484 38.8823 8.23484H35.9487C35.9481 8.23484 35.9475 8.23484 35.9469 8.23484C35.9463 8.23484 35.9456 8.23484 35.9452 8.23484C35.298 8.23484 34.7733 8.75953 34.7733 9.40672V20.4466C34.7733 21.0938 35.298 21.6184 35.9452 21.6184C36.5923 21.6184 37.117 21.0938 37.117 20.4466V16.7702L41.0342 21.2208C41.2658 21.4841 41.5892 21.6184 41.9144 21.6184C42.1894 21.6184 42.4655 21.5222 42.6881 21.3263C43.1739 20.8986 43.2212 20.1581 42.7936 19.6723L39.7614 16.2273C41.6584 15.8377 43.0858 14.2144 43.0858 12.2759ZM38.8823 13.9731C38.4781 13.9731 37.7581 13.9763 37.1342 13.9794C37.1309 13.3678 37.1278 12.6673 37.1278 12.2759C37.1278 11.945 37.1259 11.2183 37.1241 10.5786H38.8822C39.8903 10.5786 40.7419 11.3559 40.7419 12.2759C40.7419 13.1959 39.8905 13.9731 38.8823 13.9731ZM64.7989 46.2955V42.295C64.7989 39.0642 62.1705 36.4356 58.9395 36.4356H41.6719L41.6717 29.8533H57.55C60.7809 29.8533 63.4094 27.2248 63.4094 23.9939V5.85938C63.4094 2.62844 60.7809 0 57.55 0H34.6258C33.9786 0 33.4539 0.524687 33.4539 1.17188C33.4539 1.81906 33.9786 2.34375 34.6258 2.34375H57.5498C59.4884 2.34375 61.0655 3.92078 61.0655 5.85938V23.9941C61.0655 25.9327 59.4884 27.5097 57.5498 27.5097H23.4502C21.5116 27.5097 19.9345 25.9327 19.9345 23.9941V5.85938C19.9345 3.92078 21.5116 2.34375 23.4502 2.34375H29.9383C30.5855 2.34375 31.1102 1.81906 31.1102 1.17188C31.1102 0.524687 30.5855 0 29.9383 0H23.4502C20.2192 0 17.5908 2.62844 17.5908 5.85938V23.9941C17.5908 27.225 20.2192 29.8534 23.4502 29.8534H39.3278L39.328 36.4358H22.0605C18.8295 36.4358 16.2011 39.0642 16.2011 42.2952V46.2991C7.40766 46.9137 0.5 54.2617 0.5 63.1278C0.5 66.6439 1.57031 70.0128 3.59516 72.8706C6.73594 77.3033 12.005 80 17.3722 80C26.5752 80 34.2458 72.3913 34.2458 63.1278C34.2458 54.2178 27.3039 46.8998 18.5447 46.2956V42.2952C18.5447 40.3567 20.1217 38.7795 22.0603 38.7795H58.9394C60.878 38.7795 62.455 40.3566 62.455 42.2952V46.2966C56.9787 46.6833 51.9427 49.7577 49.1137 54.5161C48.783 55.0725 48.9659 55.7916 49.5222 56.1222C50.0788 56.4531 50.7978 56.2702 51.1283 55.7139C53.7377 51.3245 58.5269 48.598 63.6267 48.598C71.6381 48.598 78.1559 55.1158 78.1559 63.127C78.1559 67.3466 76.3473 71.1511 73.4653 73.808C72.7656 71.0439 70.9253 68.6859 68.4023 67.3406C69.1484 66.3448 69.5909 65.1091 69.5909 63.7717C69.5909 62.6239 69.5909 59.1625 69.5909 57.9247C69.5909 55.7294 67.805 53.9434 65.6097 53.9434H61.6441C59.4487 53.9434 57.6628 55.7295 57.6628 57.9247V63.7717C57.6628 65.1102 58.1061 66.3469 58.8534 67.3431C58.0172 67.7903 57.24 68.3528 56.557 69.0153C55.1897 70.343 54.2436 71.9978 53.7884 73.8078C50.9064 71.1509 49.0977 67.3464 49.0977 63.1267C49.0977 61.9709 49.2337 60.8205 49.5019 59.708C49.6536 59.0788 49.2666 58.4458 48.6373 58.2941C48.0086 58.1423 47.3752 58.5294 47.2234 59.1586C46.9119 60.4509 46.7539 61.7858 46.7539 63.1267C46.7541 72.4719 54.4597 80 63.627 80C72.797 80 80.5 72.4861 80.5 63.127C80.5 54.2172 73.558 46.8994 64.7989 46.2955ZM17.3722 77.6562C14.595 77.6562 11.912 76.8559 9.61906 75.4097C9.82078 73.6203 10.6283 71.9658 11.9347 70.6973C12.6858 69.9688 13.5805 69.3964 14.5448 69.0214C15.387 69.4769 16.3502 69.7359 17.373 69.7359C18.3959 69.7359 19.3595 69.4767 20.2017 69.0211C22.9003 70.0683 24.7994 72.5369 25.1267 75.4088C22.8814 76.8313 20.2214 77.6562 17.3722 77.6562ZM17.0084 61.2744C18.1706 60.8919 19.4195 61.0639 20.4345 61.7472L20.9933 62.1233V63.7717C20.9933 65.768 19.3692 67.392 17.373 67.392C15.3767 67.392 13.7527 65.768 13.7527 63.7717V62.3469L17.0084 61.2744ZM13.7525 59.8795V57.9248C13.7525 57.0219 14.487 56.2873 15.39 56.2873H19.3558C20.2588 56.2873 20.9933 57.0219 20.9933 57.9248V59.3714C19.53 58.6522 17.8528 58.5283 16.275 59.0484L13.7525 59.8795ZM31.9022 63.1278C31.9022 67.3472 30.0934 71.1517 27.2111 73.8083C26.5116 71.0436 24.6714 68.6855 22.1488 67.3403C22.8947 66.3445 23.337 65.1089 23.337 63.7717V57.9247C23.337 55.7294 21.5511 53.9434 19.3558 53.9434H15.39C13.1947 53.9434 11.4088 55.7295 11.4088 57.9247V63.7717C11.4088 65.1098 11.8519 66.3466 12.5989 67.3427C11.7634 67.7894 10.9862 68.3519 10.3023 69.0153C8.9325 70.3453 7.98578 72.0023 7.53156 73.8136C6.78469 73.1272 6.10484 72.3586 5.50734 71.5153C3.76484 69.0561 2.84375 66.1556 2.84375 63.1278C2.84375 62.13 2.94578 61.1316 3.14688 60.1602C4.53625 53.4606 10.5188 48.598 17.3722 48.598C25.3841 48.5978 31.9022 55.1159 31.9022 63.1278ZM60.0067 57.9248C60.0067 57.0219 60.7412 56.2873 61.6442 56.2873H65.6098C66.5128 56.2873 67.2473 57.0219 67.2473 57.9248V59.3714C65.7841 58.6522 64.107 58.5284 62.5291 59.0486L60.0066 59.8795V57.9248H60.0067ZM60.0067 62.347L63.2625 61.2744C64.4248 60.8917 65.6734 61.0639 66.6888 61.747L67.2475 62.123V63.7717C67.2475 65.768 65.6234 67.392 63.6272 67.392C61.6309 67.392 60.0069 65.768 60.0069 63.7717V62.347H60.0067ZM63.627 77.6562C60.7784 77.6562 58.1192 76.8316 55.8741 75.4095C56.0769 73.6191 56.8844 71.9645 58.1894 70.6973C58.9388 69.9705 59.8333 69.3981 60.7992 69.0216C61.6413 69.4769 62.6044 69.7359 63.627 69.7359C64.6498 69.7359 65.6133 69.4769 66.4553 69.0212C69.1544 70.0686 71.0537 72.537 71.3813 75.4086C69.1361 76.8312 66.4762 77.6562 63.627 77.6562ZM47.0702 20.5686L48.3186 13.6511L50.3713 20.6083C50.3753 20.6222 50.3797 20.6361 50.3842 20.6497C50.5791 21.23 51.1198 21.6186 51.7314 21.6186H51.7386C52.3531 21.6155 52.8936 21.2208 53.0833 20.6363C53.0877 20.6228 53.0919 20.6092 53.0958 20.5956L55.0777 13.6434L56.4034 20.5805C56.5248 21.2162 57.1389 21.6336 57.7744 21.5116C58.4102 21.3902 58.8269 20.7762 58.7055 20.1406L56.6473 9.37234C56.5184 8.74047 55.9787 8.27359 55.3348 8.23734C54.692 8.20219 54.102 8.60422 53.903 9.2175C53.8986 9.23094 53.8945 9.24438 53.8906 9.25797L51.7164 16.8852L49.4625 9.24578C49.4584 9.23188 49.4541 9.21797 49.4495 9.20422C49.2442 8.5925 48.6494 8.19453 48.0072 8.23859C47.3633 8.28172 46.8286 8.75437 46.7041 9.40125L44.7636 20.152C44.6486 20.7889 45.0717 21.3984 45.7087 21.5134C46.3448 21.6281 46.9552 21.2055 47.0702 20.5686Z" fill="#FF5858"/>
</svg>
