<svg width="71" height="70" viewBox="0 0 71 70" fill="none" xmlns="http://www.w3.org/2000/svg">
<path d="M63.6641 0H7.33594C3.5666 0 0.5 3.0666 0.5 6.83594V63.1641C0.5 66.9334 3.5666 70 7.33594 70H63.6641C67.4334 70 70.5 66.9334 70.5 63.1641V6.83594C70.5 3.0666 67.4334 0 63.6641 0ZM67.7656 63.1641C67.7656 65.4257 65.9257 67.2656 63.6641 67.2656H7.33594C5.07434 67.2656 3.23438 65.4257 3.23438 63.1641V12.5712C3.27949 12.5757 3.32529 12.5781 3.37164 12.5781H67.7656V63.1641ZM67.7656 9.84375H3.37164C3.32529 9.84375 3.27949 9.84621 3.23438 9.85072V6.83594C3.23438 4.57434 5.07434 2.73438 7.33594 2.73438H63.6641C65.9257 2.73438 67.7656 4.57434 67.7656 6.83594V9.84375Z" fill="#FF5858"/>
<path d="M61.7499 4.92188H30.8604C30.1054 4.92188 29.4932 5.5341 29.4932 6.28906C29.4932 7.04402 30.1054 7.65625 30.8604 7.65625H61.7499C62.5049 7.65625 63.1171 7.04402 63.1171 6.28906C63.1171 5.5341 62.5049 4.92188 61.7499 4.92188Z" fill="#FF5858"/>
<path d="M15.6852 5.32246C15.4311 5.06803 15.0783 4.92188 14.7188 4.92188C14.3577 4.92188 14.0064 5.06803 13.7521 5.32246C13.4979 5.57689 13.3516 5.92949 13.3516 6.28906C13.3516 6.64863 13.4977 7.00137 13.7521 7.25553C14.0064 7.50996 14.3592 7.65625 14.7188 7.65625C15.0783 7.65625 15.4311 7.50996 15.6852 7.25553C15.9396 7.00137 16.0859 6.64863 16.0859 6.28906C16.0859 5.92949 15.9396 5.57676 15.6852 5.32246Z" fill="#FF5858"/>
<path d="M10.2165 5.32246C9.9623 5.06803 9.60957 4.92188 9.25 4.92188C8.89043 4.92188 8.5377 5.06803 8.2834 5.32246C8.0291 5.57689 7.88281 5.92949 7.88281 6.28906C7.88281 6.64863 8.02896 7.00137 8.2834 7.25553C8.5377 7.50996 8.89043 7.65625 9.25 7.65625C9.60957 7.65625 9.9623 7.50996 10.2165 7.25553C10.4709 7.00137 10.6172 6.64863 10.6172 6.28906C10.6172 5.92949 10.4709 5.57676 10.2165 5.32246Z" fill="#FF5858"/>
<path d="M21.154 5.32246C20.8998 5.06803 20.5471 4.92188 20.1875 4.92188C19.8279 4.92188 19.4752 5.06803 19.2209 5.32246C18.9666 5.57689 18.8203 5.92949 18.8203 6.28906C18.8203 6.64863 18.9665 7.00137 19.2209 7.25553C19.4752 7.50996 19.8279 7.65625 20.1875 7.65625C20.5471 7.65625 20.8998 7.50996 21.154 7.25553C21.4084 7.00137 21.5547 6.64863 21.5547 6.28906C21.5547 5.92949 21.4084 5.57676 21.154 5.32246Z" fill="#FF5858"/>
<path d="M33.267 15.5859H27.707C26.9521 15.5859 26.3398 16.1982 26.3398 16.9531C26.3398 17.7081 26.9521 18.3203 27.707 18.3203H33.267C33.7444 18.3203 34.1328 18.7087 34.1328 19.1862V29.8427L31.8128 26.8069C31.1015 25.8759 29.9777 25.3635 28.8097 25.4406C27.6406 25.5161 26.5928 26.1669 26.0071 27.1815L21.691 34.657L19.4649 31.2748C18.9317 30.4648 18.0343 29.9731 17.0646 29.9596C16.1021 29.945 15.1843 30.4127 14.6288 31.2078L10.6172 36.9496V19.1862C10.6172 18.7087 11.0056 18.3203 11.483 18.3203H15.8125C16.5675 18.3203 17.1797 17.7081 17.1797 16.9531C17.1797 16.1982 16.5675 15.5859 15.8125 15.5859H11.483C9.49787 15.5859 7.88281 17.201 7.88281 19.1862V40.9701C7.88281 42.9554 9.49787 44.5703 11.483 44.5703H33.267C35.2523 44.5703 36.8672 42.9554 36.8672 40.9701V19.1862C36.8672 17.201 35.2523 15.5859 33.267 15.5859ZM11.483 41.8359C11.1971 41.8359 10.9441 41.6961 10.7862 41.482L16.8702 32.7741C16.8842 32.7541 16.9262 32.6938 17.0233 32.6938C17.0245 32.6938 17.0256 32.6938 17.0266 32.6938C17.1261 32.6953 17.1671 32.7578 17.1808 32.7783L23.1424 41.8359H11.483ZM34.1328 40.9701C34.1328 41.4475 33.7444 41.8359 33.267 41.8359H26.4161L23.373 37.2125L28.3752 28.5487C28.5592 28.23 28.8635 28.1772 28.9859 28.1694C29.1083 28.1609 29.4166 28.1745 29.6402 28.4672L33.8326 33.9531C33.9197 34.0672 34.0214 34.1634 34.1328 34.2418V40.9701Z" fill="#FF5858"/>
<path d="M23.3415 15.9865C23.0873 15.7322 22.7346 15.5859 22.375 15.5859C22.0154 15.5859 21.6627 15.7321 21.4084 15.9865C21.1541 16.241 21.0078 16.5936 21.0078 16.9531C21.0078 17.3127 21.154 17.6654 21.4084 17.9196C21.6627 18.174 22.0154 18.3203 22.375 18.3203C22.7346 18.3203 23.0873 18.174 23.3415 17.9196C23.5959 17.6654 23.7422 17.3127 23.7422 16.9531C23.7422 16.5936 23.5959 16.2408 23.3415 15.9865Z" fill="#FF5858"/>
<path d="M35.5 53.8672H9.25C8.49504 53.8672 7.88281 54.4794 7.88281 55.2344C7.88281 55.9893 8.49504 56.6016 9.25 56.6016H35.5C36.255 56.6016 36.8672 55.9893 36.8672 55.2344C36.8672 54.4794 36.255 53.8672 35.5 53.8672Z" fill="#FF5858"/>
<path d="M35.5 48.3984H9.25C8.49504 48.3984 7.88281 49.0107 7.88281 49.7656C7.88281 50.5206 8.49504 51.1328 9.25 51.1328H35.5C36.255 51.1328 36.8672 50.5206 36.8672 49.7656C36.8672 49.0107 36.255 48.3984 35.5 48.3984Z" fill="#FF5858"/>
<path d="M28.6735 59.7365C28.4193 59.4821 28.0666 59.3359 27.707 59.3359C27.3475 59.3359 26.9947 59.4821 26.7404 59.7365C26.4861 59.991 26.3398 60.3436 26.3398 60.7031C26.3398 61.0627 26.486 61.4154 26.7404 61.6696C26.9947 61.9239 27.3475 62.0703 27.707 62.0703C28.0666 62.0703 28.4193 61.924 28.6735 61.6696C28.9279 61.4154 29.0742 61.0627 29.0742 60.7031C29.0742 60.3436 28.9279 59.9908 28.6735 59.7365Z" fill="#FF5858"/>
<path d="M22.375 59.3359H9.25C8.49504 59.3359 7.88281 59.9482 7.88281 60.7031C7.88281 61.4581 8.49504 62.0703 9.25 62.0703H22.375C23.13 62.0703 23.7422 61.4581 23.7422 60.7031C23.7422 59.9482 23.13 59.3359 22.375 59.3359Z" fill="#FF5858"/>
<path d="M60.1549 15.5859H45.2982C43.6648 15.5859 42.3359 16.9148 42.3359 18.5482V33.4049C42.3359 35.0383 43.6648 36.3672 45.2982 36.3672H60.1549C61.7883 36.3672 63.1172 35.0383 63.1172 33.4049V18.5482C63.1172 16.9148 61.7883 15.5859 60.1549 15.5859ZM60.3828 33.4049C60.3828 33.5305 60.2805 33.6328 60.1549 33.6328H45.2982C45.1726 33.6328 45.0703 33.5305 45.0703 33.4049V18.5482C45.0703 18.4226 45.1726 18.3203 45.2982 18.3203H60.1549C60.2805 18.3203 60.3828 18.4226 60.3828 18.5482V33.4049Z" fill="#FF5858"/>
<path d="M60.1549 41.8359H45.2982C43.6648 41.8359 42.3359 43.1648 42.3359 44.7982V59.6549C42.3359 61.2883 43.6648 62.6172 45.2982 62.6172H60.1549C61.7883 62.6172 63.1172 61.2883 63.1172 59.6549V44.7982C63.1172 43.1648 61.7883 41.8359 60.1549 41.8359ZM60.3828 59.6549C60.3828 59.7805 60.2805 59.8828 60.1549 59.8828H45.2982C45.1726 59.8828 45.0703 59.7805 45.0703 59.6549V44.7982C45.0703 44.6726 45.1726 44.5703 45.2982 44.5703H60.1549C60.2805 44.5703 60.3828 44.6726 60.3828 44.7982V59.6549Z" fill="#FF5858"/>
<path d="M55.9177 50.0724L52.5683 48.1404C51.7895 47.691 50.8597 47.6914 50.0812 48.1411C49.3027 48.5907 48.8379 49.396 48.8379 50.2951V54.1579C48.8379 55.0569 49.3025 55.862 50.0808 56.3117C50.4704 56.5368 50.898 56.6495 51.3255 56.6495C51.7521 56.6495 52.1786 56.5374 52.5676 56.3132H52.5677L55.9176 54.3822C56.697 53.9328 57.1624 53.1272 57.1626 52.2273C57.1624 51.3274 56.6972 50.5218 55.9177 50.0724ZM51.5723 53.7307V50.7226L54.1807 52.2271L51.5723 53.7307Z" fill="#FF5858"/>
<path d="M55.9177 23.8224L52.5683 21.8904C51.7895 21.4411 50.8597 21.4413 50.0812 21.8911C49.3027 22.3407 48.8379 23.146 48.8379 24.0451V27.9079C48.8379 28.8069 49.3025 29.612 50.0808 30.0617C50.4704 30.2868 50.8978 30.3995 51.3254 30.3995C51.7519 30.3995 52.1786 30.2874 52.5677 30.0632L55.9176 28.1321C56.697 27.6828 57.1624 26.8772 57.1626 25.9773C57.1624 25.0774 56.6972 24.2718 55.9177 23.8224ZM51.5723 27.4807V24.4726L54.1807 25.9771L51.5723 27.4807Z" fill="#FF5858"/>
</svg>
