<svg width="81" height="80" viewBox="0 0 81 80" fill="none" xmlns="http://www.w3.org/2000/svg">
<path d="M74.25 2.5H6.75C5.75579 2.50114 4.80262 2.89659 4.09961 3.59961C3.39659 4.30262 3.00114 5.25579 3 6.25V73.75C3.00114 74.7442 3.39659 75.6974 4.09961 76.4004C4.80262 77.1034 5.75579 77.4989 6.75 77.5H74.25C75.2442 77.4989 76.1974 77.1034 76.9004 76.4004C77.6034 75.6974 77.9989 74.7442 78 73.75V6.25C77.9989 5.25579 77.6034 4.30262 76.9004 3.59961C76.1974 2.89659 75.2442 2.50114 74.25 2.5ZM6.75 5H74.25C74.5814 5.00038 74.8991 5.1322 75.1335 5.36654C75.3678 5.60087 75.4996 5.9186 75.5 6.25V10H5.5V6.25C5.50038 5.9186 5.6322 5.60087 5.86654 5.36654C6.10087 5.1322 6.4186 5.00038 6.75 5ZM75.5 12.5V25H5.5V12.5H75.5ZM74.25 75H6.75C6.4186 74.9996 6.10087 74.8678 5.86654 74.6335C5.6322 74.3991 5.50038 74.0814 5.5 73.75V27.5H75.5V73.75C75.4996 74.0814 75.3678 74.3991 75.1335 74.6335C74.8991 74.8678 74.5814 74.9996 74.25 75Z" fill="#FF5858"/>
<path d="M8 8.75C8.69036 8.75 9.25 8.19036 9.25 7.5C9.25 6.80964 8.69036 6.25 8 6.25C7.30964 6.25 6.75 6.80964 6.75 7.5C6.75 8.19036 7.30964 8.75 8 8.75Z" fill="#FF5858"/>
<path d="M11.75 8.75C12.4404 8.75 13 8.19036 13 7.5C13 6.80964 12.4404 6.25 11.75 6.25C11.0596 6.25 10.5 6.80964 10.5 7.5C10.5 8.19036 11.0596 8.75 11.75 8.75Z" fill="#FF5858"/>
<path d="M15.5 8.75C16.1904 8.75 16.75 8.19036 16.75 7.5C16.75 6.80964 16.1904 6.25 15.5 6.25C14.8096 6.25 14.25 6.80964 14.25 7.5C14.25 8.19036 14.8096 8.75 15.5 8.75Z" fill="#FF5858"/>
<path d="M11.75 22.5C12.4917 22.5 13.2167 22.2801 13.8334 21.868C14.4501 21.456 14.9307 20.8703 15.2145 20.1851C15.4984 19.4998 15.5726 18.7458 15.4279 18.0184C15.2832 17.291 14.9261 16.6228 14.4016 16.0984C13.8772 15.5739 13.209 15.2168 12.4816 15.0721C11.7542 14.9274 11.0002 15.0016 10.3149 15.2855C9.62971 15.5693 9.04404 16.0499 8.63199 16.6666C8.21993 17.2833 8 18.0083 8 18.75C8.00112 19.7442 8.39657 20.6974 9.09959 21.4004C9.80261 22.1034 10.7558 22.4989 11.75 22.5ZM11.75 17.5C11.9972 17.5 12.2389 17.5733 12.4445 17.7107C12.65 17.848 12.8102 18.0432 12.9048 18.2716C12.9995 18.5001 13.0242 18.7514 12.976 18.9939C12.9277 19.2363 12.8087 19.4591 12.6339 19.6339C12.4591 19.8087 12.2363 19.9278 11.9939 19.976C11.7514 20.0242 11.5001 19.9995 11.2716 19.9048C11.0432 19.8102 10.848 19.65 10.7107 19.4445C10.5733 19.2389 10.5 18.9972 10.5 18.75C10.5004 18.4186 10.6322 18.1009 10.8665 17.8665C11.1009 17.6322 11.4186 17.5004 11.75 17.5Z" fill="#FF5858"/>
<path d="M19.25 22.5H51.75C52.0815 22.5 52.3995 22.3683 52.6339 22.1339C52.8683 21.8995 53 21.5815 53 21.25V16.25C53 15.9185 52.8683 15.6005 52.6339 15.3661C52.3995 15.1317 52.0815 15 51.75 15H19.25C18.9185 15 18.6005 15.1317 18.3661 15.3661C18.1317 15.6005 18 15.9185 18 16.25V21.25C18 21.5815 18.1317 21.8995 18.3661 22.1339C18.6005 22.3683 18.9185 22.5 19.25 22.5ZM50.5 20H46.75V17.5H50.5V20ZM20.5 17.5H44.25V20H20.5V17.5Z" fill="#FF5858"/>
<path d="M56.75 17.5H60.5V20H56.75V17.5Z" fill="#FF5858"/>
<path d="M63 17.5H66.75V20H63V17.5Z" fill="#FF5858"/>
<path d="M69.25 17.5H73V20H69.25V17.5Z" fill="#FF5858"/>
<path d="M26.75 30H9.25C8.91848 30 8.60054 30.1317 8.36612 30.3661C8.1317 30.6005 8 30.9185 8 31.25V51.25C8 51.5815 8.1317 51.8995 8.36612 52.1339C8.60054 52.3683 8.91848 52.5 9.25 52.5H26.75C27.0815 52.5 27.3995 52.3683 27.6339 52.1339C27.8683 51.8995 28 51.5815 28 51.25V31.25C28 30.9185 27.8683 30.6005 27.6339 30.3661C27.3995 30.1317 27.0815 30 26.75 30ZM25.5 50H10.5V32.5H25.5V50Z" fill="#FF5858"/>
<path d="M49.25 30H31.75C31.4185 30 31.1005 30.1317 30.8661 30.3661C30.6317 30.6005 30.5 30.9185 30.5 31.25V61.25C30.5 61.5815 30.6317 61.8995 30.8661 62.1339C31.1005 62.3683 31.4185 62.5 31.75 62.5H49.25C49.5815 62.5 49.8995 62.3683 50.1339 62.1339C50.3683 61.8995 50.5 61.5815 50.5 61.25V31.25C50.5 30.9185 50.3683 30.6005 50.1339 30.3661C49.8995 30.1317 49.5815 30 49.25 30ZM48 60H33V32.5H48V60Z" fill="#FF5858"/>
<path d="M71.75 30H54.25C53.9185 30 53.6005 30.1317 53.3661 30.3661C53.1317 30.6005 53 30.9185 53 31.25V55C53 55.3315 53.1317 55.6495 53.3661 55.8839C53.6005 56.1183 53.9185 56.25 54.25 56.25H71.75C72.0815 56.25 72.3995 56.1183 72.6339 55.8839C72.8683 55.6495 73 55.3315 73 55V31.25C73 30.9185 72.8683 30.6005 72.6339 30.3661C72.3995 30.1317 72.0815 30 71.75 30ZM70.5 53.75H55.5V32.5H70.5V53.75Z" fill="#FF5858"/>
<path d="M26.75 55H9.25C8.91848 55 8.60054 55.1317 8.36612 55.3661C8.1317 55.6005 8 55.9185 8 56.25V72.5H10.5V57.5H25.5V72.5H28V56.25C28 55.9185 27.8683 55.6005 27.6339 55.3661C27.3995 55.1317 27.0815 55 26.75 55Z" fill="#FF5858"/>
<path d="M71.75 58.75H54.25C53.9185 58.75 53.6005 58.8817 53.3661 59.1161C53.1317 59.3505 53 59.6685 53 60V72.5H55.5V61.25H70.5V72.5H73V60C73 59.6685 72.8683 59.3505 72.6339 59.1161C72.3995 58.8817 72.0815 58.75 71.75 58.75Z" fill="#FF5858"/>
<path d="M49.25 65H31.75C31.4185 65 31.1005 65.1317 30.8661 65.3661C30.6317 65.6005 30.5 65.9185 30.5 66.25V72.5H33V67.5H48V72.5H50.5V66.25C50.5 65.9185 50.3683 65.6005 50.1339 65.3661C49.8995 65.1317 49.5815 65 49.25 65Z" fill="#FF5858"/>
</svg>
