<svg width="81" height="80" viewBox="0 0 81 80" fill="none" xmlns="http://www.w3.org/2000/svg">
<path d="M60.9131 7.18231C61.5603 7.18231 62.085 6.65765 62.085 6.01044C62.085 5.36323 61.5603 4.83856 60.9131 4.83856C60.2659 4.83856 59.7412 5.36323 59.7412 6.01044C59.7412 6.65765 60.2659 7.18231 60.9131 7.18231Z" fill="#FF5858"/>
<path d="M20.0703 7.1875H36.1641C36.8114 7.1875 37.3359 6.66281 37.3359 6.01562C37.3359 5.36844 36.8114 4.84375 36.1641 4.84375H20.0703C19.423 4.84375 18.8984 5.36844 18.8984 6.01562C18.8984 6.66281 19.423 7.1875 20.0703 7.1875Z" fill="#FF5858"/>
<path d="M61.0078 17.7344C61.0078 17.0872 60.4833 16.5625 59.8359 16.5625H21.2422C20.5948 16.5625 20.0703 17.0872 20.0703 17.7344V31.6406C20.0703 32.2878 20.5948 32.8125 21.2422 32.8125H59.8359C60.4833 32.8125 61.0078 32.2878 61.0078 31.6406V17.7344ZM58.6641 30.4688H22.4141V18.9062H58.6641V30.4688Z" fill="#FF5858"/>
<path d="M59.7578 37.6562H21.1641C19.6523 37.6562 19.6523 40 21.1641 40H59.7578C61.2694 40 61.2694 37.6562 59.7578 37.6562Z" fill="#FF5858"/>
<path d="M59.7578 44.2188H21.1641C19.6523 44.2188 19.6523 46.5625 21.1641 46.5625H59.7578C61.2694 46.5625 61.2694 44.2188 59.7578 44.2188Z" fill="#FF5858"/>
<path d="M73.3408 40.7816L67.4136 33.455V28.6719C67.4136 27.1603 65.0698 27.1603 65.0698 28.6719V48.4081L60.6391 51.183C60.4242 50.9372 60.1094 50.7812 59.7573 50.7812H21.1636C20.8192 50.7812 20.5106 50.9306 20.2963 51.167L15.8513 48.4033V12.0312H65.07V21.4844C65.07 22.9959 67.4138 22.9959 67.4138 21.4844V5.19594C67.4138 2.33094 65.0995 0 62.2552 0H18.7416C15.8555 0 13.5075 2.33094 13.5075 5.19594V33.5517L7.65844 40.7816C6.22516 42.5533 5.46109 44.7155 5.46109 46.9919V62.5781C5.46109 64.0897 7.80484 64.0897 7.80484 62.5781V46.9919C7.80484 46.7227 7.82109 46.4545 7.85 46.1881L39.937 66.1383C40.3136 66.3723 40.802 66.3717 41.1777 66.1363L73.142 46.1183C73.1761 46.4075 73.1947 46.6991 73.1947 46.9919V72.6458C73.1947 75.4086 70.947 77.6561 68.1844 77.6561H12.7588C10.0272 77.6561 7.80469 75.4336 7.80469 72.7019V69.7656C7.80469 68.2541 5.46094 68.2541 5.46094 69.7656V72.702C5.46094 76.7261 8.73469 80 12.7588 80H68.1842C72.2392 80 75.5383 76.7009 75.5383 72.6459V46.992C75.5384 44.7389 74.7578 42.5334 73.3408 40.7816ZM57.5381 53.125L50.7556 57.3727C50.6731 57.3542 50.5877 57.3438 50.4997 57.3438H30.4997C30.4203 57.3438 30.3428 57.3519 30.268 57.3669L23.4453 53.125H57.5381ZM18.7416 2.34375H62.2552C63.8073 2.34375 65.07 3.62328 65.07 5.19594V9.6875H15.8513V5.19594C15.8513 3.62328 17.1477 2.34375 18.7416 2.34375ZM9.48063 42.2558L13.5073 37.2783V46.9461L8.50141 43.8336C8.76062 43.272 9.08813 42.7409 9.48063 42.2558ZM40.5533 63.7619L34.0002 59.6875H47.0592L40.5533 63.7619ZM67.4138 46.9403V37.1816L71.5186 42.2558C71.8972 42.7238 72.2147 43.2347 72.4694 43.7742L67.4138 46.9403Z" fill="#FF5858"/>
</svg>
