<svg width="81" height="80" viewBox="0 0 81 80" fill="none" xmlns="http://www.w3.org/2000/svg">
<path d="M6.47888 0.0152588C4.96582 0.169678 3.78174 1.45081 3.78174 3.00354V35.5133C3.78174 37.1698 5.12939 38.5168 6.78589 38.5168H35.8612C37.5177 38.5168 38.8647 37.1698 38.8647 35.5133C38.8647 34.5251 38.8647 3.71765 38.8647 3.00354C38.8647 1.45081 37.6807 0.169678 36.1682 0.0152588C36.0669 0.00549316 35.965 0 35.8612 0H6.78589C6.68213 0 6.57959 0.00549316 6.47888 0.0152588ZM35.8612 36.1731H6.78589C6.42761 36.1731 6.12549 35.871 6.12549 35.5133V11.2134H36.521V35.5133C36.521 35.871 36.2189 36.1731 35.8612 36.1731ZM36.521 3.00354V8.86902H6.12549V3.00354C6.12549 2.64587 6.42761 2.34375 6.78589 2.34375H35.8612C36.2189 2.34375 36.521 2.64587 36.521 3.00354Z" fill="#FF5858"/>
<path d="M20.9014 6.7785H21.7449C22.3925 6.7785 22.9167 6.2536 22.9167 5.60663C22.9167 4.95905 22.3925 4.43475 21.7449 4.43475H20.9014C20.2544 4.43475 19.7295 4.95905 19.7295 5.60663C19.7295 6.2536 20.2544 6.7785 20.9014 6.7785Z" fill="#FF5858"/>
<path d="M31.8931 14.7968H10.7529C10.1053 14.7968 9.58105 15.3217 9.58105 15.9686C9.58105 16.6156 10.1053 17.1405 10.7529 17.1405H31.8931C32.5406 17.1405 33.0649 16.6156 33.0649 15.9686C33.0649 15.3217 32.5406 14.7968 31.8931 14.7968Z" fill="#FF5858"/>
<path d="M31.8931 19.7912H10.7529C10.1053 19.7912 9.58105 20.3161 9.58105 20.9631C9.58105 21.6107 10.1053 22.1349 10.7529 22.1349H31.8931C32.5406 22.1349 33.0649 21.6107 33.0649 20.9631C33.0649 20.3161 32.5406 19.7912 31.8931 19.7912Z" fill="#FF5858"/>
<path d="M31.8931 24.7856H10.7529C10.1053 24.7856 9.58105 25.3105 9.58105 25.9575C9.58105 26.6051 10.1053 27.1294 10.7529 27.1294H31.8931C32.5406 27.1294 33.0649 26.6051 33.0649 25.9575C33.0649 25.3105 32.5406 24.7856 31.8931 24.7856Z" fill="#FF5858"/>
<path d="M31.8931 29.7802H10.7529C10.1053 29.7802 9.58105 30.3051 9.58105 30.9527C9.58105 31.5997 10.1053 32.1246 10.7529 32.1246H31.8931C32.5406 32.1246 33.0649 31.5997 33.0649 30.9527C33.0649 30.3051 32.5406 29.7802 31.8931 29.7802Z" fill="#FF5858"/>
<path d="M60.1066 4.43475H59.2637C58.6167 4.43475 58.0918 4.95905 58.0918 5.60663C58.0918 6.2536 58.6167 6.7785 59.2637 6.7785H60.1066C60.7542 6.7785 61.2791 6.2536 61.2791 5.60663C61.2791 4.95905 60.7542 4.43475 60.1066 4.43475Z" fill="#FF5858"/>
<path d="M70.2559 14.7968H49.1157C48.4681 14.7968 47.9438 15.3217 47.9438 15.9686C47.9438 16.6156 48.4681 17.1405 49.1157 17.1405H70.2559C70.9034 17.1405 71.4277 16.6156 71.4277 15.9686C71.4277 15.3217 70.9034 14.7968 70.2559 14.7968Z" fill="#FF5858"/>
<path d="M70.2559 19.7912H49.1157C48.4681 19.7912 47.9438 20.3161 47.9438 20.9631C47.9438 21.6107 48.4681 22.1349 49.1157 22.1349H70.2559C70.9034 22.1349 71.4277 21.6107 71.4277 20.9631C71.4277 20.3161 70.9034 19.7912 70.2559 19.7912Z" fill="#FF5858"/>
<path d="M70.2559 24.7856H49.1157C48.4681 24.7856 47.9438 25.3105 47.9438 25.9575C47.9438 26.6051 48.4681 27.1294 49.1157 27.1294H70.2559C70.9034 27.1294 71.4277 26.6051 71.4277 25.9575C71.4277 25.3105 70.9034 24.7856 70.2559 24.7856Z" fill="#FF5858"/>
<path d="M70.2559 29.7802H49.1157C48.4681 29.7802 47.9438 30.3051 47.9438 30.9527C47.9438 31.5997 48.4681 32.1246 49.1157 32.1246H70.2559C70.9034 32.1246 71.4277 31.5997 71.4277 30.9527C71.4277 30.3051 70.9034 29.7802 70.2559 29.7802Z" fill="#FF5858"/>
<path d="M3.78174 76.9963C3.78174 78.6528 5.12939 79.9999 6.78589 79.9999H35.8612C37.5177 79.9999 38.8647 78.6528 38.8647 76.9963C38.8647 76.0082 38.8647 45.2001 38.8647 44.4866C38.8647 42.8301 37.5177 41.4824 35.8612 41.4824H6.78589C5.12939 41.4824 3.78174 42.8301 3.78174 44.4866V76.9963ZM35.8612 77.6561H6.78589C6.42761 77.6561 6.12549 77.354 6.12549 76.9963V52.6958H36.521V76.9963C36.521 77.354 36.2189 77.6561 35.8612 77.6561ZM6.12549 44.4866C6.12549 44.1289 6.42761 43.8268 6.78589 43.8268H35.8612C36.2189 43.8268 36.521 44.1289 36.521 44.4866V50.3521H6.12549V44.4866Z" fill="#FF5858"/>
<path d="M21.7449 45.9173H20.9014C20.2544 45.9173 19.7295 46.4416 19.7295 47.0892C19.7295 47.7368 20.2544 48.261 20.9014 48.261H21.7449C22.3925 48.261 22.9167 47.7368 22.9167 47.0892C22.9167 46.4416 22.3925 45.9173 21.7449 45.9173Z" fill="#FF5858"/>
<path d="M31.8931 56.2792H10.7529C10.1053 56.2792 9.58105 56.8041 9.58105 57.4511C9.58105 58.0987 10.1053 58.6236 10.7529 58.6236H31.8931C32.5406 58.6236 33.0649 58.0987 33.0649 57.4511C33.0649 56.8041 32.5406 56.2792 31.8931 56.2792Z" fill="#FF5858"/>
<path d="M31.8931 61.2737H10.7529C10.1053 61.2737 9.58105 61.7986 9.58105 62.4456C9.58105 63.0931 10.1053 63.618 10.7529 63.618H31.8931C32.5406 63.618 33.0649 63.0931 33.0649 62.4456C33.0649 61.7986 32.5406 61.2737 31.8931 61.2737Z" fill="#FF5858"/>
<path d="M31.8931 66.2688H10.7529C10.1053 66.2688 9.58105 66.7931 9.58105 67.4407C9.58105 68.0876 10.1053 68.6125 10.7529 68.6125H31.8931C32.5406 68.6125 33.0649 68.0876 33.0649 67.4407C33.0649 66.7931 32.5406 66.2688 31.8931 66.2688Z" fill="#FF5858"/>
<path d="M31.8931 71.2632H10.7529C10.1053 71.2632 9.58105 71.7875 9.58105 72.4351C9.58105 73.0827 10.1053 73.607 10.7529 73.607H31.8931C32.5406 73.607 33.0649 73.0827 33.0649 72.4351C33.0649 71.7875 32.5406 71.2632 31.8931 71.2632Z" fill="#FF5858"/>
<path d="M60.1066 45.9173H59.2637C58.6167 45.9173 58.0918 46.4416 58.0918 47.0892C58.0918 47.7368 58.6167 48.261 59.2637 48.261H60.1066C60.7542 48.261 61.2791 47.7368 61.2791 47.0892C61.2791 46.4416 60.7542 45.9173 60.1066 45.9173Z" fill="#FF5858"/>
<path d="M49.1157 58.6236H70.2559C70.9034 58.6236 71.4277 58.0987 71.4277 57.4511C71.4277 56.8041 70.9034 56.2792 70.2559 56.2792H49.1157C48.4681 56.2792 47.9438 56.8041 47.9438 57.4511C47.9438 58.0987 48.4681 58.6236 49.1157 58.6236Z" fill="#FF5858"/>
<path d="M49.1157 63.618H70.2559C70.9034 63.618 71.4277 63.0931 71.4277 62.4456C71.4277 61.7986 70.9034 61.2737 70.2559 61.2737H49.1157C48.4681 61.2737 47.9438 61.7986 47.9438 62.4456C47.9438 63.0931 48.4681 63.618 49.1157 63.618Z" fill="#FF5858"/>
<path d="M49.1157 68.6125H70.2559C70.9034 68.6125 71.4277 68.0876 71.4277 67.4407C71.4277 66.7931 70.9034 66.2688 70.2559 66.2688H49.1157C48.4681 66.2688 47.9438 66.7931 47.9438 67.4407C47.9438 68.0876 48.4681 68.6125 49.1157 68.6125Z" fill="#FF5858"/>
<path d="M49.1157 73.607H70.2559C70.9034 73.607 71.4277 73.0827 71.4277 72.4351C71.4277 71.7875 70.9034 71.2632 70.2559 71.2632H49.1157C48.4681 71.2632 47.9438 71.7875 47.9438 72.4351C47.9438 73.0827 48.4681 73.607 49.1157 73.607Z" fill="#FF5858"/>
<path d="M77.2271 76.9963C77.2271 76.0082 77.2271 45.2001 77.2271 44.4866C77.2271 42.8301 75.8794 41.4824 74.2235 41.4824H45.1476C43.4911 41.4824 42.144 42.8301 42.144 44.4866V76.9963C42.144 78.6528 43.4911 79.9999 45.1476 79.9999H57.3723C58.0199 79.9999 58.5442 79.4756 58.5442 78.828C58.5442 78.1804 58.0199 77.6561 57.3723 77.6561H45.1476C44.7899 77.6561 44.4878 77.354 44.4878 76.9963V52.6958H74.8833V76.9963C74.8833 77.354 74.5806 77.6561 74.2235 77.6561H62.8417C62.1941 77.6561 61.6692 78.1804 61.6692 78.828C61.6692 79.4756 62.1941 79.9999 62.8417 79.9999H74.2235C75.8794 79.9999 77.2271 78.6522 77.2271 76.9963ZM44.4878 50.3521V44.4866C44.4878 44.1289 44.7899 43.8268 45.1476 43.8268H74.2235C74.5812 43.8268 74.8833 44.1289 74.8833 44.4866V50.3521H44.4878Z" fill="#FF5858"/>
<path d="M76.0552 22.135C76.7021 22.135 77.2271 21.6107 77.2271 20.9631C77.2271 20.5151 77.2271 3.19885 77.2271 3.00354C77.2271 1.45081 76.0424 0.169678 74.5299 0.0158691C74.4292 0.00549316 74.3267 0 74.2235 0H45.1476C45.0438 0 44.9419 0.00549316 44.8412 0.0152588C43.3281 0.169678 42.144 1.45081 42.144 3.00354V35.5133C42.144 37.1698 43.4917 38.5168 45.1476 38.5168H74.2235C75.8794 38.5168 77.2271 37.1698 77.2271 35.5133V26.4325C77.2271 25.7849 76.7028 25.26 76.0552 25.26C75.4076 25.26 74.8833 25.7849 74.8833 26.4325V35.5133C74.8833 35.871 74.5812 36.1731 74.2235 36.1731H45.1476C44.7899 36.1731 44.4878 35.871 44.4878 35.5133V11.2134H74.8833V20.9631C74.8833 21.6107 75.4076 22.135 76.0552 22.135ZM44.4878 8.86902V3.00354C44.4878 2.64587 44.7899 2.34375 45.1476 2.34375H74.2235C74.5812 2.34375 74.8833 2.64587 74.8833 3.00354V8.86902H44.4878Z" fill="#FF5858"/>
</svg>
