<svg width="81" height="80" viewBox="0 0 81 80" fill="none" xmlns="http://www.w3.org/2000/svg">
<g clip-path="url(#clip0_3099:309)">
<path d="M4.875 72.4232V78.0018C4.875 79.1035 5.771 80.0001 6.87268 80.0001H19.9507C21.0524 80.0001 21.9484 79.1035 21.9484 78.0018V72.4232C21.9484 69.7578 20.1991 67.494 17.7882 66.7176C18.5969 65.7374 19.084 64.4813 19.084 63.1135C19.084 60.3895 17.1535 58.1086 14.5894 57.5654V53.6927C14.5894 53.628 14.6419 53.5755 14.7059 53.5755H39.3917V57.5654C36.8276 58.1086 34.8976 60.3895 34.8976 63.1135C34.8976 64.4813 35.3841 65.7374 36.1928 66.7182C33.7825 67.494 32.0326 69.7578 32.0326 72.4232V78.0018C32.0326 79.1035 32.9292 80.0001 34.0309 80.0001H47.1083C48.21 80.0001 49.106 79.1035 49.106 78.0018V76.974C49.106 76.3233 48.5793 75.796 47.9287 75.796C47.278 75.796 46.7507 76.3233 46.7507 76.974V77.6441H45.4042V72.2505C45.4042 71.5998 44.8769 71.0725 44.2263 71.0725C43.5756 71.0725 43.0489 71.5998 43.0489 72.2505V77.6441H38.0904V72.2505C38.0904 71.5998 37.5637 71.0725 36.913 71.0725C36.2624 71.0725 35.735 71.5998 35.735 72.2505V77.6441H34.3886V72.4232C34.3886 70.4176 36.0201 68.7855 38.0263 68.7855H43.113C44.8384 68.7855 46.3387 70.0153 46.6799 71.7103C46.8081 72.3475 47.4288 72.7607 48.0666 72.6319C48.7044 72.5044 49.117 71.883 48.9888 71.2452C48.5531 69.0785 46.9643 67.3731 44.9446 66.7194C45.7546 65.7386 46.2416 64.4819 46.2416 63.1135C46.2416 60.3895 44.3117 58.1086 41.7476 57.5648V53.5755H66.4333C66.4974 53.5755 66.5499 53.628 66.5499 53.6921V57.5648C63.9852 58.1086 62.0553 60.3895 62.0553 63.1135C62.0553 64.4807 62.5417 65.7374 63.351 66.7176C60.9402 67.494 59.1909 69.7578 59.1909 72.4232V78.0018C59.1909 79.1035 60.0869 80.0001 61.1886 80.0001H74.266C75.3677 80.0001 76.2643 79.1035 76.2643 78.0018V72.4232C76.2643 69.7578 74.5144 67.494 72.1041 66.7176C72.9128 65.7374 73.3993 64.4813 73.3993 63.1135C73.3993 60.3895 71.4693 58.1086 68.9053 57.5648V53.6927C68.9053 52.3292 67.7962 51.2201 66.4333 51.2201H41.747V47.2925H56.6347C58.2192 47.2925 59.5083 46.0035 59.5083 44.419V35.835C59.5083 30.8612 55.2395 29.0491 55.0576 28.9746C55.0503 28.9716 55.0423 28.9685 55.035 28.9655L45.7271 25.3607V23.5645C47.17 22.3871 48.1874 20.708 48.5128 18.7964C50.461 18.5016 51.769 16.8848 51.769 15.0592C51.769 14.1962 51.4736 13.3698 50.945 12.7075V9.88525C50.945 5.32775 48.0172 1.37633 43.6599 0.0512536C43.0391 -0.137956 42.3799 0.212997 42.1907 0.835556C42.0015 1.45751 42.3525 2.11547 42.975 2.30467C46.3332 3.32579 48.5891 6.37206 48.5891 9.88525V11.1627C48.5091 10.8063 48.2442 10.4901 47.9152 10.1221C47.6265 9.79858 46.9155 9.04907 46.0109 8.07678C45.7466 7.79235 45.3981 7.59887 45.0002 7.5299C44.5656 7.45483 44.1054 7.53906 43.7117 7.79602C43.3339 8.04321 42.9439 8.27087 42.5453 8.48266C40.0801 9.79431 37.2627 10.4303 34.6376 10.2423C33.8625 10.1831 33.1404 10.6317 32.8426 11.3489C32.809 11.355 32.776 11.3611 32.7431 11.3678V9.88525C32.7431 6.45507 34.9318 3.43078 38.1893 2.359C38.8075 2.15575 39.1432 1.49046 38.94 0.872178C38.7367 0.254501 38.0709 -0.0811928 37.4538 0.121444C33.2271 1.51183 30.3877 5.43517 30.3877 9.88525V12.782C29.8531 13.4351 29.5638 14.2242 29.5638 15.0592C29.5638 16.9104 30.9084 18.5181 32.8176 18.8001C33.1514 20.791 34.2256 22.5067 35.7662 23.6804V25.3613L26.4687 28.9661C26.4613 28.9685 26.454 28.9716 26.4461 28.9746C26.4351 28.9795 26.4076 28.9911 26.3661 29.0094C25.7478 29.2884 21.9954 31.1725 21.9954 35.835V44.419C21.9954 46.0035 23.2845 47.2925 24.8689 47.2925H39.3917V51.2201H14.7059C13.3424 51.2201 12.234 52.3292 12.234 53.6927V57.5654C9.66993 58.1086 7.73938 60.3895 7.73938 63.1135C7.73938 64.4813 8.22584 65.7374 9.03516 66.7182C6.62427 67.494 4.875 69.7578 4.875 72.4232ZM43.8863 63.1135C43.8863 64.9421 42.3983 66.4301 40.5696 66.4301C38.7404 66.4301 37.253 64.9421 37.253 63.1135C37.253 61.2849 38.7404 59.7968 40.5696 59.7968C42.3983 59.7968 43.8863 61.2849 43.8863 63.1135ZM73.9089 72.4232V77.6448H72.5619V72.2505C72.5619 71.5998 72.0345 71.0725 71.3839 71.0725C70.7339 71.0725 70.2065 71.5998 70.2065 72.2505V77.6448H65.2486V72.2505C65.2486 71.5998 64.7213 71.0725 64.0707 71.0725C63.42 71.0725 62.8933 71.5998 62.8933 72.2505V77.6448H61.5462V72.4232C61.5462 70.4176 63.1783 68.7855 65.1839 68.7855H70.2712C72.2768 68.7855 73.9089 70.4176 73.9089 72.4232ZM71.0439 63.1135C71.0439 64.9421 69.5565 66.4301 67.7273 66.4301C65.8987 66.4301 64.4106 64.9421 64.4106 63.1135C64.4106 61.2849 65.8987 59.7968 67.7273 59.7968C69.5565 59.7968 71.0439 61.2849 71.0439 63.1135ZM40.7631 22.9798C37.2786 22.9798 35.0612 20.2661 35.0612 17.4713V12.6221C38.3571 12.7271 41.7708 11.7603 44.6022 10.0201C45.4927 10.9747 46.025 11.5332 46.2716 11.8134V17.4713C46.2716 20.4852 43.8149 22.9798 40.7631 22.9798ZM48.6269 16.3275V13.7946C49.1188 14.0418 49.413 14.5294 49.413 15.0592C49.413 15.5841 49.1237 16.0791 48.6269 16.3275ZM31.9191 15.0592C31.9191 14.549 32.2524 14.1168 32.7059 13.8654V16.3275C32.2133 16.0822 31.9191 15.5896 31.9191 15.0592ZM40.7631 25.3351C41.6634 25.3351 42.5673 25.174 43.3718 24.8902V25.5475C43.3718 26.2885 43.7752 26.9745 44.4033 27.3444C42.3177 29.422 39.0822 29.4342 36.9832 27.3987C37.6723 27.0337 38.1215 26.3056 38.1215 25.5145V24.9237C38.9559 25.1947 39.8726 25.3351 40.7631 25.3351ZM24.3514 44.419V35.8356C24.3514 32.5092 27.1529 31.2354 27.336 31.156C35.3078 28.0652 31.4412 29.5642 34.6187 28.3325L35.0838 28.8269C38.1508 32.085 43.1826 32.085 46.249 28.8263L46.7574 28.2862C51.4644 30.1087 49.8397 29.4794 54.1683 31.156C55.837 31.8787 57.1529 33.6872 57.1529 35.8356V44.419C57.1529 44.7046 56.9204 44.9372 56.6347 44.9372H53.1759V37.2931C53.1759 36.6425 52.6485 36.1158 51.9979 36.1158C51.3472 36.1158 50.8205 36.6425 50.8205 37.2931V44.9372H30.6838V37.2931C30.6838 36.6425 30.157 36.1158 29.5064 36.1158C28.8558 36.1158 28.3284 36.6425 28.3284 37.2931V44.9372H24.8695C24.5839 44.9372 24.3514 44.7046 24.3514 44.419ZM13.4114 59.7968C15.2406 59.7968 16.728 61.2849 16.728 63.1135C16.728 64.9421 15.2406 66.4301 13.4114 66.4301C11.5828 66.4301 10.0947 64.9421 10.0947 63.1135C10.0947 61.2849 11.5828 59.7968 13.4114 59.7968ZM7.23035 72.4232C7.23035 70.4176 8.86243 68.7855 10.8681 68.7855H15.9553C17.961 68.7855 19.593 70.4176 19.593 72.4232V77.6448H18.246V72.2505C18.246 71.5998 17.7186 71.0725 17.0686 71.0725C16.418 71.0725 15.8906 71.5998 15.8906 72.2505V77.6448H10.9327V72.2505C10.9327 71.5998 10.4054 71.0725 9.75477 71.0725C9.10413 71.0725 8.5774 71.5998 8.5774 72.2505V77.6448H7.23035V72.4232Z" fill="#FF5858"/>
</g>
<defs>
<clipPath id="clip0_3099:309">
<rect width="80" height="80" fill="white" transform="translate(0.5)"/>
</clipPath>
</defs>
</svg>
