<svg width="81" height="70" viewBox="0 0 81 70" fill="none" xmlns="http://www.w3.org/2000/svg">
<path d="M77.1406 59.0623H74.7933C75.0944 58.4754 75.2656 57.8114 75.2656 57.1076L75.2641 16.4836C75.2641 14.1143 73.3364 12.1867 70.9672 12.1867H64.6406V10.7554C64.6406 9.62684 63.7225 8.70856 62.5938 8.70856H60.6542V2.82809C60.6542 2.16731 60.3328 1.54403 59.7947 1.16059C59.2564 0.777309 58.5623 0.677309 57.9377 0.893402L54.2464 2.16981C53.6348 2.38137 53.3105 3.04856 53.5219 3.66028C53.7334 4.27184 54.4002 4.597 55.0123 4.38481L58.3103 3.24434V31.4286L41.6719 37.1825V8.99825L50.287 6.01903C50.8988 5.80747 51.223 5.14028 51.0116 4.52856C50.8 3.917 50.1334 3.59215 49.5211 3.80403L40.5 6.92356L23.0623 0.893402C22.4377 0.677152 21.7436 0.777309 21.2053 1.16059C20.6672 1.54403 20.3458 2.16731 20.3458 2.82809V8.7084H18.4062C17.2775 8.7084 16.3594 9.62669 16.3594 10.7553V12.1881H10.0312C7.66188 12.1881 5.73438 14.1157 5.73438 16.485L5.73453 20.6523C5.73453 21.2997 6.25922 21.8242 6.90641 21.8242C7.55359 21.8242 8.07828 21.2995 8.07828 20.6523L8.07812 16.4851C8.07812 15.4081 8.95422 14.532 10.0312 14.532H16.3594V16.8757H11.5938C11.283 16.8757 10.9848 16.9992 10.7652 17.219C10.5453 17.4387 10.4219 17.7368 10.4219 18.0476L10.4234 55.5467C10.4234 56.194 10.9481 56.7186 11.5953 56.7186L69.4062 56.717C69.717 56.717 70.0152 56.5936 70.235 56.3737C70.4547 56.154 70.5781 55.8559 70.5781 55.5451L70.5766 18.0461C70.5766 17.3987 70.0519 16.8742 69.4047 16.8742H64.6406V14.5304H70.9672C72.0442 14.5304 72.9203 15.4065 72.9203 16.4836L72.9219 57.1076C72.9219 58.1847 72.0458 59.0608 70.9688 59.0608L10.0328 59.0623C8.95578 59.0623 8.07969 58.1862 8.07969 57.1092L8.07859 25.667C8.07859 25.0197 7.55391 24.4951 6.90672 24.4951C6.25953 24.4951 5.73484 25.0198 5.73484 25.667L5.73594 57.1092C5.73594 57.8123 5.90672 58.4759 6.2075 59.0623H3.85938C2.00703 59.0623 0.5 60.5693 0.5 62.4217V65.8592C0.5 67.7117 2.00703 69.2187 3.85938 69.2187H50.4502C51.0975 69.2187 51.622 68.6942 51.622 68.0468C51.622 67.3995 51.0975 66.875 50.4502 66.875H3.85938C3.29938 66.875 2.84375 66.4193 2.84375 65.8593V62.4218C2.84375 61.8618 3.29938 61.4062 3.85938 61.4062H32.6094V62.2297C32.6094 63.8434 33.9223 65.1564 35.5361 65.1564H45.4641C47.0778 65.1564 48.3906 63.8436 48.3906 62.2297V61.4062H77.1406C77.7006 61.4062 78.1562 61.8618 78.1562 62.4218V65.8593C78.1562 66.4193 77.7006 66.875 77.1406 66.875H55.5664C54.9191 66.875 54.3945 67.3995 54.3945 68.0468C54.3945 68.6942 54.9191 69.2187 55.5664 69.2187H77.1406C78.993 69.2187 80.5 67.7117 80.5 65.8593V62.4218C80.5 60.5693 78.993 59.0623 77.1406 59.0623ZM59.2764 33.5743C60.1005 33.2892 60.6542 32.5117 60.6542 31.6398V11.0523H62.2969V37.6558H47.4744L59.2764 33.5743ZM22.6895 3.24434L39.3281 8.99825V37.1825L22.6895 31.4286V3.24434ZM18.7031 11.0523H20.3458V31.64C20.3458 32.5118 20.8995 33.2893 21.7239 33.5747L33.5256 37.6559H18.7031V11.0523ZM68.2328 19.2179L68.2344 54.3733L12.767 54.3748L12.7656 19.2195H16.3594V37.9526C16.3594 39.0812 17.2775 39.9995 18.4062 39.9995H62.5938C63.7225 39.9995 64.6406 39.0812 64.6406 37.9526V19.2179H68.2328ZM46.0469 62.2295C46.0469 62.5509 45.7853 62.8125 45.4641 62.8125H35.5361C35.2147 62.8125 34.9531 62.5509 34.9531 62.2295V61.4061H46.0469V62.2295Z" fill="#FF5858"/>
<path d="M55.8923 43.3417H25.1074C24.4602 43.3417 23.9355 43.8663 23.9355 44.5136C23.9355 45.161 24.4602 45.6855 25.1074 45.6855H55.8923C56.5396 45.6855 57.0641 45.161 57.0641 44.5136C57.0641 43.8663 56.5394 43.3417 55.8923 43.3417Z" fill="#FF5858"/>
<path d="M45.0721 48.3127H25.1074C24.4602 48.3127 23.9355 48.8373 23.9355 49.4846C23.9355 50.132 24.4602 50.6565 25.1074 50.6565H45.0721C45.7195 50.6565 46.244 50.132 46.244 49.4846C46.244 48.8373 45.7193 48.3127 45.0721 48.3127Z" fill="#FF5858"/>
</svg>
