<svg width="74" height="68" viewBox="0 0 74 68" fill="none" xmlns="http://www.w3.org/2000/svg">
<path d="M59.5706 5.1568H29.8386C29.0476 5.1568 28.4062 5.7983 28.4062 6.58919C28.4062 7.38023 29.0477 8.02159 29.8386 8.02159H59.5706C60.3617 8.02159 61.003 7.38009 61.003 6.58919C61.003 5.7983 60.3615 5.1568 59.5706 5.1568Z" fill="#FF5858"/>
<path d="M15.3158 5.57643C15.0493 5.30993 14.6799 5.1568 14.303 5.1568C13.9263 5.1568 13.5567 5.30993 13.2904 5.57643C13.0239 5.84293 12.8706 6.21104 12.8706 6.58919C12.8706 6.96591 13.0239 7.33546 13.2904 7.60182C13.5566 7.86832 13.9263 8.02159 14.303 8.02159C14.6799 8.02159 15.0493 7.86832 15.3158 7.60182C15.5823 7.3356 15.7354 6.96591 15.7354 6.58919C15.7354 6.21233 15.5823 5.84279 15.3158 5.57643Z" fill="#FF5858"/>
<path d="M10.0511 5.57643C9.78462 5.30993 9.41521 5.1568 9.03835 5.1568C8.66163 5.1568 8.29209 5.30993 8.02573 5.57643C7.75923 5.84293 7.60596 6.21248 7.60596 6.58919C7.60596 6.96591 7.75923 7.33546 8.02573 7.60182C8.29194 7.86832 8.66163 8.02159 9.03835 8.02159C9.41521 8.02159 9.78462 7.86832 10.0511 7.60182C10.3176 7.3356 10.4707 6.96591 10.4707 6.58919C10.4709 6.21233 10.3178 5.84279 10.0511 5.57643Z" fill="#FF5858"/>
<path d="M20.5794 5.57643C20.3116 5.30993 19.9435 5.1568 19.5652 5.1568C19.1885 5.1568 18.8204 5.30993 18.5526 5.57643C18.2862 5.84293 18.1328 6.21248 18.1328 6.58919C18.1328 6.96591 18.2861 7.33546 18.5526 7.60182C18.8202 7.86832 19.1885 8.02159 19.5652 8.02159C19.9435 8.02159 20.3115 7.86832 20.5794 7.60182C20.8459 7.3356 20.9976 6.96591 20.9976 6.58919C20.9977 6.21233 20.8459 5.84279 20.5794 5.57643Z" fill="#FF5858"/>
<path d="M73.5587 59.6603L62.2823 48.384L64.0513 46.6149C64.0518 46.6145 64.0523 46.614 64.0528 46.6136C64.0532 46.6132 64.0536 46.6126 64.0541 46.6122L65.8227 44.8435L71.3934 50.4144C71.953 50.9736 72.8597 50.9736 73.4192 50.4144C73.9786 49.855 73.9786 48.948 73.4192 48.3886L66.8358 41.8051C66.2765 41.246 65.3698 41.2457 64.8099 41.8051L63.0399 43.575L62.1824 42.7175C64.6453 39.7975 66.132 36.0284 66.132 31.9182C66.132 22.6687 58.6069 15.1437 49.3574 15.1437C44.5922 15.1437 40.2847 17.1411 37.2282 20.3424C37.2147 20.342 37.2016 20.3404 37.1882 20.3404H9.66741C8.87637 20.3404 8.23502 20.9819 8.23502 21.7728V41.8266C8.23502 42.6176 8.87652 43.259 9.66741 43.259H37.0086C40.0769 46.5972 44.4767 48.6929 49.3573 48.6929C53.4675 48.6929 57.2362 47.2062 60.1566 44.7433L61.014 45.6008L59.2435 47.3713C58.975 47.6399 58.824 48.0044 58.824 48.3843C58.824 48.7641 58.975 49.1284 59.2435 49.3972L65.2451 55.3987V61.594C65.2451 63.3316 63.8315 64.7452 62.0938 64.7452H6.51617C4.77853 64.7452 3.36493 63.3316 3.36493 61.594V13.1774C3.37024 13.1774 3.37541 13.1783 3.38058 13.1783H65.2452V19.6346C65.2452 20.4257 65.8867 21.067 66.6776 21.067C67.4685 21.067 68.11 20.4255 68.11 19.6346V6.01617C68.11 2.69889 65.4113 0 62.0938 0H6.51617C3.19875 0 0.5 2.69889 0.5 6.01617V61.5938C0.5 64.9111 3.19875 67.61 6.51617 67.61H62.0938C65.4111 67.61 68.11 64.9113 68.11 61.5938V58.2632L71.5329 61.6861C71.8126 61.9657 72.1791 62.1056 72.5458 62.1056C72.9125 62.1056 73.2789 61.9657 73.5587 61.6861C74.118 61.1267 74.118 60.2197 73.5587 59.6603ZM32.5882 32.3542L30.7831 28.8673C30.4194 28.1647 29.5547 27.8901 28.8523 28.2538C28.1498 28.6175 27.8751 29.4818 28.2387 30.1846L31.6024 36.6821C31.8571 37.1742 32.3574 37.4562 32.8756 37.4562C33.0774 37.4562 33.2816 37.4112 33.4754 37.3213C33.8429 38.399 34.3181 39.4271 34.8867 40.3941H11.0998V23.205H35.028C33.4771 25.7462 32.5826 28.7296 32.5826 31.9181C32.5826 32.0641 32.5844 32.2094 32.5882 32.3542ZM49.3573 45.8277C41.6875 45.8277 35.4475 39.588 35.4475 31.9181C35.4475 31.8089 35.4491 31.7001 35.4517 31.5915L38.0867 36.6818C38.3331 37.1579 38.8239 37.4558 39.3586 37.4558C39.3658 37.4558 39.3731 37.4558 39.3802 37.4557C39.9232 37.4475 40.4149 37.133 40.65 36.6435L43.7706 30.146C44.113 29.4328 43.8125 28.5773 43.0994 28.2346C42.3869 27.8923 41.5307 28.1927 41.188 28.9058L39.3107 32.8149L37.2672 28.8675C37.0105 28.3716 36.5043 28.0902 35.9819 28.0945C37.6473 22.278 43.0129 18.0083 49.3573 18.0083C57.0271 18.0083 63.267 24.2484 63.267 31.9181C63.267 39.5878 57.027 45.8277 49.3573 45.8277ZM3.36479 6.01617C3.36479 4.27853 4.77838 2.86493 6.51603 2.86493H62.0937C63.8313 2.86493 65.2449 4.27853 65.2449 6.01617V10.3134H3.38043C3.37512 10.3134 3.36996 10.3141 3.36479 10.3142V6.01617Z" fill="#FF5858"/>
<path d="M26.6867 28.2346C25.9742 27.8925 25.118 28.1927 24.7753 28.9058L22.898 32.8148L20.8545 28.8673C20.6049 28.3849 20.1061 28.0838 19.561 28.0935C19.018 28.1017 18.5263 28.4161 18.2912 28.9057L16.4139 32.8146L14.3705 28.8672C14.0068 28.1644 13.1419 27.8899 12.4398 28.2535C11.7372 28.6172 11.4625 29.4816 11.8261 30.1842L15.1896 36.6817C15.4394 37.1642 15.9419 37.4639 16.4831 37.4555C17.0262 37.4474 17.5178 37.1329 17.7529 36.6434L19.6302 32.7343L21.6737 36.6817C21.9201 37.1578 22.4109 37.4557 22.9456 37.4557C22.9528 37.4557 22.9601 37.4557 22.9671 37.4555C23.5102 37.4474 24.0019 37.1329 24.2369 36.6434L27.3576 30.1459C27.7003 29.4329 27.4 28.5773 26.6867 28.2346Z" fill="#FF5858"/>
<path d="M59.5129 28.2345C58.7996 27.8924 57.9441 28.1926 57.6014 28.9057L55.7241 32.8147L53.6807 28.8671C53.4311 28.3849 52.9261 28.0869 52.3872 28.0935C51.8441 28.1016 51.3525 28.4161 51.1174 28.9056L49.2401 32.8147L47.1967 28.8671C46.833 28.1648 45.9689 27.89 45.2658 28.2536C44.5633 28.6173 44.2887 29.4817 44.6523 30.1844L48.016 36.6819C48.2624 37.1577 48.7532 37.4558 49.2879 37.4558C49.2952 37.4558 49.3024 37.4558 49.3094 37.4556C49.8525 37.4474 50.3442 37.133 50.5792 36.6435L52.4565 32.7345L54.5 36.6821C54.7464 37.1578 55.2372 37.4559 55.7719 37.4559C55.7792 37.4559 55.7864 37.4559 55.7935 37.4558C56.3365 37.4476 56.8282 37.1332 57.0632 36.6436L60.1838 30.1461C60.5263 29.4329 60.2258 28.5772 59.5129 28.2345Z" fill="#FF5858"/>
<path d="M10.6789 54.5648C10.4127 54.297 10.043 54.1452 9.66628 54.1452C9.28956 54.1452 8.92002 54.297 8.65352 54.5648C8.38701 54.8313 8.23389 55.2009 8.23389 55.5776C8.23389 55.9543 8.38701 56.3239 8.65352 56.5902C8.92002 56.8567 9.28956 57.01 9.66628 57.01C10.043 57.01 10.4125 56.8567 10.6789 56.5902C10.9454 56.324 11.0987 55.9543 11.0987 55.5776C11.0987 55.2009 10.9454 54.8313 10.6789 54.5648Z" fill="#FF5858"/>
<path d="M42.4794 54.1466H14.5852C13.7942 54.1466 13.1528 54.788 13.1528 55.579C13.1528 56.37 13.7943 57.0114 14.5852 57.0114H42.4793C43.2703 57.0114 43.9117 56.3699 43.9117 55.579C43.9118 54.788 43.2704 54.1466 42.4794 54.1466Z" fill="#FF5858"/>
<path d="M37.1688 47.2702H28.7176C27.9265 47.2702 27.2852 47.9117 27.2852 48.7026C27.2852 49.4936 27.9267 50.135 28.7176 50.135H37.1688C37.9599 50.135 38.6012 49.4935 38.6012 48.7026C38.6012 47.9117 37.9599 47.2702 37.1688 47.2702Z" fill="#FF5858"/>
<path d="M22.2846 47.2702H9.66628C8.87524 47.2702 8.23389 47.9117 8.23389 48.7026C8.23389 49.4936 8.87539 50.135 9.66628 50.135H22.2846C23.0756 50.135 23.717 49.4935 23.717 48.7026C23.717 47.9117 23.0756 47.2702 22.2846 47.2702Z" fill="#FF5858"/>
</svg>
