<svg width="70" height="70" viewBox="0 0 70 70" fill="none" xmlns="http://www.w3.org/2000/svg">
<path d="M47.7176 43.8985C47.4992 43.2925 46.831 42.9784 46.2252 43.1967C45.6192 43.4151 45.305 44.0834 45.5234 44.6892C45.5288 44.7041 45.5345 44.7188 45.5405 44.7335C46.604 47.5091 46.681 49.6316 45.7504 50.5646C44.6215 51.6911 41.8098 51.3389 38.2272 49.6246C33.4308 47.1342 29.0711 43.8807 25.3184 39.9917C16.1835 30.8556 12.4143 21.891 14.7455 19.5597C15.4894 18.9722 16.4564 18.7466 17.3835 18.944C18.0258 18.9912 18.5848 18.5087 18.6321 17.8664C18.6777 17.2455 18.2277 16.6983 17.6097 16.6232C15.9883 16.3363 14.3247 16.8091 13.0965 17.906C8.82353 22.1779 15.3555 33.321 23.6694 41.6361C27.6084 45.7123 32.1855 49.1192 37.2207 51.7226C38.1325 52.1592 39.0722 52.5352 40.0336 52.848L31.7477 55.9898C20.6833 51.7833 12.7182 41.9743 10.8726 30.2819C10.7727 29.6455 10.1759 29.2105 9.53958 29.3104C8.90327 29.4103 8.46827 30.0071 8.56813 30.6434C8.75122 31.8096 8.99613 32.9758 9.29584 34.1164C11.9813 44.2914 19.0545 52.7442 28.5966 57.1816L14.959 62.3421C14.8964 62.2377 14.8177 62.1442 14.7257 62.0646C11.2597 59.2818 9.08505 55.2008 8.70807 50.7722L8.16695 44.2192C8.12439 43.5844 7.5751 43.1042 6.9401 43.1467C6.928 43.1476 6.9159 43.1485 6.90395 43.1498C6.26195 43.2008 5.78278 43.7628 5.83381 44.4048C5.83395 44.4074 5.83424 44.4102 5.83453 44.4128L6.38499 50.9634C6.79491 55.6972 9.00312 60.0938 12.5554 63.2494L2.82688 66.9323L4.5762 59.7531C4.72882 59.127 4.34514 58.4958 3.71903 58.3432C3.09292 58.1906 2.46171 58.5742 2.30908 59.2004L0.0338104 68.53C-0.119546 69.1556 0.263262 69.7871 0.888933 69.9403C1.11838 69.9965 1.35935 69.9817 1.5802 69.898L44.7299 53.5711C44.7986 53.5375 44.8635 53.4969 44.9235 53.4498C45.8574 53.3063 46.7231 52.8745 47.3994 52.2148C48.555 51.059 49.5497 48.6765 47.7176 43.8985Z" fill="#FF5858"/>
<path d="M58.7228 40.8909C52.4184 38.5308 45.6044 37.8691 38.9637 38.9725L34.7969 39.6722C34.1643 39.7938 33.7502 40.405 33.8718 41.0376C33.9893 41.6487 34.5658 42.0599 35.1817 41.972L39.3474 41.2781C45.584 40.2412 51.9837 40.8631 57.9041 43.0811C58.0355 43.1276 58.1741 43.1509 58.3135 43.1499C58.9575 43.1509 59.4805 42.6297 59.4816 41.9855C59.4824 41.4979 59.1798 41.0613 58.7228 40.8909Z" fill="#FF5858"/>
<path d="M62.8684 22.8229C62.5914 22.2413 61.8955 21.9943 61.3138 22.2713L36.8234 33.9334C36.2419 34.2102 35.9948 34.906 36.2717 35.4877C36.2717 35.4878 36.2718 35.488 36.2718 35.488C36.5487 36.0695 37.2444 36.3165 37.8261 36.0397C37.8262 36.0397 37.8262 36.0396 37.8264 36.0396L62.3168 24.3775C62.8984 24.1005 63.1454 23.4046 62.8684 22.8229Z" fill="#FF5858"/>
<path d="M28.3235 7.91521C28.1952 7.284 27.5796 6.87627 26.9484 7.00455C26.3172 7.13283 25.9094 7.74844 26.0377 8.37966C26.0405 8.39365 26.0437 8.4075 26.047 8.42135C27.5232 15.0161 26.9148 21.9067 24.3059 28.1408L22.6102 32.2097C22.3652 32.8026 22.6449 33.482 23.2365 33.7304C23.3782 33.79 23.5305 33.8205 23.6843 33.8202C24.155 33.8202 24.5795 33.5374 24.7607 33.103L26.4575 29.0388C29.2528 22.3609 29.9049 14.9797 28.3235 7.91521Z" fill="#FF5858"/>
<path d="M64.1441 41.9839C62.2119 41.9839 60.6455 43.5503 60.6455 45.4825C60.6455 47.4148 62.2119 48.9811 64.1441 48.9811C66.0764 48.9811 67.6428 47.4148 67.6428 45.4825C67.6428 43.5503 66.0764 41.9839 64.1441 41.9839ZM64.1441 46.6487C63.5001 46.6487 62.9779 46.1266 62.9779 45.4825C62.9779 44.8385 63.5001 44.3163 64.1441 44.3163C64.7882 44.3163 65.3103 44.8385 65.3103 45.4825C65.3103 46.1266 64.7882 46.6487 64.1441 46.6487Z" fill="#FF5858"/>
<path d="M36.1558 9.32959C34.2236 9.32959 32.6572 10.896 32.6572 12.8282C32.6572 14.7605 34.2236 16.3268 36.1558 16.3268C38.0881 16.3268 39.6545 14.7605 39.6545 12.8282C39.6545 10.896 38.0881 9.32959 36.1558 9.32959ZM36.1558 13.9944C35.5118 13.9944 34.9896 13.4723 34.9896 12.8282C34.9896 12.1842 35.5118 11.662 36.1558 11.662C36.7999 11.662 37.3221 12.1842 37.3221 12.8282C37.3221 13.4723 36.7999 13.9944 36.1558 13.9944Z" fill="#FF5858"/>
<path d="M25.6596 4.66484C26.9477 4.66484 27.992 3.62058 27.992 2.33242C27.992 1.04426 26.9477 0 25.6596 0C24.3714 0 23.3271 1.04426 23.3271 2.33242C23.3271 3.62058 24.3714 4.66484 25.6596 4.66484Z" fill="#FF5858"/>
<path d="M58.3137 5.83105C57.6696 5.83105 57.1475 6.35322 57.1475 6.99726V8.16347C57.1475 8.80751 57.6696 9.32968 58.3137 9.32968C58.9577 9.32968 59.4799 8.80751 59.4799 8.16347V6.99726C59.4799 6.35322 58.9577 5.83105 58.3137 5.83105Z" fill="#FF5858"/>
<path d="M58.3137 0C57.6696 0 57.1475 0.52217 57.1475 1.16621V2.33242C57.1475 2.97646 57.6696 3.49863 58.3137 3.49863C58.9577 3.49863 59.4799 2.97646 59.4799 2.33242V1.16621C59.4799 0.52217 58.9577 0 58.3137 0Z" fill="#FF5858"/>
<path d="M61.8119 3.49854H60.6457C60.0017 3.49854 59.4795 4.02071 59.4795 4.66474C59.4795 5.30878 60.0017 5.83095 60.6457 5.83095H61.8119C62.456 5.83095 62.9781 5.30878 62.9781 4.66474C62.9781 4.02071 62.456 3.49854 61.8119 3.49854Z" fill="#FF5858"/>
<path d="M55.9809 3.49854H54.8146C54.1706 3.49854 53.6484 4.02071 53.6484 4.66474C53.6484 5.30878 54.1706 5.83095 54.8146 5.83095H55.9809C56.6249 5.83095 57.1471 5.30878 57.1471 4.66474C57.1471 4.02071 56.6249 3.49854 55.9809 3.49854Z" fill="#FF5858"/>
<path d="M50.1497 12.8037H44.2941C43.6501 12.8037 43.1279 13.3259 43.1279 13.9699V19.8255C43.1279 20.4695 43.6501 20.9917 44.2941 20.9917H50.1497C50.7937 20.9917 51.3159 20.4695 51.3159 19.8255V13.9699C51.3159 13.3259 50.7937 12.8037 50.1497 12.8037ZM48.9835 18.6592H45.4603V15.1361H48.9835V18.6592Z" fill="#FF5858"/>
<path d="M41.6542 22.5423C41.226 22.0853 40.5135 22.0479 40.04 22.4577L28.3779 32.9536C27.8995 33.3845 27.8608 34.1217 28.2916 34.6003C28.7225 35.0787 29.4597 35.1174 29.9383 34.6866L41.6004 24.1907C42.0705 23.7503 42.0946 23.0124 41.6542 22.5423Z" fill="#FF5858"/>
<path d="M62.9787 26.8228C62.3347 26.8228 61.8125 27.3449 61.8125 27.989V29.1552C61.8125 29.7992 62.3347 30.3214 62.9787 30.3214C63.6227 30.3214 64.1449 29.7992 64.1449 29.1552V27.989C64.1449 27.3449 63.6227 26.8228 62.9787 26.8228Z" fill="#FF5858"/>
<path d="M67.9268 26.6222L67.1023 25.7977C66.6391 25.3501 65.9008 25.363 65.4533 25.8262C65.0169 26.2781 65.0169 26.9946 65.4533 27.4467L66.2778 28.2712C66.7411 28.7187 67.4793 28.7059 67.9268 28.2426C68.3634 27.7906 68.3634 27.0741 67.9268 26.6222Z" fill="#FF5858"/>
<path d="M68.809 22.1577H67.6428C66.9987 22.1577 66.4766 22.6799 66.4766 23.3239C66.4766 23.968 66.9987 24.4901 67.6428 24.4901H68.809C69.453 24.4901 69.9752 23.968 69.9752 23.3239C69.9752 22.6799 69.453 22.1577 68.809 22.1577Z" fill="#FF5858"/>
<path d="M67.8987 18.3771C67.4468 17.9407 66.7303 17.9407 66.2783 18.3771L65.4538 19.2017C64.9984 19.6572 64.9985 20.3956 65.4541 20.851C65.6727 21.0695 65.9692 21.1924 66.2783 21.1924C66.5876 21.1924 66.8841 21.0693 67.1028 20.8507L67.9273 20.0262C68.3748 19.5629 68.362 18.8245 67.8987 18.3771Z" fill="#FF5858"/>
<path d="M62.9787 16.3267C62.3347 16.3267 61.8125 16.8488 61.8125 17.4929V18.6591C61.8125 19.3031 62.3347 19.8253 62.9787 19.8253C63.6227 19.8253 64.1449 19.3031 64.1449 18.6591V17.4929C64.1449 16.8488 63.6227 16.3267 62.9787 16.3267Z" fill="#FF5858"/>
<path d="M60.505 19.2012L59.6805 18.3767C59.2172 17.9293 58.479 17.942 58.0314 18.4053C57.595 18.8572 57.595 19.5737 58.0314 20.0257L58.856 20.8502C59.3192 21.2978 60.0574 21.285 60.505 20.8217C60.9416 20.3696 60.9416 19.6531 60.505 19.2012Z" fill="#FF5858"/>
<path d="M13.9408 5.04283C13.8035 4.62095 13.4386 4.31366 12.9997 4.24981L9.57683 3.75183L8.05026 0.650884C7.71002 0.0731733 6.96583 -0.119397 6.38812 0.220844C6.21057 0.325366 6.0626 0.473329 5.95808 0.650884L4.42452 3.75183L1.00169 4.24981C0.364214 4.34179 -0.077925 4.9332 0.0140597 5.57068C0.0506496 5.82448 0.169894 6.05903 0.353281 6.23819L2.82914 8.65225L2.24604 12.0611C2.13408 12.6953 2.55742 13.3003 3.19169 13.4123C3.44709 13.4573 3.71007 13.4161 3.93937 13.2949L7.00067 11.6809L10.062 13.2903C10.6321 13.59 11.3372 13.3709 11.6369 12.8007C11.7563 12.5738 11.7974 12.3139 11.7541 12.0611L11.171 8.65225L13.6481 6.23819C13.9651 5.92783 14.0785 5.46456 13.9408 5.04283ZM9.09985 7.41023C8.82521 7.67773 8.69969 8.06316 8.76398 8.44116L9.0532 10.1263L7.54296 9.32981C7.20345 9.15153 6.7979 9.15153 6.45838 9.32981L4.94231 10.1252L5.23153 8.44C5.29699 8.06346 5.17366 7.67861 4.9015 7.41023L3.67581 6.2172L5.36798 5.97113C5.74787 5.91603 6.07631 5.67739 6.24614 5.33321L7.00067 3.80198L7.75638 5.33321C7.92606 5.6771 8.25391 5.91559 8.63337 5.97113L10.3244 6.2172L9.09985 7.41023Z" fill="#FF5858"/>
<path d="M66.0359 58.4566H66.0313L65.5508 57.7359C62.8567 53.7071 58.6203 50.9676 53.8409 50.1637C53.2032 50.0727 52.6126 50.5159 52.5216 51.1535C52.4337 51.7696 52.8449 52.3461 53.456 52.4635C56.9033 53.0486 60.045 54.8 62.3554 57.4245C60.4129 57.7739 58.714 58.9406 57.6905 60.6281C56.4345 62.8776 57.2399 65.7192 59.4894 66.9752C61.7389 68.2312 64.5805 67.4258 65.8365 65.1763C66.3163 64.2502 66.5753 63.2255 66.5934 62.1826C67.8342 63.9849 67.9335 66.3384 66.8488 68.2388C66.5202 68.7927 66.7028 69.5082 67.2568 69.8368C67.8107 70.1653 68.5262 69.9827 68.8548 69.4287C68.8653 69.411 68.8754 69.393 68.885 69.3747C71.0203 65.5606 69.7625 60.7411 66.0359 58.4566ZM63.8026 64.0381C63.1802 65.166 61.7613 65.5756 60.6336 64.9531C59.5059 64.3307 59.0961 62.9118 59.7186 61.7841C59.7221 61.7778 59.7256 61.7714 59.7291 61.7651C60.4173 60.6383 61.5781 59.8829 62.8872 59.7103C63.0899 59.7047 63.2907 59.7514 63.4703 59.8456C64.4545 60.3948 64.507 62.7762 63.8026 64.0381Z" fill="#FF5858"/>
</svg>
