<svg width="80" height="74" viewBox="0 0 80 74" fill="none" xmlns="http://www.w3.org/2000/svg">
<path d="M79.6471 51.7031L74.1289 46.185C73.6581 45.7144 72.8951 45.7144 72.4245 46.185C71.9538 46.6557 71.9538 47.4188 72.4245 47.8893L73.193 48.6577L54.6677 67.1832L48.0591 60.5746L66.5845 42.0492L68.4731 43.9378C68.9439 44.4085 69.7069 44.4085 70.1775 43.9378C70.6482 43.4672 70.6482 42.704 70.1775 42.2336L67.4434 39.4994C65.2773 37.2782 63.854 34.7475 61.8489 32.3729C64.1397 29.2963 61.7154 24.7919 57.8995 24.9791C58.0256 22.2996 55.736 19.9978 53.0478 20.125C53.1738 17.4468 50.8756 15.1409 48.1924 15.2722C48.4005 10.8512 42.8748 8.86268 39.9996 12.0557L39.7158 11.7719C37.9079 9.96404 34.966 9.96404 33.1581 11.7719C32.1973 12.7327 31.7471 14.0137 31.8075 15.2746C29.1238 15.1461 26.825 17.4377 26.9521 20.1279C25.8831 20.0771 24.8005 20.3948 23.9101 21.0781C22.2717 20.5002 20.4804 20.7098 18.8939 21.6869C16.938 22.8916 15.7139 24.9871 15.684 27.1716L14.3188 37.7375L0.352993 51.7031C-0.117664 52.1738 -0.117664 52.9369 0.352993 53.4074L20.5826 73.6371C20.8178 73.8725 21.1264 73.9901 21.4347 73.9901C21.7431 73.9901 22.0516 73.8725 22.2868 73.6371L34.4971 61.4269C34.9678 60.9562 34.9678 60.1931 34.4971 59.7226L32.4457 57.6712C34.7487 55.3684 37.0586 54.2018 39.9997 52.8731C42.9181 54.1917 45.2711 55.3888 47.5537 57.6712L45.5023 59.7226C45.2764 59.9485 45.1495 60.2551 45.1495 60.5747C45.1495 60.8943 45.2764 61.2009 45.5023 61.4269L57.7126 73.6371C57.948 73.8724 58.2565 73.9901 58.5649 73.9901C58.8733 73.9901 59.1818 73.8725 59.4172 73.6371L79.6469 53.4075C79.8729 53.1816 79.9998 52.875 79.9998 52.5554C79.9998 52.2358 79.873 51.929 79.6471 51.7031ZM58.1214 27.384C59.6817 27.3859 60.7919 29.0834 60.158 30.5129C59.1895 29.5247 58.204 28.5528 57.2256 27.5744C57.5243 27.5108 57.8228 27.4475 58.1214 27.384ZM53.2675 22.5299C54.8421 22.5318 55.9363 24.2237 55.3044 25.6579C54.2682 24.6454 53.0973 23.7317 51.7877 23.0987C52.2106 22.7263 52.7038 22.5366 53.2675 22.5299ZM20.5863 31.469L20.3025 31.1852C19.4343 30.317 19.4343 28.9044 20.3025 28.0362C20.7367 27.6022 21.3068 27.3851 21.8769 27.3851C22.4471 27.3851 23.0173 27.6022 23.4514 28.0362L23.735 28.3198L22.1605 29.8943L20.5863 31.469ZM34.8625 13.4762C35.2967 13.0422 35.8668 12.8251 36.4369 12.8251C37.0071 12.8251 37.5773 13.0422 38.0114 13.4762L38.2951 13.76L35.1461 16.909L34.8623 16.6252C33.9943 15.757 33.9943 14.3444 34.8625 13.4762ZM29.357 19.9041C29.357 19.3094 29.5885 18.7502 30.0092 18.3297C30.4434 17.8956 31.0135 17.6785 31.5836 17.6785C32.1538 17.6785 32.7241 17.8956 33.1581 18.3297L33.4419 18.6134L31.8674 20.1879L30.2928 21.7623L30.0091 21.4785C29.5885 21.058 29.357 20.4988 29.357 19.9041ZM26.7302 22.5318C27.3003 22.5318 27.8708 22.7489 28.3046 23.1829L28.5884 23.4667L25.4394 26.6157L25.1556 26.332C24.2874 25.4637 24.2874 24.0511 25.1556 23.1829C25.59 22.7488 26.1599 22.5318 26.7302 22.5318ZM20.1579 23.7391C20.6184 23.4556 21.4182 23.0918 22.3686 23.1863C22.1615 23.7641 22.0717 24.3749 22.1008 24.9814C20.5525 24.9071 19.02 25.6442 18.1134 26.9026C18.2381 25.6587 19.0115 24.4451 20.1579 23.7391ZM21.4347 71.0806L2.90955 52.5552L5.10263 50.3622L23.6278 68.8875L21.4347 71.0806ZM45.3709 52.6534C44.5209 52.1251 43.6189 51.6793 42.6826 51.3248C43.8828 50.4608 44.8965 49.395 45.9378 48.3539C46.4085 47.8832 46.4085 47.1201 45.9378 46.6496C45.467 46.1789 44.704 46.1789 44.2334 46.6496C42.7716 48.1114 41.3436 49.5261 39.4637 50.4605C36.17 52.1074 33.3924 53.3161 30.7418 55.9667L20.4947 45.7195C20.024 45.2489 19.2609 45.2489 18.7904 45.7195C18.3198 46.1902 18.3198 46.9533 18.7904 47.4238L31.941 60.5744L25.3325 67.183L6.80689 48.6579L13.4154 42.0494L14.6087 43.2427C15.0793 43.7133 15.8424 43.7133 16.3129 43.2427C16.7836 42.772 16.7836 42.0089 16.3129 41.5384L15.1196 40.3451L16.3134 39.1514C16.5017 38.9631 16.6222 38.7177 16.6565 38.4537L17.5754 31.3416C18.0145 32.4372 18.919 33.2107 19.7317 34.0233C20.203 34.4948 20.9771 34.4872 21.4384 34.0257L41.9884 13.4756C43.9965 11.4674 47.1526 14.6107 45.1379 16.6252C44.9027 16.8605 44.785 17.169 44.785 17.4774C44.785 17.7857 44.9027 18.0942 45.1379 18.3295C45.6087 18.8002 46.3717 18.8002 46.8423 18.3295C48.8738 16.2981 52.022 19.4472 49.9909 21.478C49.7556 21.7133 49.638 22.0218 49.638 22.3302C49.638 22.0517 40.0642 22.1817 39.2898 22.1817C34.0432 22.1817 33.1721 29.9519 38.3568 30.9638L44.3325 32.7336C45.2658 33.0097 46.1234 33.52 46.8128 34.2096L51.7432 39.1398L48.2641 42.6189C47.7933 43.0895 47.7933 43.8525 48.2639 44.3231C48.7346 44.7938 49.4977 44.7938 49.9682 44.3231L54.2996 39.9919C54.5257 39.766 54.6526 39.4594 54.6526 39.1398C54.6526 38.8202 54.5257 38.5136 54.2997 38.2877L48.5173 32.5053C47.5445 31.5325 46.3339 30.8121 45.0169 30.4226L38.9822 28.6353C36.7589 27.9772 36.5504 24.5922 39.29 24.5922H47.8527C50.1787 24.5922 52.1682 25.9252 53.7577 27.5149C53.7577 27.5149 58.9848 32.7634 59.3383 33.159C61.3983 35.4499 62.7163 38.1803 64.8804 40.3443L49.2583 55.9665C48.0443 54.7528 46.8404 53.5661 45.3709 52.6534ZM58.5652 71.0806L56.3723 68.8876L74.8975 50.3623L77.0905 52.5554L58.5652 71.0806Z" fill="#FF5858"/>
<path d="M40.0001 4.88443C40.6658 4.88443 41.2052 4.34483 41.2052 3.67926V1.21542C41.2052 0.549847 40.6658 0.0102539 40.0001 0.0102539C39.3345 0.0102539 38.7949 0.549847 38.7949 1.21542V3.67926C38.7949 4.34483 39.3345 4.88443 40.0001 4.88443Z" fill="#FF5858"/>
<path d="M33.204 5.32997C33.4019 5.78263 33.8443 6.05259 34.3087 6.05259C34.4699 6.05259 34.6338 6.01997 34.7909 5.95136C35.4007 5.68461 35.6789 4.97405 35.4122 4.36423L34.4249 2.10688C34.1581 1.49706 33.4476 1.21875 32.8378 1.48566C32.228 1.7524 31.9498 2.46296 32.2165 3.07278L33.204 5.32997Z" fill="#FF5858"/>
<path d="M28.7429 9.08276C28.9747 9.29712 29.2682 9.40301 29.5608 9.40301C29.885 9.40301 30.2083 9.27286 30.446 9.01608C30.8979 8.52742 30.868 7.76495 30.3793 7.31294L28.5703 5.64017C28.0815 5.18815 27.3192 5.2182 26.8672 5.70685C26.4153 6.19551 26.4452 6.95797 26.9338 7.40999L28.7429 9.08276Z" fill="#FF5858"/>
<path d="M45.2089 5.95115C45.3661 6.01992 45.5298 6.05238 45.6912 6.05238C46.1555 6.05238 46.5981 5.78242 46.796 5.32976L47.7833 3.07241C48.0499 2.4626 47.7717 1.75203 47.1619 1.48545C46.5526 1.21903 45.8416 1.49686 45.5748 2.10683L44.5875 4.36418C44.321 4.97384 44.5991 5.6844 45.2089 5.95115Z" fill="#FF5858"/>
<path d="M50.44 9.40301C50.7326 9.40301 51.026 9.29712 51.2579 9.08276L53.067 7.40999C53.5557 6.95813 53.5857 6.19567 53.1337 5.70685C52.6817 5.2182 51.9192 5.18815 51.4306 5.64017L49.6214 7.31294C49.1327 7.76479 49.1027 8.52726 49.5547 9.01608C49.7924 9.27286 50.1157 9.40301 50.44 9.40301Z" fill="#FF5858"/>
<path d="M25.6542 62.021C26.384 61.8485 26.8358 61.117 26.6633 60.3872C26.4908 59.6573 25.7593 59.2055 25.0295 59.3781C24.2996 59.5506 23.8479 60.2821 24.0204 61.0119C24.1929 61.7417 24.9244 62.1935 25.6542 62.021Z" fill="#FF5858"/>
</svg>
