<svg width="65" height="65" viewBox="0 0 65 65" fill="none" xmlns="http://www.w3.org/2000/svg">
<path d="M61.7502 32.5001H60.667V6.50003H61.7502C63.5451 6.50003 65.0003 5.04488 65.0003 3.25001C65.0003 1.45514 63.5452 0 61.7502 0H3.25001C1.45502 0 0 1.45502 0 3.25001C0 5.04501 1.45502 6.50003 3.25001 6.50003H4.33331V32.5001H3.25001C1.45502 32.5001 0 33.9553 0 35.7501C0 37.545 1.45502 39.0002 3.25001 39.0002H61.7502C63.5451 39.0002 65.0003 37.545 65.0003 35.7501C65.0003 33.9553 63.5452 32.5001 61.7502 32.5001ZM3.25001 4.33331C2.65206 4.33255 2.16748 3.84797 2.16672 3.25001C2.16748 2.65206 2.65206 2.16748 3.25001 2.16672H61.7502C62.3486 2.16672 62.8335 2.65168 62.8335 3.25001C62.8335 3.84835 62.3486 4.33331 61.7502 4.33331H3.25001ZM58.5002 6.50003V32.5001H6.50003V6.50003H58.5002ZM61.7502 36.8334H3.25001C2.65168 36.8334 2.16672 36.3485 2.16672 35.7501C2.16672 35.1518 2.65168 34.6669 3.25001 34.6669H61.7502C62.3482 34.6676 62.8328 35.1522 62.8335 35.7501C62.8328 36.3481 62.3482 36.8327 61.7502 36.8334Z" fill="#FF5858"/>
<path d="M18.4167 24.8443C19.015 24.8443 19.5 24.3592 19.5 23.761V18.4574L22.75 19.8384V26.3031L22.7524 26.3149C22.7537 26.4525 22.7812 26.5886 22.8334 26.7158C22.9079 26.8326 22.9844 26.948 23.0628 27.0623C23.1627 27.1645 23.2821 27.2459 23.4136 27.3017L28.8005 29.5891C31.1684 30.5859 33.8384 30.5849 36.2056 29.5864L41.5866 27.3016C41.7182 27.2457 41.8375 27.1644 41.9374 27.0622C42.0159 26.948 42.0923 26.8325 42.1668 26.7157C42.2191 26.5884 42.2465 26.4523 42.2478 26.3148L42.2501 26.303V19.8383L46.5406 18.0149C47.2274 17.6958 47.6668 17.0072 47.6668 16.2498C47.6668 15.4924 47.2274 14.8038 46.5406 14.4846L33.1724 8.80408C32.7429 8.61999 32.2567 8.61999 31.8272 8.80408L18.4595 14.4846C17.7638 14.7936 17.3203 15.4887 17.3333 16.2498V23.7607C17.3334 24.3592 17.8184 24.8443 18.4167 24.8443ZM40.0834 25.5863L35.3649 27.5897C33.535 28.3606 31.4715 28.3617 29.6408 27.5923L24.9165 25.5863V20.7592L31.8276 23.6959C32.2571 23.8799 32.7433 23.8799 33.1728 23.6959L40.0832 20.7592V25.5863H40.0834ZM32.5001 10.8724L45.1542 16.25L40.7501 18.1216L40.7406 18.1256L32.5001 21.6275L24.2595 18.1256L24.25 18.1216L19.8459 16.25L32.5001 10.8724Z" fill="#FF5858"/>
<path d="M62.8335 58.4997H60.6668V57.1069C60.639 54.3641 59.065 51.872 56.6004 50.6683C58.3259 49.1953 58.9507 46.803 58.1656 44.6743C57.3806 42.5457 55.3522 41.1318 53.0834 41.1318C50.8146 41.1318 48.7861 42.5457 48.0012 44.6743C47.2162 46.803 47.8408 49.1953 49.5664 50.6683C47.1017 51.8721 45.5277 54.3641 45.4999 57.1069V58.4997H40.0832V57.1069C40.0554 54.3641 38.4814 51.872 36.0167 50.6683C37.7423 49.1953 38.367 46.803 37.582 44.6743C36.797 42.5457 34.7685 41.1318 32.4997 41.1318C30.231 41.1318 28.2025 42.5457 27.4175 44.6743C26.6326 46.803 27.2572 49.1953 28.9828 50.6683C26.5181 51.8721 24.9441 54.3641 24.9163 57.1069V58.4997H19.5001V57.1069C19.4723 54.3641 17.8983 51.872 15.4336 50.6683C17.1592 49.1953 17.7839 46.803 16.9988 44.6743C16.2139 42.5457 14.1854 41.1318 11.9166 41.1318C9.64784 41.1318 7.61938 42.5457 6.83442 44.6743C6.04947 46.803 6.67408 49.1953 8.39963 50.6683C5.93496 51.8721 4.36098 54.3641 4.33318 57.1069V58.4997H2.16672C0.97056 58.5009 0.00114258 59.4703 0 60.6664V62.8332C0.00114258 64.0293 0.97056 64.9986 2.16672 64.9999H62.8337C64.0298 64.9987 64.9991 64.0293 65.0004 62.8332V60.6664C64.9991 59.4703 64.0297 58.5009 62.8335 58.4997ZM53.0835 43.333C54.8784 43.333 56.3335 44.788 56.3335 46.583C56.3335 48.378 54.8785 49.833 53.0835 49.833C51.2894 49.8311 49.8354 48.3771 49.8335 46.583C49.8335 44.7881 51.2886 43.333 53.0835 43.333ZM47.6669 57.1069C47.8356 54.2389 50.2107 51.9996 53.0836 51.9996C55.9566 51.9996 58.3315 54.2389 58.5004 57.1069V58.4997H47.667V57.1069H47.6669ZM32.5001 43.333C34.295 43.333 35.7501 44.788 35.7501 46.583C35.7501 48.378 34.295 49.833 32.5001 49.833C30.706 49.8311 29.252 48.3771 29.2501 46.583C29.2501 44.7881 30.7053 43.333 32.5001 43.333ZM27.0834 57.1069C27.2521 54.2389 29.6272 51.9996 32.5001 51.9996C35.3731 51.9996 37.748 54.2389 37.9169 57.1069V58.4997H27.0835V57.1069H27.0834ZM11.9168 43.333C13.7116 43.333 15.1668 44.788 15.1668 46.583C15.1668 48.378 13.7118 49.833 11.9168 49.833C10.1226 49.8311 8.66865 48.3771 8.66674 46.583C8.66674 44.7881 10.1218 43.333 11.9168 43.333ZM6.50003 57.1069C6.59118 54.2034 9.01282 51.9201 11.9168 51.9997C14.8206 51.9201 17.2422 54.2034 17.3335 57.1069V58.4997H6.50003V57.1069ZM2.16672 62.833V60.6663H62.8337L62.8352 62.833H2.16672Z" fill="#FF5858"/>
</svg>
