<svg width="70" height="71" viewBox="0 0 70 71" fill="none" xmlns="http://www.w3.org/2000/svg">
<path d="M68.871 34.371H67.7419V27.4026C67.7419 25.0406 66.8229 22.821 65.1531 21.1534C63.4832 19.4835 61.2635 18.5645 58.9027 18.5645H57.5806V17.3429C60.2756 15.7781 62.0968 12.8674 62.0968 9.53226C62.0968 4.5521 58.0447 0.5 53.0645 0.5C48.0844 0.5 44.0323 4.5521 44.0323 9.53226C44.0323 12.8663 45.8534 15.7781 48.5484 17.3429V18.5645H47.2263C44.8655 18.5645 42.6458 19.4835 40.976 21.1534C39.3061 22.8221 38.3871 25.0406 38.3871 27.4026V34.371H36.129V30.9839C36.129 30.3595 35.6232 29.8548 35 29.8548H31.6129V29.4676C31.6129 26.1753 32.7239 23.0558 34.7595 20.5279C35.1795 20.7142 35.6413 20.8226 36.129 20.8226C37.9965 20.8226 39.5161 19.3029 39.5161 17.4355C39.5161 15.5681 37.9965 14.0484 36.129 14.0484C34.2616 14.0484 32.7419 15.5681 32.7419 17.4355C32.7419 17.9865 32.8865 18.4979 33.1202 18.9585C30.6826 21.9132 29.3548 25.5882 29.3548 29.4676V29.8548H25.9677C25.3445 29.8548 24.8387 30.3595 24.8387 30.9839V34.371H23.7097C23.0865 34.371 22.5806 34.8756 22.5806 35.5V40.0161C22.5806 40.6405 23.0865 41.1452 23.7097 41.1452H24.8387V47.9194C21.726 47.9194 19.1935 50.4518 19.1935 53.5645C19.1935 55.2411 19.9432 56.7326 21.1073 57.7679C19.3392 58.574 17.8726 59.9289 16.9355 61.6213C15.9984 59.93 14.5318 58.5752 12.7637 57.7679C13.9277 56.7326 14.6774 55.2411 14.6774 53.5645C14.6774 50.4518 12.145 47.9194 9.03226 47.9194C5.91952 47.9194 3.3871 50.4518 3.3871 53.5645C3.3871 55.2411 4.13677 56.7326 5.30081 57.7679C2.17903 59.1916 0 62.3348 0 65.9839V69.371C0 69.9953 0.505806 70.5 1.12903 70.5H48.5484C49.1716 70.5 49.6774 69.9953 49.6774 69.371V68.2419H66.6129C67.2361 68.2419 67.7419 67.7373 67.7419 67.1129V41.1452H68.871C69.4942 41.1452 70 40.6405 70 40.0161V35.5C70 34.8756 69.4942 34.371 68.871 34.371ZM36.129 16.3065C36.7511 16.3065 37.2581 16.8123 37.2581 17.4355C37.2581 18.0587 36.7511 18.5645 36.129 18.5645C35.5069 18.5645 35 18.0587 35 17.4355C35 16.8123 35.5069 16.3065 36.129 16.3065ZM65.4839 27.4026V34.371H63.2258V29.8548H60.9677V34.371H54.1936V26.0365L57.076 27.4771C57.234 27.5573 57.4079 27.5968 57.5806 27.5968C57.7274 27.5968 57.8742 27.5685 58.0131 27.511C58.3156 27.3856 58.5482 27.135 58.6521 26.8256L60.5794 21.045C61.6948 21.3374 62.72 21.9132 63.5577 22.751C64.7997 23.9929 65.4839 25.6447 65.4839 27.4026ZM49.1129 20.8226L51.3495 23.8044L49.2077 24.8758L47.8574 20.8226H49.1129ZM57.0161 20.8226H58.2727L56.9224 24.8758L54.7806 23.8044L57.0161 20.8226ZM53.0645 2.75806C56.3839 2.75806 59.1477 5.15952 59.7235 8.31516C57.5852 8.04419 55.606 7.08903 54.0581 5.54113L53.865 5.34694C53.4416 4.92129 52.6897 4.92129 52.2663 5.34694L52.0744 5.54C50.5253 7.08903 48.5461 8.04419 46.4077 8.31403C46.9813 5.15952 49.7452 2.75806 53.0645 2.75806ZM46.375 10.6015C48.8566 10.3553 51.1779 9.35161 53.0645 7.70323C54.9511 9.35048 57.2713 10.3553 59.754 10.6015C59.2403 13.8305 56.4358 16.3065 53.0645 16.3065C49.6932 16.3065 46.8887 13.8305 46.375 10.6015ZM53.0645 18.5645C53.8458 18.5645 54.5989 18.455 55.3226 18.2676V19.3176L53.0645 22.3276L50.8064 19.3176V18.2676C51.5302 18.455 52.2832 18.5645 53.0645 18.5645ZM40.6452 27.4026C40.6452 25.6447 41.3294 23.9918 42.5724 22.7498C43.4102 21.9132 44.4353 21.3363 45.5508 21.0439L47.4781 26.8245C47.5819 27.1339 47.8145 27.3845 48.1171 27.5098C48.2548 27.5685 48.4016 27.5968 48.5484 27.5968C48.7211 27.5968 48.895 27.5573 49.0531 27.4782L51.9355 26.0365V34.371H45.1613V29.8548H42.9032V34.371H40.6452V27.4026ZM27.0968 32.1129H33.871V34.371H27.0968V32.1129ZM21.4516 53.5645C21.4516 51.6971 22.9713 50.1774 24.8387 50.1774C26.7061 50.1774 28.2258 51.6971 28.2258 53.5645C28.2258 55.4319 26.7061 56.9516 24.8387 56.9516C22.9713 56.9516 21.4516 55.4319 21.4516 53.5645ZM5.64516 53.5645C5.64516 51.6971 7.16484 50.1774 9.03226 50.1774C10.8997 50.1774 12.4194 51.6971 12.4194 53.5645C12.4194 55.4319 10.8997 56.9516 9.03226 56.9516C7.16484 56.9516 5.64516 55.4319 5.64516 53.5645ZM2.25806 65.9839C2.25806 62.2479 5.29629 59.2097 9.03226 59.2097C12.7682 59.2097 15.8065 62.2479 15.8065 65.9839V68.2419H2.25806V65.9839ZM18.0645 65.9839C18.0645 62.2479 21.1027 59.2097 24.8387 59.2097C28.5747 59.2097 31.6129 62.2479 31.6129 65.9839V68.2419H18.0645V65.9839ZM47.4194 68.2419H33.871V65.9839C33.871 62.2479 36.9092 59.2097 40.6452 59.2097C44.3811 59.2097 47.4194 62.2479 47.4194 65.9839V68.2419ZM37.2581 53.5645C37.2581 51.6971 38.7777 50.1774 40.6452 50.1774C42.5126 50.1774 44.0323 51.6971 44.0323 53.5645C44.0323 55.4319 42.5126 56.9516 40.6452 56.9516C38.7777 56.9516 37.2581 55.4319 37.2581 53.5645ZM65.4839 65.9839H49.6774C49.6774 62.3348 47.4984 59.1916 44.3766 57.7679C45.5406 56.7326 46.2903 55.2411 46.2903 53.5645C46.2903 50.4518 43.7579 47.9194 40.6452 47.9194C37.5324 47.9194 35 50.4518 35 53.5645C35 55.2411 35.7497 56.7326 36.9137 57.7679C35.1456 58.574 33.679 59.9289 32.7419 61.6213C31.8048 59.93 30.3382 58.5752 28.5702 57.7679C29.7342 56.7326 30.4839 55.2411 30.4839 53.5645C30.4839 51.2556 29.0873 49.2719 27.0968 48.3981V41.1452H65.4839V65.9839ZM67.7419 38.8871H24.8387V36.629H67.7419V38.8871Z" fill="#FF5858"/>
<path d="M3.3871 23.0809H21.4516C23.319 23.0809 24.8387 21.5612 24.8387 19.6938V17.9031L29.024 13.7178C29.4655 13.2764 29.4655 12.5628 29.024 12.1214L24.8387 7.93604V6.1454C24.8387 4.27798 23.319 2.7583 21.4516 2.7583H3.3871C1.51968 2.7583 0 4.27798 0 6.1454V19.6938C0 21.5612 1.51968 23.0809 3.3871 23.0809ZM2.25806 6.1454C2.25806 5.52217 2.765 5.01637 3.3871 5.01637H21.4516C22.0737 5.01637 22.5806 5.52217 22.5806 6.1454V8.40346C22.5806 8.70378 22.6992 8.99056 22.9115 9.20169L26.6294 12.9196L22.9115 16.6375C22.6992 16.8486 22.5806 17.1354 22.5806 17.4357V19.6938C22.5806 20.317 22.0737 20.8228 21.4516 20.8228H3.3871C2.765 20.8228 2.25806 20.317 2.25806 19.6938V6.1454Z" fill="#FF5858"/>
<path d="M4.51611 7.27441H20.3226V9.53248H4.51611V7.27441Z" fill="#FF5858"/>
<path d="M4.51611 16.3066H20.3226V18.5647H4.51611V16.3066Z" fill="#FF5858"/>
<path d="M6.77441 11.7905H18.0647V14.0486H6.77441V11.7905Z" fill="#FF5858"/>
</svg>
